<svg width="164" height="164" xmlns="http://www.w3.org/2000/svg" xmlns:xlink="http://www.w3.org/1999/xlink"><defs><linearGradient x1="50%" y1="0%" x2="50%" y2="100%" id="a"><stop stop-color="#DEF6FF" offset="0%"/><stop stop-color="#8CD8FF" offset="100%"/></linearGradient><linearGradient x1="50%" y1="0%" x2="50%" y2="100%" id="c"><stop stop-color="#4FB3FF" offset="0%"/><stop stop-color="#2A83F9" offset="100%"/></linearGradient><linearGradient x1="50%" y1="0%" x2="50%" y2="100%" id="d"><stop stop-color="#FFC700" offset="0%"/><stop stop-color="#FF9600" offset="100%"/></linearGradient><path d="M82.5 22.3l50.962 29.422a1 1 0 01.5.867v58.845a1 1 0 01-.5.866L82.5 141.722a1 1 0 01-1 0L30.538 112.3a1 1 0 01-.5-.866V52.589a1 1 0 01.5-.867L81.5 22.3a1 1 0 011 0z" id="b"/></defs><g fill="none" fill-rule="evenodd"><g transform="rotate(150 82 82.011)"><use stroke="#FFF" stroke-width="18" fill="url(#a)" xlink:href="#b"/><use stroke="url(#c)" stroke-width="10" xlink:href="#b"/></g><path d="M91.09 4.19a3.996 3.996 0 015.03 4.242h0L90.508 67.01l31.766.001a2.99 2.99 0 012.122.879 3 3 0 01.482 3.613h0L75.331 157.96a3.987 3.987 0 01-2.423 1.871 3.996 3.996 0 01-5.03-4.242h0l5.61-58.58-31.763.001a2.99 2.99 0 01-2.122-.879 3 3 0 01-.482-3.613h0L88.669 6.063a3.987 3.987 0 012.423-1.872z" stroke="#FFF" stroke-width="4" fill="url(#d)"/><path stroke="#FFF" stroke-width="18" d="M82 82.011l24 41.57-24-41.57H34h48l24-41.57z"/><path stroke="url(#c)" stroke-width="10" transform="rotate(150 82 82.011)" d="M82 82.011l-47.631 27.5L82 82.011v-55 55l47.631 27.5z"/></g></svg>