<svg xmlns="http://www.w3.org/2000/svg" viewBox="0 0 612 456.1"><style>.st0{fill:#e6b37d}.st2{fill:#be8f63}.st6{fill:#ad8156}.st7{fill:#8d643b}.st9{fill:none;stroke:#322212;stroke-width:2;stroke-miterlimit:10}.st10{fill:#322212}</style><g id="Layer_1"><path class="st0" d="M287 104.2l226.9 51.5 65.9-109.3L347.9 7.8zM20.1 53.1l75.3 119.4 189.5-67.2L217.5 1.7z"/><path fill="#934c21" d="M95.1 172.2l189.7-66.7 232.1 50-179.1 146.7z"/><path class="st2" d="M1.7 116.6c.2-.4.4-.3.5.1-.1-.1-.3-.1-.5-.1z"/><path fill="none" stroke="#3a2316" stroke-width="2" stroke-miterlimit="10" d="M285.3 108.6v243.2"/><path class="st2" d="M95.1 172.2l236.7 70-4.1 208.8-222.4-79.7z"/><path fill="#ddac77" d="M516.9 155.5l-11.3 192L327.7 451l2.8-209.9z"/><path fill="none" stroke="#d4a372" stroke-width="5" stroke-miterlimit="10" d="M141.4 152.9l145.1-48.2 192.1 42.7"/><path class="st6" d="M611.4 71.3l-96.5 86.4-184.4 84.4 74-89.2z"/><path class="st7" d="M449 238.1l-29.7 16.2 1.2-54.1 96.9-88.4 27.3-12.3-94.7 86.7z"/><path class="st6" d="M331.8 242.2l-78.3-59.8L1.7 116.6l93.7 55.9z"/><path class="st7" d="M97.7 140.8l43.7 12.1 88.2 53.7.6 54.1-39.7-12.3-1.3-49.3z"/><path fill="none" stroke="#deb37e" stroke-width="3" stroke-miterlimit="10" d="M2.3 116.7l248 63.6 81.5 61.9 73.7-88.3 203.9-81.6"/><path class="st9" d="M234.9 326.5l85.8 28.9-1.2 84.9-84.9-32.2zM276.2 341.1v83.8M234.9 367.9l84.6 32.7"/><path class="st10" d="M267.4 343.6l-13.7-4.5-2.1 1.3 2.6 2.7-3.3 2.2v1.9l-1.9-2.4 1.7-1.8-1.7-2v-3.4l-1.7-.6s-8.5 16 7.1 21.4c14.8 5.2 13-14.8 13-14.8z"/><path class="st10" d="M252.6 356.6c-.2.1-.3.3-.1.5.8 1.7 1.2 9.2.7 10.2-.5.9-1.7 1-2.5 1.2-.4.1-.2.8.3.9l7.7 2.3c.4.1.5-.5.1-.8-1.6-1.2-2.8-3.5-2.9-4.5 0-1.3.4-7.1.3-9.2 0-.3-.4-.6-.6-.5l-3-.1zM241.9 389s2.9-8.3 10.2-5.9c3.2 1.1 2.5-1.1 4.5-.5 1.9.6.4 1.7 3 2.6 7.5 2.5 7.1 11.4 7.1 11.4s-10.4-.4-24.8-7.6z"/><path d="M249.8 407.3s-.4 2.9 2.3 2.9c2.1 0 1.8-3.1 2-3.9.6-6.1.7-15.6.7-15.6" fill="none" stroke="#322212" stroke-width="2" stroke-linecap="round" stroke-miterlimit="10"/><path class="st10" d="M283.4 377.3v4.8l25.7 9.1-.1-5.3zM289.4 349.8l-6 9.6 12.2 4.5z"/><path class="st10" d="M286.2 375.5l4.6 1.4v-20.2l-4 1.8zM304.4 354.8l-6 10.1 11.5 4z"/><path class="st10" d="M301.2 380.5l4.6 1.4v-20.2l-4 1.8z"/><path class="st9" d="M288.5 397l16.7 30.1M306.5 404.1l-18.6 16.3M288.1 402.5l-1.2 13.7M308.1 408.9l-1.5 12.1"/><path class="st10" d="M294.8 402.5l3 5.7 5-4zM299.6 421.9l-3-5.7-5 4zM305 408.9l-4.9 4.3 3.7 4.8zM290 415.4l4.1-3.6-3.3-5.1zM281.3 402.3l-.7 10.2 4.4-4.1z"/><path class="st10" d="M282.4 405.2l-3.2-1.4.1 5.5 3.1.8zM313.8 421.9l.7-10.1-4.4 4.1z"/><path class="st10" d="M312.8 419l3.1 1.5V415l-3.1-.8z"/><g><path class="st10" d="M500.8 343.4l-59 31.9 3.5-62.8 59.8-35v.6l-4.3 65.3zM443.2 373l56.4-30.4 4-62.6-57 33.4-3.4 59.6z"/><path class="st10" d="M471.4 359l-1.4 1.3 3.3-62.7 1.4-1.3z"/><path class="st10" d="M501.4 314.2L444 344.8l.6-1.9 57.4-30.5zM467.8 304.6l-9.3 5.5-1.5 2.4 1.7.3-2.4 3.8-.1 1.4-1.2-.6 1.2-2.4-1.1-.4.1-2.6-1.2.7s-6.5 17.5 4.1 11.4c10.2-5.7 9.7-19.5 9.7-19.5z"/><path class="st10" d="M457.3 322.9c-.1.2-.2.4-.2.6.2 1-.8 7.2-1.4 8.5-.5 1.1-1.4 2-2 2.7-.3.4-.3.8 0 .6l4.8-2.9c.3-.2.5-.8.3-.8-.9-.1-1.2-1.4-1-2.3.3-1.2 1.4-6.4 1.9-8.3.1-.3-.1-.4-.3-.1l-2.1 2zM448.3 355.1s2.3-8.1 7.3-11c2.2-1.3 1.8-2.4 3.1-3.3 1.3-.8.2 1 2 0 5.1-3 4.5 3.9 4.5 3.9s-7.2 6.4-16.9 10.4z"/><path class="st10" d="M454.6 365.1c-.9.9-1.4 1-1.7.9-.7-.2-.5-1.6-.4-1.7.1-.5.4-1.1.8-1.4.4-.3.6-.2.5.3 0 .2-.1.8.2.8 0 0 .2.1.7-.4.4-.4.6-1 .7-2.3 0-.2.1-.5.1-.6.6-4.8 1.1-11.9 1.1-12 0-.4.4-1 .7-1.4.4-.4.7-.3.6.1 0 .1-.5 7.3-1.1 12.2 0 .2 0 .3-.1.5-.1.9-.3 3.3-2.1 5zM477.5 319.4l-.1 3.6 17.4-9.9.2-3.9zM482.8 294.9l-4.6 11.1 8.3-4.6z"/><path class="st10" d="M479.5 316.3l3.2-2 .8-15.1-2.8 3.9zM493 288.9l-4.6 11.5 7.9-4.5z"/><path class="st10" d="M489.8 310.2l3.1-2 .8-15-2.8 3.9zM490.1 343.4l-10.4-11.7 1.3-1.8 10.4 11.6z"/><path class="st10" d="M479.4 348.8l-.8-.2 13.5-24.3.9.3zM479.2 345.6l-1.4 1.1 1.3-10.9 1.4-1.2zM492.6 336.5l-1.4 1.1 1.6-10.1 1.3-1.1zM484.5 330.8l1.9 2.3 3.6-6.2zM487 342.2l-1.8-2.3-3.6 6.3zM491.3 329l-3.6 6.4 2.4 1.2zM480.7 343.6l2.9-5.3-2.1-1.7zM475.1 339.4l-.8 8.1 3.2-5.9z"/><path class="st10" d="M475.8 340.9l-2.2 1-.1 4.1 2.1-1.5zM496.9 333l.9-8.1-3.2 6z"/><path class="st10" d="M496.3 331.5l2.1-1 .2-4-2.1 1.4z"/></g></g></svg>