<svg version="1.1" id="Layer_1" xmlns="http://www.w3.org/2000/svg" x="0" y="0" viewBox="0 0 612 456.1" xml:space="preserve"><style>.st0{fill:#f2bf85}.st1{fill:#deb37e}.st2{fill:#be8f63}.st3{fill:#ddac77}.st4{fill:#e6b37d}.st6{fill:#a45c30}.st7{fill:#b5885e}.st8{fill:#ad8156}.st10{fill:#c69868}.st11{fill:#d4a372}.st12{fill:#8d643b}.st13{fill:#322212}.st14{fill:#ad6838}</style><path class="st0" d="M217.5 1.7c1 2.8 3 5 4.6 7.5 5.1 7.7 10.3 15.4 15.4 23 .4.7.7 1.4 1.1 2.1-.2 2 .5 3.7 1.5 5.3 1.2 2 2.3 4 3.4 6.1.5.9.9 1.9-.6 2.3-3.4 1-7.1.1-10.4 1.6-.3.1-.9-.2-1.2-.4-1.6-.9-2.5-.3-2.9 1.4-.2 1-.3 2.2-1.5 2.2-1.3.1-2.4-.5-2.9-1.9-.2-.7-.6-1.4-1.5-.7-2.5 2-6 1.3-8.3 1.1-3.3-.4-7.3-.3-10.2-3.2-1.2-1.2-2.7-1.5-2.7 1.2 0 2.2-1.9 3-3.6 3.5-1.8.5-2-1.3-2.5-2.5-.6-1.4-1.6-1.2-2.7-.7-1.2.6-1.7 1.3-.8 2.5 1.3 1.9.2 2.7-1.4 3.4-2.4 1-3.5-.3-4.5-2.3-1-2.1-2.9-2.4-4.9-2.5-2.1-.1-4.2 0-5 2.3-.6 1.9-1.8 2.2-3.5 2.1-1-.1-2.5-.3-2.7 1.1-.3 2.2-1.8 2-3.3 2.2-2.7.4-4.6-1.2-6.7-2.2-2.3-1.1-3.8-.6-4.6 1.8-.3.9-.3 2.1-1.1 2.3-2.2.7-4 1.7-6 2.7-2.7 1.3-5.9 2.1-9.1 2.5-1.7.2-2.9.6-3.4-1.5-.1-.6-.6-1.2-1.4-1.1-.9.1-.7.8-.8 1.4-.3 1.9-1.1 3.4-3.4 3.3-.5 0-1.2.1-1.3.7-.1 3.2-2.8 2-4.3 2.3-1.6.3-1-1.7-1.4-2.7-.3-.7-.8-1.4-1.3-2-.8-.9-1.3-2.4-2.9-1.7-1.8.7-1.9 2.5-1.4 3.9 1 2.7-.4 2.9-2.4 2.8-.8-.1-1.6 0-2.4 0-1.2 0-2.1 0-2.4 1.7-.3 1.6-2.2 2.5-3.3 1.8-1.7-1.1-3.6-1.6-5.2-2.6-.6-.4-.9-1.4-1.7-1.1-1 .4-.1 1.2-.1 1.8.1 1.2-.8 1.7-1.5 2.4-.6.5-1.4.9-1.8 1.5-1.7 2.6-3.5 4.7-7.1 3.2-.8-.3-1.6 0-2.3.4-.9.5-1.7.5-2.7-.1-2.8-1.4-4.4-.4-4.9 2.7-.4 2.3-5 4.7-6.7 3.3-2.2-1.8-4.2-2.3-6.3.1-.7.8-1.5 1.5-2.3 2.2-1.1 1-1.2 2-.2 3 .9.9 1.1 1.8.4 2.9-.7 1.1-1.7 1.8-2.9 1.4-1.5-.5-2.5 0-3.4.9-.7.7-1.5.7-2.4 1-2 .5-3.9-.1-5.8-.1-10.1-15.7-20.2-31.3-30.3-47 .7-.3 1.3-.6 2-.8 10.4-2.7 20.8-5.3 31.2-8 25.7-6.7 51.4-13.4 77.2-20.1 16.5-4.3 33.1-8.6 49.6-12.9 8.4-2.2 16.7-4.4 25.1-6.7 4.2-.1 8.5-.1 12.8-.1z"/><path class="st1" d="M.1 115c.6-.6 1.1-1.1 2.3-.8 18.3 4.8 36.5 9.5 54.8 14.2 4.4 1.1 8.8 2.2 13.3 3.3h1.4c1.6 1.6 3.8 1.6 5.7 2 8.3 1.9 16.6 4.4 24.9 6.3 3.7.8 7.2 2.3 10.9 2.5 5.8 2.2 11.8 3.1 17.7 4.8 5 1.4 10.1 2.6 15.2 3.8 1.4.4 2.9.7 4.3 1.1 1.5.4 2.9.8 4.4 1.2 6.4 1.5 12.7 3.7 19.2 4.8 3.7 1.3 7.5 2.1 11.3 3.1 15.2 3.9 30.3 7.8 45.4 11.7 6.7 1.8 13.6 3.2 20.2 5.5-.7.4-.8 1.1-.8 1.8-.6-.1-1.3 0-1.9-.2-12.6-3.2-25.2-6.5-37.8-9.7-22.6-5.9-45.3-11.8-67.9-17.7-.5-.1-1-.4-1.4.2-6.6-2.5-13.6-4-20.5-5.5-.6-.7-1.5-.8-2.4-1.1-6.9-1.7-13.8-3.5-20.8-5.3-4.2-1.1-8.5-2.2-12.7-3.2-21.9-5.8-43.9-11.5-66-17.1-5.5-1.4-11-3.2-16.6-4-.1-.4-.3-.5-.5-.1-.5-.2-1.1-.3-1.6-.5-.1-.4-.1-.7-.1-1.1z"/><path class="st2" d="M103.3 338c-1.1-4.7-.6-9.6-1-14.4-.7-9.6-.9-19.3-1.3-28.9 1.7-.7 1.7-2.2 1.4-3.5-.4-1.6-.1-3.2-.1-4.8.1-5.6 1.5-11.2.4-16.8-.8-4.1 1.1-6.2 5.2-6.2 1.7 0 3.2.6 4.6 1.2 1.1.5 2.1.2 1.6-1.1-1.3-2.9.6-4.9 1.6-7.3.8-1.8 3.2-1.8 3.5-3.8.5-3.1.6-6.3.3-9.5-.1-1.2-.2-1.9 1.1-2.5 1.3-.7 1.8-1.9.4-3.3-1.7-1.6-2.4-3.5-2.2-5.8.1-.8-.3-1.5-.5-2.3-.7-2.7-2.6-4.6-4.1-6.8-.5-.7-1.3-1.6-.4-2.4 2.5-2.3.4-3.7-1.1-4.9-.8-.7-1.3-1.3-1.5-2.3-.7-3.9-2.2-7.7-1.6-11.9.1-.5-.1-1.1-.3-1.5-3.1-6.9-6.5-13.6-10.8-19.8-1-1.4-2-2-3.6-1.7-.5-1.9.6-3.6.2-5.5 4.3 0 4.6.3 6 4.2.1.3.4.6.7.7 4.5 1.5 8.3 4.7 13 5.6 3 .6 5.7 2 8.7 2.6 4.1.8 7.4 3.9 11.9 3.7.9 0 1.9.9 2.4 1.9.7 1.5 1.5 2.2 3.1.9.9-.7 1.4.1 1.9.7 1.6 1.9 3.6 2.9 6.1 2.7 2.7-.2 4.7.7 5.9 3.2.5 1.1 1.1 2.2 2.7 2.2 3.1.1 5.8.8 8.6 3 5.3 4.1 10.5 7.9 12.9 14.5.8 2.2 2.9 3.4 5.1 4 .8.2 1.5.4 1.9 1.2.3.6.8 1.1 1.5.8.7-.2.7-1 .8-1.6.1-.7-.3-1.5.9-1.5.1.3.3.6.3 1 .4 7.7.1 15.4.6 23.1.2 2.4.9 3.4 3.1 4.1 11.3 3.3 22.6 6.7 33.9 10.2 2.1.7 2.6.2 2.6-1.9-.1-8.5-.1-17.1-.1-25.6 1.4.1.9 1.3 1.2 2.1.7 2 2 4.2 4 4.2s3.1-2.1 2.9-4.4c-.1-1.1.4-2 1.6-2.5.7-.3 1.4-.9 1.8-1.6.7-1.3 1.7-1.5 3.1-1.6 3.1-.2 6.3-.5 8.8-2.7 2.1-1.9 3.6-.9 4.9.8.8 1 1.6 2 2.5 2.8 1.2 1.1 2.5 1.2 3.1-.7.3-1 .8-1.3 1.7-1.3 4.1-.1 8.1.3 12 1.3 4.1 1 7.9 3.5 12.2 3.4 4.1-.1 7.7 1 11.4 2.4 1.1.4 2.2.9 3.3.9 4.3-.1 8.3 1.4 12.4 2 2.2.3 4.4 1.4 6.7.1-2.3-.5-3.9-2.5-6.3-2.5-1.4 0-2.6-.6-3.8-1.1-.4-.2-.8-.5-.7-1 .1-.6.6-.6 1.1-.5.7.1 1.6 0 2.1.4 1.8 1.4 3.8 1.3 5.9 1.2 2.3-.1 4.6.1 6.9.8 1.6.5 3.3.8 4.9-.3 1.2 0 1-1 1.2-1.7 1.3.7 1.7 1.9 2.1 3.2.3.9.1 2.3 1.6 2.5-.2.7-.4 1.6-1.3 1.1s-1.2-.6-1.4.5c-.4 1.9-1.9 2.5-3.7 2.5-1.3 0-2.4.4-3.5 1-1.7.9-3.4 1.9-5.4 2.3-1.3.2-2.4 1-2.8 2.2-.7 2.1-2.3 3-4.3 3.6-1.8.6-4.2.5-4.7 3.2-.1.2-.5.5-.9.6-3.3 1.3-3.9 2.1-3.1 5.6.4 1.7 1.2 3.4-1.8 2.6-.5-.1-1.1.2-1.3.7-1.1 2.3-4.3 2.9-4.6 5.9-.1.5-1.2 1.1-2 1.2-1.4.3-2.9.1-2.9 2.3 0 1.5-.8 2.9.1 4.4.6 1 1.7 2.3.8 3.1-.9.7-2.5.2-3.7-.5-.4-.2-.7-.6-1.4 0 1.9 2.7-.3 5-1 7.5-.2.8-1 1.5-.4 2.2.6.7 1.5.9 2.4.7 4.5-1 4.2 3.5 6 5.4.9 1-.7 2.1-1.5 3-1.3 1.4-2.4 3-1.4 4.8.8 1.3.5 2.1-.4 3-1.9 2-2.1 4.1-.4 6.5 1 1.5 2.6 2.8 2.7 4.9 0 .4.4.6.8.6.6-.1.5-.5.5-1 .1-1.5.2-3 .5-4.5.2-.9.7-1.8 1.9-1.1s2 4.2.9 5c-2.3 1.7-.4 3.3.1 4.7.4 1.3 2 1.4 3.5 1.1 2-.3 4-.2 4.5 2.7.5 2.6 1.6 5 4.1 6.6 1.3.9 2.2 2.9 1.9 4-1.2 4.3 1.8 5.5 4.5 7.1.9.5 1.4 1.4 2.1 2 1.8 1.7 3.5 4 6.7 2.8 1.5-.5 2.4.4 2.6 1.9.1 1.1 0 2.1-.3 3.2-.7 2.9 0 4.2 2.9 5 1.7.5 2.4 1.4 2.3 3.1-.1 1.9.5 3.7 0 5.6-.2.9 0 1.8 1.1 2.2.2.9.4 1.8.5 2.7-1.7.9-1.7 1.8 0 2.7 1.4 1.5.9 3.2.5 4.9-.6.1-1.1.3-.9.9.2.8.9.6 1.5.7-.1.7.3 1.6-.5 2.1-.3.1-.8.2-.8.4-.1.6.4.6.8.7.7.5.7 1.1 0 1.6-.7.1-1.1.5-1 1.2 0 .7.5.9 1 1 .3.6.3 1.1.3 1.8-.7 5.9-.2 11.9-.6 17.9-.2 4.2-.1 8.5.8 12.7-.3.1-.8.2-.8.4-.1.6.4.6.8.7 0 1.5-.8 2.8-.5 4.3v17.7c0 .9.4 2-.5 2.8-.6-.4-.6-1.1-.5-1.7.2-5.2-1.2-10.2-1.6-15.4-.4-4.5-2.4-8.3-4.7-12-.4-.6-.7-1.7-1.7-1.6-3.2.2-3-2.1-3.5-4.2-.4-1.7-.2-3.9-2.6-4.5v-49.8c0-1 .4-2.2-.6-3 0-1.7-1.4-1.9-2.5-2.2-11.9-3.9-23.8-7.8-35.6-11.7-16.2-5.3-32.4-10.6-48.6-16-2.1-.7-2.5-.4-2.4 1.8.3 12.8.5 25.7.7 38.5-1.3-.5-.9-1.6-.9-2.6v-13.8c0-.8.3-1.9-.6-2.2-2.6-.9-4-3.5-6.3-4.4-2.8-1.1-4.6-2.5-5.6-5.2-.2-.6-.7-1.1-1.4-1-.7.1-.7.7-.7 1.3 0 1.3-.2 2.6-1.8 2.2-1.5-.3-.6-1.5-.5-2.4.2-1.4-.6-2.4-1.7-3.1-.7-.5-1.3 0-1.9.5-2.6 2.3-2.5 2.3-4.9-.4-1.2-1.4-2.5-2.7-4.5-.8-1.1 1.1-2.3.4-3.3-.6-1.4-1.5-2.9-2.9-4.3-4.4-.6-.7-1.1-1.1-2-.9-3.1.5-5.5-.6-7.4-3.1-.3-.4-.7-1-.8-.9-2.3.8-5-.5-7 1.5-1.2 1.2-2.3 1-3.1-.4-.7-1.2-1.2-2.6-1.8-3.9-.4-1.1-1.3-1.9-2.3-2.1-1.3-.3-1.1 1.1-1.4 1.9-.4 1.1-1.5 1.5-2.1.9-2.4-2.1-5.8-2.4-8.2-4.5-1.8-1.6-4.7-1.4-6.1.6-1.1 1.6-1.8 1.5-3.2.4-2.9-2.6-6.3-2-9.6-1.2-.5.1-1.1.8-1.5.4-2.5-2.5-5.4-.8-8.2-.9-2.4-.1-5.2 2.4-6.8-1.4-.3-.8-.9-1.4-1.9-1.2-1.2.2-1 1.3-1.4 2.1-.3.7.1 1.4.3 2.1.2.6.2 1.3-.6 1.6-.7.2-1.3.1-1.7-.5-.4-.6-.6-1.3-.9-1.9-.6-.9-1.6-1.7-2.3-.6-1.6 2.7-4.7 2.4-7 3.8-2 1.2-2.9 2.6-3 4.6 0 3.8-.9 7.5-.6 11.3 0 1.1-.4 2-1.6 2.4zM290 293.8c.7-1.5-.1-2.2-1.3-2.3-1.4-.1-.9 1.2-1 2-.3 1.8.4 3.3 1.5 4.7.4.6.8 1.4 1.6 1 1-.4.7-1.4.5-2.1-.3-1.1-1.3-2-1.3-3.3z"/><path class="st3" d="M511.1 262.9c0 .5 0 1.1-.1 1.6-2.2 1.5-2.2 2.9-.1 4.9-.4 7.4-.7 14.7-1.1 22.1-.8-.1-.9-.7-1-1.3-.6-2.2-.5-4.4-.5-6.7-.1-3.6-1.5-4.9-4.8-4.4v-12.9h-.3l-54.6 30.3c-1.2.7-1.5 1.5-1.6 2.8-.2 2.4.4 5-.7 7.3-.6-.3-1.3-.6-1.9-1-1.2-.9-2.1-.7-2.5.6-.9 2.7-3.1 3.2-5.5 3.6-1.6.2-3.2.3-3.1-2.1 0-.8-.3-1.4-1.2-1.5-2-.1-5.4 2.5-5.8 4.5-.4 2.2-.5 4.6-3.6 4.8-.4 0-.7.5-1 .8-1.1 1-2.2 2.7-3.8 1.7-1.6-.9-.2-2.3.1-3.6.2-1.3-.5-2.5-1.6-2.7-1.2-.3-1 1.2-1.2 2-.3.8-.3 1.7-1.1 2.1-2 .9-2.9 2.5-3.6 4.4-.2.8-1.2 2-1.9.9-1.7-2.4-3.2-1.7-4.9-.4-.5.4-1.2.4-1.8.2-2-1-3.2.4-4.5 1.5-1.3 1.1-.4 2.2.2 3.4.4.8.1 1.9 1 2.7.5.5.2 1.2-.5 1.5-.6.3-1.1-.1-1.2-.6-.6-2.8-2.3-1.8-3.9-1.2-1 .3-2 1.1-2.8-.2-.5-.7-.6-2-1.8-1.7-1.1.3-1 1.6-1.3 2.5-.4 1.5.6 3.8-1.1 4.3-1.5.4-2.3-1.9-3.6-2.8-.6-.4-1.3-1.3-2.1-.7-.6.4-.3 1.3-.1 2 .6 2.8-1.3 5.2-4.1 5.7-2.9.5-6.3.3-6.4 4.7 0 .3-.4.6-.7.8-2.3 1.6-3.6 4-5.1 6.3-.9 1.5-1.4 3.6-3.5 4.2-1.2.4-1.9.9-2.1 2.3-.2 1.6-1.8 1.6-2.9 1.6-1-.1-1.8-.8-1.7-2 0-.7 1-1.6-.3-2.1-.9-.3-1.9-.3-2.8.4-1 .8-.5 1.6-.3 2.4.2.8.5 1.5.7 2.3.4 1.5-1.1 3.7-2.2 3-2.7-1.5-3 .1-3.5 2.1-.2.7-.5 1.7-1.6 1.4-1.9-.5-4.6-4.1-4.7-6.3-.1-1.3.1-2.7 0-4-.5-3.2.8-6.4-.5-9.5-.3-4.7-.7-9.3-.5-14 .3-.1.8-.2.8-.4.1-.6-.4-.6-.8-.7-.1-8.8.7-17.6 0-26.4.5-.4.5-.7 0-1.1.3-8.6-.5-17.3.5-25.9v-4.3c-.5-2.7.3-5.4-.5-8.1.8-.7.5-1.7.5-2.5v-11-2.1c.6-.4.6-.7 0-1.1v-5.9c0-1.2.2-2.1 1.6-.9.4.4.8.2 1.1-.2 2.9.2 5.6-.3 8.3-1.4 2.9-1.2 6.1-1.7 9-3 3.9-1.8 8.2-2.5 11.9-4.5 5.7-3.2 11.5-6.4 17.6-8.8 2.2-.9 5.2-.3 6.8-2.2 3.7-4.4 9.6-4.4 14.1-7.3 3.1-2 7.7-.9 11-3.5-.1 2.7-.2 5.3-.3 8-.1 9.1-.9 18.1-.7 27.1 0 1.2-.1 2.5-.3 3.7-.1 1-.6 2.1.1 2.8.9.9 1.8-.2 2.6-.6 8.1-4.1 16.1-8.3 24.2-12.3 1.8-.9 2.5-2.2 2.4-4-.3-7.4.5-14.9.6-22.3.1-5.9.4-11.8.5-17.7 0-.5 0-1.1.5-1.5 1.8.2 3.2-.4 4.7-1.5 1.6-1.3 3.3-2.4 4.9-3.6 3-2.3 6.6-3.6 9.9-5.2 5.6-2.8 10.6-6.6 16.8-8.5 2.9-.9 5.5-3.4 8.6-4.6.2-.1.4-.4.6-.6.9-1 2-1.7 3.4-1.9 2.1-.3 3.6-3 6.1-1.7.1 0 .4-.1.4-.3 1.7-3.4 4.7-4.5 8.3-4.5.1.9-.3 1.5-1.1 1.9-3 1.4-5.6 3.4-8.3 5.2-5.7 3.8-10.3 8.6-14 14.4-1.3 2.1-1.5 5.3-5.1 5.3-.2 0-.3.4-.5.6-2.7 3.1-5 6.5-6.4 10.4-.4 1-1 1.4-1.8 1.8-2.9 1.7-3.1 2.5-1.9 5.6.6 1.6.5 3.3-1.5 2.9-2.3-.4-1.9.9-1.9 2.1.1 2.5-.2 4.7-2.5 6.4-1.4 1.1-.8 2.9 1 3 1.3.1 1.8.6 2.3 1.7 1 2.1 2.9 4.8 4.5 5 2.3.2 3.6 1.5 5.4 2 .2 1.5.3 3 .6 4.5.4 1.9 1.9 2.5 3.5 2.9 1.5.3 2-.8 2.5-1.9.3-.7 1-1.3 1.5-1.9.9-1.1 2-1.8 3.5-1.3 1.4.5 1.9 1.5 1.9 2.9 0 .9.3 1.9 1 2.4 1.4 1.1 2.9 2.7 4.4 2.8 1.7.1 2-2.2 2.6-3.6.2-.4.4-.8 1-.7.6.1.6.6.7 1 .3 1 .4 2.3 1 3 2.5 2.7 3.1 6 3.2 9.3.2 4.4-.7 8.9 1.1 13.2.3.9.3 1.5 1.2 1.6z"/><path class="st4" d="M325.9 45.3l.5-.5c1.2 0 1.2-.8 1.1-1.7 1.2-2.9 3.3-5.2 5-7.7 4.6-6.8 8.8-13.8 13.7-20.5 2.8-3.9 2.7-3.9 7.3-3 8.4 1.7 16.9 3 25.3 4.3 7.7 1.2 15.3 2.8 23 4.2 5.4 1 10.8 1.8 16.2 2.7 9.2 1.6 18.3 3.4 27.5 4.8 7.8 1.1 15.6 2.7 23.4 3.9 10.7 1.7 21.5 3.4 32.1 5.5 7.6 1.5 15.3 3 22.9 4.1 14 2 27.8 4.7 41.8 6.8 2.8.4 5.6 1 8.5 1.5 3 .5 3.1.8 1.6 3.3l-23.4 38.4c-.6 1-1 2.1-1.6 3.1-5.2 2.3-10.4 4.6-15.8 6.8-3.3 1.3-6.4 3.2-9.9 3.9-1.4-.9-2.4.2-3.5.7-3 1.2-4.3.5-4.6-2.6-.2-1.6-1.1-2.4-2.7-2.4-1.5.1-2.7-.2-3.9-1.3-1.2-1.1-2.8-1.1-4.3-.6-1.4.5-2.8.4-4.1-.7-1.1-.9-1.6-1.3-1.4.7.1 2.2-1.8 1.1-2.8 1.2-1.3.2-1.2-.7-.7-1.6 1.1-2.2-1-3.4-1.9-4.5-1-1-2.9-.6-4.3.7-2.3 2.2-4.7 2.1-6.7-.3-2.4-3-5.4-3.8-9-3.1-.9.2-1.9.4-2.6-.1-3.6-2-7.7-.7-11.4-1.9-1.1-.4-2 .4-2.8 1.3-1.8 1.9-2.5 1.8-4-.5-.5-.7-.7-1.9-1.8-1.8-3.7.4-6.6-2.9-10.4-2.3-.9.2-1.3-.5-1.6-1.2-.6-1.7-1.2-1.7-1.8 0-.4.9-1.3 1.9-1.8.8-.9-1.9-2.3-1.5-3.8-1.7-1.2-.2-3.3-.8-2.9-2 .9-2.3 0-3.9-1.8-4.2-1.7-.3-3.1 1.4-3.2 3.2-.1 2.6-1.4 2.7-3.4 2.1-2.5-.7-4.5-2.7-7.3-2.5-.8 0-.7-.9-.6-1.5.3-2.9-.1-3.2-2.6-2.1-1.9.8-3.3.9-4.8-1.2-2.1-2.9-3.8-2.7-6 .3-.5.7-.9 1-1.8.7-.9-.4-1.9-.5-2.8.1-1.2.9-1.6.4-2.1-.8-1.8-4.1-2.2-4.1-5.9-1.5-2 1.4-3 1-3.8-1.4-1.2-3.6-2.8-4.2-6.3-2.8-2.2.9-4.8 1.8-6.9.6-2.8-1.5-5.5-1.1-8.3-.7-1.1.2-2.2.4-3.1-.3-2.7-2.3-6.2-2.8-9.2-4.1-3.3-1.5-5.7-1-8.5.4-1.8.9-3.4 1.2-4.2-1.4-.6-1.8-1.7-2.9-4.1-3.1-3.9-.3-7.1 1.3-10.4 2.8-1.5.7-2.9.9-4.3.1-1.3-.8-1.7-2-1.4-3.5.3-1.1.7-2.2 1.4-3.2 1.4-2.1 3.1-4.2 2.8-7.1.9-1.7 1.9-3.3 3.2-4.7.7.3 1.1-.1 1-.9z"/><path d="M113.4 142.5c-3.8-.2-7.3-1.7-10.9-2.5-8.4-1.9-16.6-4.3-24.9-6.3-1.9-.4-4.1-.5-5.7-2-7.4-11.5-14.7-23-22.1-34.5 1.9-.1 3.8.6 5.8.1.9-.2 1.7-.3 2.4-1 .9-.9 1.9-1.4 3.4-.9 1.2.4 2.2-.3 2.9-1.4.7-1.1.6-2-.4-2.9-1-1-1-2 .2-3 .8-.7 1.6-1.4 2.3-2.2 2.1-2.4 4-1.9 6.3-.1 1.7 1.4 6.4-1 6.7-3.3.5-3 2.1-4 4.9-2.7 1 .5 1.8.6 2.7.1.7-.4 1.6-.8 2.3-.4 3.6 1.5 5.4-.6 7.1-3.2.4-.6 1.3-1 1.8-1.5.7-.7 1.7-1.2 1.5-2.4-.1-.6-1-1.4.1-1.8.8-.3 1.1.7 1.7 1.1 1.6 1.1 3.5 1.5 5.2 2.6 1.1.7 3-.2 3.3-1.8.3-1.7 1.2-1.7 2.4-1.7h2.4c2 .1 3.4-.1 2.4-2.8-.5-1.4-.3-3.2 1.4-3.9 1.6-.7 2.1.9 2.9 1.7.5.6.9 1.3 1.3 2 .4 1-.2 3 1.4 2.7 1.5-.3 4.2.9 4.3-2.3 0-.7.7-.7 1.3-.7 2.3.1 3.1-1.4 3.4-3.3.1-.6 0-1.4.8-1.4.7-.1 1.2.5 1.4 1.1.5 2.1 1.7 1.7 3.4 1.5 3.2-.4 6.4-1.1 9.1-2.5 1.9-1 3.8-1.9 5.9-2.6.8-.3.8-1.5 1.1-2.3.8-2.4 2.3-2.9 4.6-1.8 2.1 1 4.1 2.5 6.7 2.2 1.6-.2 3 .1 3.3-2.2.2-1.4 1.6-1.2 2.7-1.1 1.7.1 2.8-.2 3.5-2.1.8-2.3 2.9-2.3 5-2.3 2 .1 4 .4 4.9 2.5.9 2 2.1 3.3 4.5 2.3 1.6-.7 2.7-1.6 1.4-3.4-.9-1.3-.3-2 .8-2.5s2.1-.7 2.7.7c.5 1.2.8 3 2.5 2.5 1.6-.5 3.5-1.2 3.6-3.5 0-2.7 1.5-2.4 2.7-1.2 2.9 2.9 6.9 2.8 10.2 3.2 2.4.3 5.8.9 8.3-1.1.9-.7 1.3 0 1.5.7.4 1.5 1.6 2 2.9 1.9 1.2-.1 1.3-1.3 1.5-2.2.4-1.6 1.3-2.3 2.9-1.4.4.2.9.5 1.2.4 3.3-1.5 7-.6 10.4-1.6 1.5-.5 1.1-1.5.6-2.3-1.1-2.1-2.2-4.1-3.4-6.1-1-1.7-1.7-3.4-1.5-5.3 4 5 7.1 10.6 10.7 15.9 4.1 5.9 8.4 11.8 12.1 18 4.9 8.3 11.2 15.7 16 24-.3 3.1-2.3 3.8-5.1 4-2.6.2-5.4-.8-7.7 1.1-.7.6-1.6.3-2.5 0-2.1-.8-4.4-1.9-6 1.1-.3.5-.9.5-1.5.4-1.3-.1-2.6.2-3.6.8-3.8 2.3-7.5 2.6-11.5.5-1-.5-1.9-.5-2.1 1.1-.2 1.4 0 3.4-2.2 3.5-1.8 0-2.7 1.6-4.2 2.2-3 1.1-7.3-2-9.3 2.7 0 .1-.3.1-.5.1-5.2 0-9.2 3.6-13.8 5.2-.9.3-1.4.5-2.4.1-1.4-.6-3.4-1.8-4.5-.6-2 2.1-4.3 1.8-6.7 1.8-1.2 0-2 .4-2.2 1.8-.4 2.8-1.7 3.3-4.2 1.8-2.8-1.6-6.5-.8-7.9 2.1-.9 1.8-2.2 2.6-3.8 2.9-2 .3-3.2 1.1-3.5 3-.1.6-.3 1.1-.9 1.1-.6 0-.5-.6-.7-1-.7-1.6-1.4-2.1-3.5-1.2-2.4 1.1-5.2 2.9-8.2.7-1.2-.9-2.8-1-3.5 1-.5 1.3-1.6 1.7-2.7 1.8-1 .1-1.7.3-2.1 1.3-.4 1-6.9 3.8-7.9 3.5-.3-.1-.7-.3-.9-.5-1-1.5-1.8-.8-2.5.2-1.5 1.9-3 1.4-4.7.3-2.1-1.4-7.1-1.3-8.8.4-2 2.1-4.1 2.5-7 2-4.9-1.2-6.9 1-5.2 5.1zm50.4-81.3c-.4.1-.7.3-.7.7 0 .4.1.7.6.7s.8-.2.8-.8c0-.4-.3-.6-.7-.6z" fill="#f0ba7f"/><path class="st3" d="M321.6 51.1c.2 2.8-1.4 4.9-2.8 7.1-.7 1-1.1 2-1.4 3.2-.3 1.4.1 2.7 1.4 3.5 1.4.8 2.8.6 4.3-.1 3.3-1.4 6.5-3 10.4-2.8 2.4.2 3.5 1.2 4.1 3.1.8 2.5 2.4 2.2 4.2 1.4 2.8-1.4 5.1-1.9 8.5-.4 3 1.4 6.5 1.8 9.2 4.1.9.7 2 .5 3.1.3 2.8-.4 5.5-.8 8.3.7 2.2 1.2 4.7.2 6.9-.6 3.5-1.4 5.1-.7 6.3 2.8.8 2.4 1.8 2.8 3.8 1.4 3.7-2.6 4.1-2.6 5.9 1.5.5 1.2 1 1.6 2.1.8.9-.7 1.9-.5 2.8-.1.8.3 1.3 0 1.8-.7 2.2-3 3.9-3.2 6-.3 1.5 2 2.8 2 4.8 1.2 2.5-1.1 2.9-.7 2.6 2.1-.1.6-.2 1.5.6 1.5 2.8-.1 4.8 1.8 7.3 2.5 2 .6 3.3.5 3.4-2.1.1-1.9 1.4-3.6 3.2-3.2 1.8.3 2.6 1.8 1.8 4.2-.4 1.1 1.7 1.8 2.9 2 1.5.2 2.9-.2 3.8 1.7.5 1.1 1.5.1 1.8-.8.6-1.6 1.2-1.7 1.8 0 .2.7.7 1.4 1.6 1.2 3.8-.7 6.6 2.7 10.4 2.3 1.1-.1 1.3 1.1 1.8 1.8 1.4 2.3 2.1 2.4 4 .5.8-.8 1.6-1.6 2.8-1.3 3.7 1.2 7.8-.1 11.4 1.9.8.5 1.8.3 2.6.1 3.6-.7 6.6.1 9 3.1 1.9 2.4 4.4 2.5 6.7.3 1.4-1.3 3.4-1.7 4.3-.7 1 1 3 2.3 1.9 4.5-.4.8-.6 1.7.7 1.6 1-.1 3 1 2.8-1.2-.1-2.1.4-1.7 1.4-.7 1.2 1 2.6 1.1 4.1.7 1.6-.5 3.1-.5 4.3.6 1.2 1.1 2.4 1.4 3.9 1.3 1.6-.1 2.5.7 2.7 2.4.4 3.1 1.6 3.8 4.6 2.6 1.1-.4 2.1-1.6 3.5-.7-.5.3-1 .7-1.6 1-9.5 4-19 7.9-28.5 11.9-13.9 5.9-27.8 11.9-41.7 17.9-.3-.7-.9-.9-1.7-1.1-6.7-1.3-13.5-2.6-20.1-4.2-8.9-2.1-17.9-4-26.9-5.9-11.9-2.5-23.7-5.3-35.5-7.7-6.5-1.3-13-2.5-19.4-4.1-9.4-2.3-19-4.1-28.5-6.1-8.4-1.8-16.7-3.7-25.1-5.6-2.5-.6-5.5-.2-6.9-3.1 10.7-16 21.5-31.7 32.5-47.3z"/><path class="st6" d="M286.5 104.7l.5-.5c1.7 1.6 4.1 1.8 6.1 2.8-.9.2-2.7-.4-1.9 1.5 1.7 3.9 3.2 8 6.9 10.7 3.2 2.3 6.4 4.6 9.3 7.2 1.5 1.3 3.3 2.6 5.2 3.2 4.4 1.3 7.7 4.7 12.1 5.9 2.7.7 5.4 1.9 8 3 2.5 1 4.1 3.5 7.4 3.6 5.2.1 9.8 3.3 14.9 4.7 4.4 1.2 8.4 3.7 13.1 3.8 1.6 0 3.3.3 4.7 1 4.1 2.1 8.4 2.4 12.8 2.4 1.7 0 3.3.4 4.7 1.5 1.2.9 2.9 2 4.1 1.6 3-1.1 5.4 2.5 8.3.9 1.9 1.8 4.1 1.3 6.3.9 1.3-.2 2.6 0 3.7.6 2 1.1 4 1.4 6.1 1l-17.7 16.8c-9.7 9.2-19.4 18.4-29.2 27.4-3.2 2.9-6 6.2-9.5 8.7-1.7 0-3.4-.1-4.3-2-.2-.5-.9-.9-1.5-1-4.5-.8-7.4-4.1-10.5-7-2.7-2.4-5.6-4.2-9-5.1-1.5-.4-2.7-1-3.6-2.1-1.9-2.2-3.9-4.1-6-6.1-5.6-5.2-10.9-10.8-16.4-16.2-.5-.5-1.2-1-1.4-1.6-1.7-4.6-6-7.2-8.2-11.4-2-3.6-5.2-6.5-6.5-10.4-2.7-8.3-3.9-17-5-25.7-.9-6.8-2.3-13.4-3.5-20.1z"/><path class="st7" d="M103.3 338c1.2-.4 1.6-1.3 1.5-2.5-.4-3.8.5-7.5.6-11.3 0-2 1-3.4 3-4.6 2.3-1.4 5.4-1.2 7-3.8.7-1.1 1.8-.4 2.3.6.4.6.6 1.3.9 1.9.4.6 1 .7 1.7.5.8-.3.7-1 .6-1.6-.2-.7-.6-1.4-.3-2.1.3-.8.2-1.9 1.4-2.1 1-.2 1.5.4 1.9 1.2 1.6 3.8 4.5 1.3 6.8 1.4 2.7.1 5.7-1.6 8.2.9.4.4 1-.3 1.5-.4 3.3-.8 6.7-1.4 9.6 1.2 1.3 1.2 2.1 1.2 3.2-.4 1.4-2 4.3-2.2 6.1-.6 2.4 2.1 5.7 2.4 8.2 4.5.7.6 1.8.2 2.1-.9.3-.8.1-2.1 1.4-1.9 1 .2 1.9 1 2.3 2.1.5 1.3 1.1 2.7 1.8 3.9.8 1.3 1.9 1.6 3.1.4 2-2 4.7-.7 7-1.5.1-.1.6.6.8.9 1.9 2.5 4.3 3.7 7.4 3.1 1-.2 1.4.3 2 .9 1.4 1.5 2.9 2.9 4.3 4.4 1 1 2.2 1.6 3.3.6 2-1.9 3.3-.6 4.5.8 2.4 2.7 2.4 2.8 4.9.4.6-.5 1.1-1 1.9-.5 1.1.7 1.9 1.7 1.7 3.1-.1.9-1 2.1.5 2.4 1.6.4 1.8-1 1.8-2.2 0-.5 0-1.2.7-1.3.7-.1 1.2.3 1.4 1 1 2.7 2.8 4.1 5.6 5.2 2.2.9 3.7 3.5 6.3 4.4.8.3.6 1.4.6 2.2v13.8c0 .9-.3 2 .9 2.6.4 10.8.7 21.5.6 32.3-1.3-.2-1-1.3-1-2.1 0-2.3-.1-4.7 0-7 .1-1.5-.4-2.4-1.9-2.7-2.3-.5-4-1.8-5.2-3.9-.7-1.2-1.9-2.1-3.4-1-1.1.8-1.7.3-2.6-.3-1.7-1.1-3.3-3-5.4-2.8-2.7.4-4-.8-5.7-2.5-1.5-1.5-3.8-2.8-6.1-1.5-1.7.9-2.9.5-4.1-.5-2.2-1.7-4.2-3.7-7.4-3.2-.9.1-1.5-.8-2.2-1.3-2.1-1.3-3.6-4.2-6.4-3.8-3 .4-5.6.3-7.6-2.2-.2-.3-.8-.2-1.3-.2-2 0-3.9 2.7-6 .1 0-.1-.7.4-1.1.6-1.5.6-2.8.7-4-.9-1.1-1.5-2.7-2.3-4.9-1.7-2.1.6-4.5 1.3-6.4-.8-1.4-1.6-2.9-1.4-4.4 0-1.4 1.3-2.9 1.5-4.5-.1-.8-.8-1.8-1.5-2.8-2-1.4-.8-2.9-1-3.8.5-1.4 2.4-2.4 1.6-3.9.1-2-2-4.4-2.6-7.1-1.4-2.2 1-4.7-.4-7 .6-.2.1-.6-.2-1-.4-4.1-1.8-8.1-.1-9.5 4.1-.5 1.5-.9 3.2-3 3.3-.5-8.1-.9-16.2-1.4-24.3.4-.1.9-.2.9-.8 0-.6-.4-.8-.9-.8-.1.2-.1 0 0-.1z"/><path class="st8" d="M104.6 364.2c2.1-.1 2.4-1.8 3-3.3 1.4-4.2 5.4-5.9 9.5-4.1.3.1.8.5 1 .4 2.3-1.1 4.7.4 7-.6 2.7-1.2 5.1-.7 7.1 1.4 1.4 1.5 2.5 2.2 3.9-.1.9-1.5 2.5-1.3 3.8-.5 1 .6 2 1.2 2.8 2 1.5 1.6 3 1.5 4.5.1 1.6-1.4 3-1.5 4.4 0 1.9 2.1 4.3 1.4 6.4.8 2.2-.6 3.8.1 4.9 1.7 1.2 1.6 2.5 1.5 4 .9.4-.2 1.1-.6 1.1-.6 2.1 2.6 4-.1 6-.1.4 0 1.1 0 1.3.2 2.1 2.5 4.6 2.7 7.6 2.2 2.8-.4 4.3 2.4 6.4 3.8.7.5 1.3 1.4 2.2 1.3 3.2-.4 5.2 1.5 7.4 3.2 1.3 1 2.4 1.4 4.1.5 2.3-1.2 4.6 0 6.1 1.5 1.7 1.7 3 2.8 5.7 2.5 2-.3 3.7 1.6 5.4 2.8.9.6 1.5 1.1 2.6.3 1.5-1.1 2.7-.2 3.4 1 1.2 2.1 2.9 3.3 5.2 3.9 1.5.3 2 1.2 1.9 2.7-.1 2.3 0 4.7 0 7 0 .8-.3 1.9 1 2.1 0 2 .1 4 .1 5.9-.8 1.5-.9 3 .1 4.4.3.1.6.3 1 .4 20 7.3 40 14.7 60 22 8.8 3.2 17.6 6.3 26.4 9.4 2.3 3.2 5.9 4.5 9.2 6.2 2.7 1.4 5.3 2.9 6.1 6 .7 2.8 2 2.3 3.5 1.1 4.5-3.4 9.5-5.9 14.2-8.9 6.2-3.9 12.3-7.8 18.4-11.7 5.3-3.4 10.7-6.7 16-10.1l17.7-11.4c7.8-4.9 15.6-10 23.5-14.8 8.3-5.1 16.3-10.4 24.8-15.2 6.4-3.6 12.3-8.1 18.6-11.8 6.8-4 13.5-8.4 20.3-12.5 2.4-1.5 4.7-3.3 7.9-2.8-27.7 17.6-55.3 35.2-83 52.8-.7.4-1.4.7-2.1 1.1-.3.2-.5.3-.8.5h-.2c-.3.2-.6.4-.8.6-.5 0-.9 0-1.1.6l-.6.6c-.5 0-.9 0-1.1.6-.2.2-.4.4-.6.5-.8 0-1.6-.1-1.6 1.1-.4 0-.9 0-1.1.6-.6 0-1 .1-1.1.8-2.3.5-3.6 2.5-5.4 3.6-17.4 11-34.9 22.1-52.3 33.1-1.7 1.1-3.7 1.6-5.3 2.9l-.6.6c-.5 0-.9 0-1.1.6l-.6.6c-.4 0-.9 0-1.1.6-.2.2-.4.4-.6.5-.4 0-.9 0-1.1.6-.5 0-.9 0-1.1.6-.2.2-.4.3-.6.5l-.3.1h-.3c-1.1.1-2.3.1-3.3-.5-.1-.7-.2-1.5-1.1-.5-.5-.2-1.1-.4-1.6-.6-1-2.5-3.6-3-5.7-3.8-6-2.2-11.8-4.8-17.9-7-7.5-2.7-14.7-6.3-22.3-9-12.3-4.5-24.5-9.1-36.8-13.7-9.9-3.6-19.7-7.2-29.6-10.8-9-3.2-17.8-6.8-26.8-10-5.9-2.1-11.9-4.1-17.7-6.8-4.9-2.3-10.4-3.7-15.6-5.5-7.1-2.5-14.2-5.1-21.3-7.7-5.6-2-11.2-4-16.8-6.1-5.1-2-10.3-4.3-16-3.8-.1-.2-.2-.3-.4-.5-.2-2.6-.3-4.8-.1-7z"/><path d="M286.5 104.7c1.2 6.7 2.6 13.3 3.4 20 1.1 8.6 2.3 17.3 5 25.7 1.3 3.9 4.5 6.8 6.5 10.4 2.2 4.1 6.6 6.8 8.2 11.4.2.6.9 1.1 1.4 1.6 5.4 5.4 10.7 11 16.4 16.2 2.1 2 4.1 3.9 6 6.1 1 1.1 2.1 1.7 3.6 2.1 3.4.8 6.4 2.7 9 5.1 3.1 2.8 6 6.1 10.5 7 .6.1 1.3.6 1.5 1 .9 1.9 2.6 2 4.3 2-2 1.8-3.9 3.7-5.9 5.4-2.7 2.4-5.6 4.8-7.6 7.9-4.4 3-8.2 6.6-10.5 11.5-1.5-.2-1.2-1.6-1.6-2.5-.5-1.2-.8-2.5-2.1-3.2-8.1-5.7-16.4-11-24.9-16.1-.4-.3-.8-.7-1.2-1l-21-13.8c.1-10.5-.8-21-.6-31.5.2-8.3-.6-16.5-.6-24.7 0-2.9-.2-5.9-.9-8.8v60.1c0 1.2.5 2.8-1.7 2.5-7.2-4.4-14.3-9-21.3-13.8 1.3 0 1.8-.6 2.3-1.8 2.2-5.6 4.7-11 6.7-16.7 2.7-7.8 5.1-15.8 7.4-23.7.5-1.8 1-3.6 1.3-5.4.9-4.6 1.5-9.1 1.8-13.8.2-2.6.9-5.2.2-7.8V115c1.1-.2 1.4-.7.5-1.6.7-2.6 1.5-5.3 2.2-7.9.1-.1.1-.3 0-.4.8.4 1.2-.1 1.7-.4z" fill="#934c21"/><path class="st10" d="M337.3 446.8c.9-.8.5-1.8.5-2.8v-17.7c2.5 1.1 4.4.6 5.6-2.1.4-.9.8-1.7 2.2-1.6 2.2.2 5.3-2.4 5.7-4.6.3-1.9 1-2.3 2.7-1.5 1.8.9 3.5 1 4.8-.8 1.3-1.8 3.1-2 5-1.6 2 .4 2.7-.4 3.4-2.1.5-1.2.1-2.7 1.2-3.7 1.7-1.6 3.9-3 3.6-5.9 0-.4.4-.8.9-.7.6.1.5.7.5 1.1-.1.5-.5 1.1-.4 1.5.3 1.4-.2 3.5 1.6 3.9 1.9.4 1.8-1.8 2.3-3 .2-.3.2-.7.3-1 .5-3.5.9-3.7 4.3-2.2 1.6.7 3.5 1.4 4.7-.2 1.9-2.8 4.6-4.1 7.6-5 1.3-.4 1.7-.9 1.9-2.2.2-2 1-3.3 3.4-4.2 3.7-1.3 7.7-2.2 10.6-5.7 1.1-1.3 3.9-4.1 7.1-2.2.7.4 1.4-.3 1.7-1 .5-1-.3-1-.9-1.1-.8-.1-1.5-.6-1.3-1.4.3-1.2.7-2.5 1.8-3.2.9-.5 1.2.4 1.7.8 2.3 2 3.5 2 5.5-.2.6-.6 1.3-1 2.1-.9 1.3.1 2.1-.6 2.8-1.6.9-1.3 2.3-3.5 3.1-3.4 2.7.5 3.5-1.4 4.8-2.7 1.8-1.8 3.7-3.3 6.1-4.1h.7c0 .9-.1 1.9-.1 2.8l-.1-.1c-.3.2-.8.3-.8.5-.3 3.6-.4 7.2 0 10.8.2 0 .3-.1.5-.1 2.5.3 3.7-2 5.7-2.6.2-.2.4-.3.6-.5.1-.1.2-.1.3-.1.9.1 1.8.2 1.8-1.1v.1c.2-.2.4-.3.6-.5 14.2-8.8 28.4-17.7 42.5-26.5.2-.2.4-.3.6-.5 1.2-.7 2.4-1.5 3.7-2.2 2.6-.5 4.8.7 7.1 1.7 0 .5-.1 1.1-.1 1.6-.4 0-.7.1-.9.5-1.4 0-2.9-.1-4.2.7-4.6 3-9.4 5.4-14.2 8-6.2 3.4-12.1 7.2-18 10.9-4 2.5-8.1 5-12 7.6-6.7 4.5-14 7.9-20.6 12.5-7 4.9-15.1 8.2-21.9 13.4-4.2 3.2-8.8 5.7-13.3 8.4-3.4 2-6.2 4.8-9.6 6.7-5.7 3.2-11.3 6.5-16.6 10.3-5.5 3.9-11.4 7-16.8 10.9-5.4 3.9-11.8 6.3-17 10.7-1.2 1-2.6 2.3-4.6 1.3-.2-.7-.2-1.4-.2-2.1zm18.6-23.9c-.1-.1-.3-.1-.4-.2-.1.1-.2.3-.2.4 0 .1.3.1.4.2.1-.1.2-.2.2-.4z"/><path class="st7" d="M189.5 221.3c-1.1 0-.8.8-.9 1.5-.1.6-.1 1.3-.8 1.6-.7.2-1.2-.2-1.5-.8-.4-.8-1.1-1-1.9-1.2-2.2-.6-4.3-1.8-5.1-4-2.5-6.6-7.7-10.4-12.9-14.5-2.8-2.2-5.5-2.9-8.6-3-1.6-.1-2.2-1.2-2.7-2.2-1.3-2.5-3.3-3.4-5.9-3.2-2.5.2-4.6-.8-6.1-2.7-.5-.6-1-1.5-1.9-.7-1.6 1.3-2.4.6-3.1-.9-.5-1-1.5-2-2.4-1.9-4.5.2-7.8-2.9-11.9-3.7-3-.6-5.7-2.1-8.7-2.6-4.7-.9-8.5-4.1-13-5.6-.3-.1-.6-.4-.7-.7-1.4-4-1.8-4.2-6-4.2-.7-2.4-2.5-3.8-4.6-4.9l-30-17.1c1.5-1.4 3-.2 4.2.5 3.8 2 8.1 2.9 12.2 3 3.7 0 7.3-.1 10.9.6 10.8 2.2 21.4 5 32 7.6 5.6 1.4 11.2 3 17 3.3.8 0 1.3.3 2 .7 3.5 2.1 7 4.1 10.4 6.2 12.3 7.4 24.5 14.8 36.8 22.2 2 1.2 2.8 2.9 3 5.1.4 6.9.1 14.2.2 21.6z"/><path class="st4" d="M113.4 142.5c-1.7-4.1.3-6.3 5.5-5.3 2.9.6 5 .2 7-2 1.7-1.8 6.7-1.8 8.8-.4 1.6 1.1 3.2 1.6 4.7-.3.7-.9 1.6-1.6 2.5-.2.2.3.6.4.9.5 1 .3 7.5-2.5 7.9-3.5.4-1 1.1-1.2 2.1-1.3 1.2-.1 2.3-.5 2.7-1.8.7-2 2.3-1.8 3.5-1 3 2.2 5.7.3 8.2-.7 2-.9 2.7-.5 3.5 1.2.2.4 0 1 .7 1 .6 0 .8-.6.9-1.1.3-2 1.6-2.7 3.5-3 1.6-.2 3-1 3.8-2.9 1.4-2.9 5.1-3.7 7.9-2.1 2.5 1.5 3.8 1 4.2-1.8.2-1.4.9-1.8 2.2-1.8 2.4 0 4.7.3 6.7-1.8 1.2-1.2 3.1 0 4.5.6 1 .4 1.5.2 2.4-.1 4.7-1.6 8.6-5.2 13.8-5.2.2 0 .5 0 .5-.1 2-4.7 6.3-1.5 9.3-2.7 1.5-.6 2.4-2.1 4.2-2.2 2.1 0 1.9-2.1 2.2-3.5.3-1.5 1.1-1.6 2.1-1.1 4 2.1 7.7 1.7 11.5-.5 1-.6 2.3-1 3.6-.8.5 0 1.2.1 1.5-.4 1.5-3 3.8-1.8 6-1.1.9.3 1.8.6 2.5 0 2.4-1.9 5.2-.9 7.7-1.1 2.7-.2 4.8-.9 5.1-4l5.4 8.1c-.3 3.4-3.4 3.5-5.5 4.3-11.5 4.2-23.1 8-34.6 12.2-5.3 1.9-10.6 3.6-15.9 5.5-6.4 2.3-13 4.2-19.4 6.6-8.7 3.3-17.5 6.3-26.2 9.3-10.5 3.6-20.9 7.4-31.4 10.9-1.2.4-2.9.4-3.5 2.1-5.1-1.3-10.2-2.4-15.2-3.8-6-1.5-12-2.5-17.8-4.7zM511.1 262.9c-.9-.1-1-.7-1.3-1.4-1.7-4.3-.9-8.8-1.1-13.2-.1-3.4-.7-6.7-3.2-9.3-.7-.7-.7-2-1-3-.1-.4-.1-.9-.7-1-.5-.1-.7.3-1 .7-.7 1.4-1 3.8-2.6 3.6-1.5-.1-3-1.7-4.4-2.8-.7-.5-1-1.5-1-2.4 0-1.4-.6-2.4-1.9-2.9-1.5-.5-2.6.1-3.5 1.3-.5.6-1.2 1.2-1.5 1.9-.5 1.1-1 2.3-2.5 1.9-1.6-.4-3.2-1-3.5-2.9-.3-1.5-.4-3-.6-4.5 1.1-.2 1.5-.9 1.3-2-1.4.2-1.3 1.1-1.3 2-1.8-.6-3.2-1.9-5.4-2.1-1.6-.1-3.5-2.8-4.5-5-.5-1.1-1-1.6-2.3-1.7-1.8-.2-2.4-2-1-3 2.2-1.7 2.6-3.9 2.5-6.4 0-1.2-.4-2.5 1.9-2.1 2 .3 2.2-1.3 1.5-2.9-1.3-3.1-1-3.9 1.9-5.6.8-.5 1.4-.9 1.8-1.8 1.4-3.9 3.7-7.3 6.4-10.4.2-.2.3-.6.5-.6 3.6 0 3.8-3.2 5.1-5.3 3.7-5.8 8.3-10.5 14-14.4 2.7-1.9 5.3-3.9 8.3-5.2.9-.4 1.2-1 1.1-1.9.8-1.3 1.9-1.6 3.3-1.6-.6 18.5-1.5 37-2.8 55.5-2.1.7-1 2.7-1.3 3.9-1 4-1.7 8-1.9 12.1-.1 1.5.2 2.9 2.2 2.9-.4 9.4-.8 18.8-1.2 28.1.1.4-.1.9-.3 1.5zm-32.3-42.4c-.6-2.1-1-3.6-1.5-5-.2-.6-.8-1.3-1.6-1.1-1 .2-.7 1.1-.8 1.7-.3 2.5 1.6 3 3.9 4.4z"/><path class="st11" d="M611.4 71.3c-8.9 7.9-17.7 15.9-26.9 23.5-3.6 2.9-6.8 6.2-10.3 9.3-3.9 3.4-7.8 6.7-11.7 10.1-3.6 3.2-7.1 6.4-10.7 9.6-.9.8-1.6 2-3 2.2-.5-.8-1.2-.7-1.8-.2-3.1 3.1-6.7 5.4-10.4 7.8-3.7 2.3-7.6 4.2-11.2 6.6-1 .7-2.3.3-2.9-.7-.9-1.7-1.6-1.3-2.5-.1-.5.6-1.2.8-1.8 1-2.5 1-5.4 1.1-7.6 3-1 .9-2.7 1.3-4.3.2-1.5-1-3.1-.8-4.6.1-2.5 1.4-4.9 3-7.4 4.3-1.2.6-2.1 2.1-3.9 1.5 1-1.7 2.8-2.5 4.1-3.8 4.5-4.2 9.3-8 13.7-12.4 3.5-3.5 7.6-6.5 10.8-10.3 1.1 0 1.6-1 2.4-1.6 2.7-2.4 5.5-4.8 8.2-7.3 5.5-5 10.9-10 16.3-15 .9-.5 1.7-1 2.6-1.4 14.7-6.3 29.4-12.7 44.2-18.9 6.3-2.4 12.3-5.4 18.7-7.5z"/><path class="st2" d="M136.8 165.1c-5.8-.3-11.4-1.9-17-3.3-10.7-2.6-21.3-5.4-32-7.6-3.6-.7-7.2-.6-10.9-.6-4.1 0-8.3-1-12.2-3-1.2-.6-2.6-1.8-4.2-.5-19.1-10.9-38.2-21.7-57.3-32.6-.4-.2-.6-.6-1-.9 5.7.8 11.1 2.6 16.6 4 22.1 5.6 44.1 11.3 66.2 17 4.2 1.1 8.5 2.2 12.7 3.2 0 .5.2.8.7 1.1 6.4 3.3 12.2 7.7 18.7 10.8 1.5 1 3.1 2.1 4.6 3.1 5 3.2 10.3 5.9 15.1 9.3z"/><path class="st10" d="M94.9 177.7c1.6-.3 2.6.3 3.6 1.7 4.4 6.2 7.8 12.9 10.8 19.8.2.5.4 1 .3 1.5-.6 4.1 1 7.9 1.6 11.9.2 1 .7 1.6 1.5 2.3 1.5 1.2 3.6 2.6 1.1 4.9-.9.8-.1 1.7.4 2.4 1.5 2.2 3.4 4.1 4.1 6.8.2.8.6 1.5.5 2.3-.2 2.3.6 4.3 2.2 5.8 1.4 1.3 1 2.6-.4 3.3-1.3.7-1.2 1.3-1.1 2.5.2 3.1.2 6.3-.3 9.5-.3 2-2.8 2-3.5 3.8-1 2.4-2.9 4.4-1.6 7.3.5 1.2-.5 1.5-1.6 1.1-1.5-.6-3-1.2-4.6-1.2-4.1 0-6 2.1-5.2 6.2 1.1 5.7-.3 11.2-.4 16.8 0 1.6-.3 3.1.1 4.8.3 1.4.3 2.9-1.4 3.5-.9-4.7-.6-9.5-.9-14.2-.9-15.8-1.6-31.7-2.4-47.5-.7-14.4-1.4-28.8-2.2-43.2-.2-4.1-.4-8.1-.6-12.1z"/><path class="st7" d="M174.3 158.2c-6.5-1.1-12.8-3.3-19.2-4.8-1.5-.4-2.9-.8-4.4-1.2 4.8-1.5 9.7-2.7 14.4-4.6 7.4-3 15.1-5.6 22.6-8.3 7.4-2.7 15-5.1 22.5-7.6 7-2.4 14.1-4.7 21-7.3 7.5-2.9 15.2-5.2 22.7-8.2 6.1-2.5 12.5-4.2 18.7-6.5 4.3-1.6 9-2.4 12-6.5.5.6.6 1.3.5 2 .1.1.1.2 0 .4-1-.3-1.4.5-2 1-6.6 5.4-12.9 11.2-21.1 14.3-5.4 2-9.6 6.5-15.5 7.7-.4.1-.8.5-1.1.7-3.6 1.9-7.3 3.6-10.9 5.6-3.6 2-7.9 2.9-11.5 5-1.8 1.1-3.6 1.7-5.7 1.9-2.8.3-5.1 2.3-8.1 2.4-.3 0-.7.5-1 .9-2.6 3.5-6.3 4.4-10.3 4.8-2 .2-4 .5-5.7 2-2.5 2.2-5.3 3.8-8.9 2.9-.7-.2-1.6-.2-2.1.2-2.2 1.4-4.7 1.9-6.9 3.2z"/><path class="st10" d="M490.5 149.5c1.7.6 2.7-.9 3.9-1.5 2.5-1.3 4.9-2.9 7.4-4.3 1.5-.8 3.1-1 4.6-.1 1.6 1 3.2.6 4.3-.2 2.3-1.9 5.1-2 7.6-3 .7-.3 1.4-.4 1.8-1 .9-1.2 1.6-1.7 2.5.1.5 1 1.8 1.4 2.9.7 3.6-2.4 7.5-4.3 11.2-6.6 3.7-2.3 7.3-4.7 10.4-7.8.6-.6 1.3-.6 1.8.2-3.7 4.1-8.3 7.2-12.2 11-4.5 4.2-9.1 8.3-13.7 12.4-2.1 1.9-4.5 3.6-5.9 6.2-1.1-.8-2.1-.2-3 .2-7.5 3.3-14.7 7.3-22.2 10.7-5.9 2.7-11.7 5.4-17.5 8.3-4.9 2.4-10.1 4.4-14.9 7.1-2.4 1.3-4.5 3.4-7.6 2.8 2.1-2 4.1-4 6.2-5.9 9.8-8.8 19.6-17.7 29.4-26.5.9-1 1.9-1.9 3-2.8z"/><path class="st7" d="M506.2 347.5c.2-.4.5-.5.9-.5.8 2.6-1.5 3.5-2.8 4.8-.4 0-.7.2-.8.6-.5 0-.9 0-1.1.6-.2.2-.4.4-.6.5-3.1-.5-5.5 1.3-7.9 2.8-6.8 4.2-13.4 8.5-20.3 12.5-6.3 3.7-12.2 8.2-18.6 11.8-8.5 4.8-16.6 10.1-24.8 15.2-7.9 4.8-15.7 9.9-23.5 14.8-5.9 3.7-11.8 7.5-17.7 11.4-5.3 3.4-10.7 6.7-16 10.1-6.2 3.9-12.3 7.8-18.4 11.7-4.7 3-9.8 5.5-14.2 8.9-1.5 1.2-2.8 1.7-3.5-1.1-.7-3.1-3.4-4.6-6.1-6-3.3-1.7-6.9-3.1-9.2-6.2.1-3.1.1-6.2.2-9.3 1.4-.5.8-1.7.8-2.5.1-6.7 0-13.4 0-20.1 2.4.6 2.2 2.8 2.6 4.5.5 2.1.3 4.4 3.5 4.2.9-.1 1.3 1 1.7 1.6 2.3 3.7 4.3 7.5 4.7 12 .4 5.1 1.8 10.2 1.6 15.4 0 .6 0 1.3.5 1.7v2.2c1 3 1.4 3.3 3.7 1.3 5.3-4.7 11.7-7.5 17.5-11.4 4.7-3.2 9.6-6.2 14.5-9.1 6.3-3.5 12-8 18.2-11.8 11.6-7.2 22.6-15.2 34.6-21.7 3.9-2.1 7.4-5 11.3-7.2 6.4-3.5 12.3-7.7 18.4-11.5 8.8-5.5 17.5-11.1 26.4-16.3 7.7-4.5 14.9-10 23.5-12.8.7-.2.8-.6.9-1.1z"/><path class="st12" d="M105.3 371.3c5.8-.5 10.9 1.9 16 3.8 5.6 2.1 11.2 4.1 16.8 6.1 7.1 2.6 14.2 5.2 21.3 7.7 5.2 1.8 10.6 3.2 15.6 5.5 5.7 2.7 11.7 4.7 17.7 6.8 9 3.2 17.8 6.8 26.8 10 9.9 3.5 19.8 7.1 29.6 10.8 12.3 4.5 24.5 9.2 36.8 13.7 7.5 2.8 14.8 6.3 22.3 9 6 2.2 11.8 4.8 17.9 7 2.1.8 4.7 1.2 5.7 3.8-4.7-1.7-9.4-3.4-14.1-5.2-24.9-9.3-49.7-18.6-74.6-27.9-16.5-6.2-32.9-12.3-49.4-18.4-14.7-5.5-29.4-10.9-44.2-16.4-1-.4-2.1-1.4-3.2-.2-8.5-3.1-17-6.2-25.4-9.3-4.2-1.5-8.4-3.1-12.6-4.7-1.2-.5-2.4-.9-3-2.1z"/><path class="st11" d="M284.5 103.1c-2.9 4.1-7.7 4.9-12 6.5-6.2 2.3-12.6 4.1-18.7 6.5-7.5 3-15.2 5.4-22.7 8.2-6.9 2.6-14 4.9-21 7.3-7.5 2.6-15 4.9-22.5 7.6-7.6 2.7-15.2 5.2-22.6 8.3-4.6 1.9-9.6 3.1-14.4 4.6-1.4-.4-2.9-.7-4.3-1.1.5-1.7 2.2-1.7 3.5-2.1 10.5-3.5 20.9-7.3 31.4-10.9 8.8-3 17.5-6 26.2-9.3 6.4-2.4 13-4.4 19.4-6.6 5.3-1.9 10.7-3.6 15.9-5.5 11.5-4.2 23.1-8 34.6-12.2 2.1-.8 5.2-.9 5.5-4.3.9 1 1.5 1.9 1.7 3zM507.2 345.4c-2.3-1-4.5-2.1-7.1-1.7.4-7.4.8-14.9 1.2-22.3.2-4 .5-8 .8-12.1 1.3-1.3 1.2-2.7.1-4 .1-1.9.2-3.9.3-5.8 1.6-1.4 1.7-2.9 0-4.3.2-2.2.4-4.3.5-6.5 1.5-1.4 1.5-2.4 0-3.8-.4-2 .4-4 .5-5.9 3.3-.5 4.7.8 4.8 4.4.1 2.2 0 4.5.5 6.7.2.7.2 1.2 1 1.3-.5 9.3-.9 18.6-1.4 27.9l-1.2 26.1z"/><path class="st0" d="M611.4 71.3c-6.4 2.1-12.4 5.1-18.6 7.7-14.8 6.2-29.5 12.6-44.2 18.9-.9.4-1.7.9-2.6 1.4-.6.2-1.2.3-1.8.5-8.8 3.8-17.5 7.6-26.3 11.3-.2.2-.4.4-.6.7-.4 0-.6.2-.6.6-.4 0-.6.2-.6.6-.4 0-.7.1-1.1.1-2.3-.7-3.9 1.1-5.8 1.8-12.1 5.1-24.2 10.3-36.3 15.5-10.5 4.5-21.1 9-31.6 13.6-1.7.7-2.6.5-3.6-.8 1.5-.8 3-1.7 4.6-2.5.6-.2 1.3-.5 1.9-.7 1.6-.4 3.1-1.1 4.4-2.1.2 0 .3 0 .5-.1.5-.2 1.1-.4 1.6-.5.7-.3 1.5-.7 2.2-1 13.9-6 27.8-12 41.7-17.9 9.5-4 19-7.9 28.5-11.9.6-.2 1-.6 1.6-1 3.5-.8 6.6-2.6 9.9-3.9 5.3-2.1 10.5-4.5 15.8-6.8 5.3-1.5 10.3-4.1 15.4-6.3l43.8-18.6c.5-.2 1.1-.8 1.7-.2.8.4.9 1.1.1 1.6z"/><path class="st7" d="M449 137.7c-1.3 1-2.8 1.7-4.4 2.1-.2-.1-.4-.4-.7-.4-20.8-4.5-41.6-9-62.3-13.5-24.3-5.3-48.7-10.8-73-16-5-1.1-9.8-2.7-15-2.8h-.5c-2-1-4.3-1.2-6.1-2.8 0-1.6-.1-3.1 1.1-4.4 0 .2 0 .4.1.7.4 1.6 1.9 2 3.2 2.4 6.6 2 13.4 3.1 20 4.8 10.5 2.6 21 4.8 31.5 7.2 6.7 1.5 13.3 3.4 20.2 4 .1 1 .8.9 1.5 1.1l27 6c6.2 1.3 12.4 2.5 18.5 3.8 6.4 1.4 12.9 2.8 19.3 4.3 4.5 1.1 9.1 1.8 13.6 2.6 2.1.2 3.8 1.9 6 .9z"/><path class="st11" d="M451.7 184.6c3.1.6 5.3-1.4 7.6-2.8 4.8-2.7 9.9-4.7 14.9-7.1 5.8-2.9 11.7-5.7 17.5-8.3 7.5-3.4 14.7-7.4 22.2-10.7.9-.4 2-1 3-.2-.2 1.1-.3 2.2-.5 3.2-1.4 0-2.6.3-3.3 1.6-3.6-.1-6.6 1-8.3 4.5-.1.1-.3.3-.4.3-2.6-1.3-4 1.4-6.1 1.7-1.4.2-2.5.9-3.4 1.9-.2.2-.3.5-.6.6-3.1 1.2-5.7 3.7-8.6 4.6-6.2 1.9-11.2 5.7-16.8 8.5-3.3 1.7-6.8 2.9-9.9 5.2-1.6 1.2-3.3 2.4-4.9 3.6-1.5 1.1-2.9 1.7-4.7 1.5-.6-2.2.1-4.3.6-6.5.2-.4.4-.7.6-1.1.4-.1.8-.3 1.1-.5z"/><path class="st13" d="M146.3 387.4c1.2-1.1 2.2-.1 3.2.2 14.7 5.4 29.5 10.9 44.2 16.4 16.5 6.1 32.9 12.3 49.4 18.4 24.9 9.3 49.7 18.6 74.6 27.9 4.7 1.8 9.4 3.4 14.1 5.2.5.2 1.1.4 1.6.6.2.4.6.5 1.1.5 1 .7 2.1.6 3.3.5-1.3 1.8-2.8.6-4.1.1-9.4-3.4-18.9-6.9-28.3-10.4-52.6-19.6-105.1-39.2-157.7-58.8-.4-.2-.9-.4-1.4-.6z"/><path class="st11" d="M288.2 100.4c0-.2 0-.4-.1-.7.1-.7.5-1.2 1-1.6 1.4 3 4.4 2.6 6.9 3.1 8.3 1.9 16.7 3.8 25.1 5.6 9.5 2 19.1 3.8 28.5 6.1 6.4 1.6 12.9 2.8 19.4 4.1 11.9 2.5 23.7 5.3 35.5 7.7 9 1.9 18 3.7 26.9 5.9 6.7 1.6 13.4 2.8 20.1 4.2.8.2 1.4.4 1.7 1.1-.7.3-1.5.7-2.2 1-.3-.2-.6-.4-.9-.5-9.5-2.1-19.1-4.2-28.7-6.1-4.9-1-9.7-2.5-14.5-3.4-7.6-1.4-15.1-3.4-22.7-4.8-5.2-.9-10.3-2.9-15.7-3-.4-1.5-1.2-1.3-2.2-.5h-1.1c-.1-.7-.3-1.3-1.1-.5H363c-.1-.8-.6-1-1.3-1.1-3.4-.6-6.8-1.2-10.2-2l-33.6-7.8c-9.8-2.1-19.9-3.8-29.7-6.8z"/><path class="st1" d="M512.7 233.2c-2.1.1-2.3-1.4-2.2-2.9.2-4.1 1-8.1 1.9-12.1.3-1.3-.8-3.2 1.3-3.9.4 2.4.1 4.8-.2 7.2-.4 3.8.1 7.8-.8 11.7z"/><path class="st4" d="M510.9 269.3c-2.1-1.9-2.1-3.4.1-4.9.7 1.7-.2 3.3-.1 4.9z"/><path class="st3" d="M327.6 43.2c0 .8.1 1.7-1.1 1.7-.1-.9.4-1.3 1.1-1.7z"/><path class="st12" d="M410.1 411.7c0-1.2.8-1.1 1.6-1.1-.5.4-1 .8-1.6 1.1z"/><path class="st2" d="M103.3 338.4c.5.1.9.2.9.8 0 .6-.5.7-.9.8v-1.6z"/><path class="st3" d="M325.9 45.3c0 .8-.4 1.1-1.2 1.1.1-.7.5-1 1.2-1.1z"/><path class="st12" d="M338.9 456.6c.2-.5.6-.6 1.1-.6-.2.5-.6.6-1.1.6zM340 456c.2-.5.6-.5 1.1-.6-.4.2-.7.4-1.1.6zM341.6 454.9c.2-.6.6-.5 1.1-.6-.3.4-.6.6-1.1.6zM343.2 453.9c.2-.5.6-.6 1.1-.6-.2.5-.6.6-1.1.6z"/><path class="st8" d="M503.5 352.4c.1-.4.4-.6.8-.6-.1.5-.4.6-.8.6zM502.4 353c.2-.6.6-.6 1.1-.6-.2.4-.6.6-1.1.6z"/><path class="st12" d="M408 413.1c.1-.6.5-.8 1.1-.8-.4.2-.7.5-1.1.8zM409.1 412.3c.2-.6.6-.5 1.1-.6-.4.2-.8.4-1.1.6zM412.3 410.2c.2-.6.6-.6 1.1-.6-.3.4-.6.6-1.1.6zM413.9 409.1c.2-.5.6-.6 1.1-.6-.2.5-.6.6-1.1.6zM104.9 370.8c.1.2.2.3.4.5-.1-.2-.2-.4-.4-.5zM416 407.9c.3-.2.5-.3.8-.5-.2.2-.5.4-.8.5zM415 408.5c.3-.2.6-.4.8-.6-.3.3-.5.4-.8.6z"/><path class="st12" d="M413.4 409.6l.6-.6c0 .4-.3.5-.6.6zM411.8 410.7c.2-.2.4-.4.6-.5-.1.3-.3.4-.6.5z"/><path class="st8" d="M501.9 353.5c.2-.2.4-.4.6-.5-.2.2-.4.3-.6.5z"/><path class="st2" d="M1.7 116.6c.2-.4.4-.3.5.1-.1-.1-.3-.1-.5-.1z"/><path class="st12" d="M344.3 453.3l.6-.6-.6.6zM342.7 454.4l.6-.6c0 .4-.3.5-.6.6zM341.1 455.4c.2-.2.4-.4.6-.5-.2.2-.4.4-.6.5zM338.4 457c.2-.2.4-.3.6-.5 0 .4-.3.5-.6.5z"/><path class="st10" d="M49.8 97.2c7.4 11.5 14.7 23 22.1 34.5h-1.4c-8.5-13.2-17-26.4-25.4-39.6-8.3-13-16.7-26-25-39-.5-.8-1.9-1.7-.5-2.9 10 15.7 20.1 31.3 30.2 47z"/><path class="st12" d="M136.8 165.1c-4.8-3.4-10-6.1-14.9-9.2-1.6-1-3.1-2.1-4.6-3.1 0-1.1 1-1.6 1.6-2.3.8-1 2.2-1.6 2.2-3.1 6.9 1.5 13.8 3 20.5 5.5 5.7 3.9 11.7 7.5 17.8 10.8 9.9 6.1 19.8 12.1 29.7 18.2 12.2 7.4 24.3 14.8 36.5 22.1 3 1.8 4 4.4 3.9 7.4-.2 6.9.7 13.8.6 20.7 0 8.5 0 17.1.1 25.6 0 2.1-.4 2.6-2.6 1.9-11.3-3.5-22.6-6.9-33.9-10.2-2.2-.7-2.9-1.7-3.1-4.1-.5-7.7-.2-15.4-.6-23.1 0-.3-.2-.6-.3-1-.1-7.4.2-14.7-.5-22.1-.2-2.2-1-3.9-3-5.1-12.3-7.4-24.6-14.8-36.8-22.2-3.5-2.1-7-4.1-10.4-6.2-.9-.1-1.5-.5-2.2-.5z"/><path class="st14" d="M174.3 158.2c2.2-1.3 4.7-1.8 6.7-3.5.4-.4 1.4-.4 2.1-.2 3.6.9 6.4-.7 8.9-2.9 1.7-1.5 3.7-1.8 5.7-2 4-.4 7.7-1.3 10.3-4.8.3-.4.7-.9 1-.9 2.9 0 5.3-2.1 8.1-2.4 2.2-.2 3.9-.8 5.7-1.9 3.6-2.1 7.9-3 11.5-5 3.6-2 7.3-3.6 10.9-5.6.4-.2.7-.6 1.1-.7 5.9-1.2 10.1-5.6 15.5-7.7 8.2-3.1 14.5-8.8 21.1-14.3.6-.5 1-1.3 2-1-.7 2.6-1.5 5.3-2.2 7.9-.6.4-.5 1-.5 1.6v1.1c-.7.8-.9 1.9-1.1 3-1 4.8-2.3 9.5-4.1 14.1-2.6 6.8-5.5 13.3-7.9 20.2-1.7 4.9-3.8 9.7-6 14.3-2.2 4.6-4.5 9.1-6.3 13.9-2-.8-3.4-2.6-5.6-3.1-6.6-2.3-13.4-3.7-20.2-5.5-15.1-4-30.3-7.9-45.4-11.7-3.8-.8-7.6-1.6-11.3-2.9z"/><path class="st10" d="M159.2 163.7c-6.1-3.3-12.1-6.9-17.8-10.8.4-.6.9-.4 1.4-.2 22.6 5.9 45.3 11.9 67.9 17.7 12.6 3.3 25.2 6.5 37.8 9.7.6.2 1.2.1 1.9.2 1 .7 2 1.5 3 2.2 6.9 4.5 13.7 9 20.6 13.4 3.3 2.1 6.7 4.1 9.8 6.5.7 2 .1 2.2-1.8 1.6-5.8-1.7-11.4-4.3-17-6.4-7.7-2.9-15.5-5.5-23.4-7.8-3.1-.9-6.3-1.3-9.2-2.6-8.8-3.9-17.6-7.5-26.9-10.1-9.2-2.6-18.2-5.7-27.4-8.3-5.5-1.6-10.8-3.9-16.3-5.4-.8-.2-1.8-.8-2.6.3z"/><path class="st4" d="M283.9 202.3c-3.1-2.4-6.5-4.4-9.8-6.5-6.9-4.4-13.8-8.9-20.6-13.4-1-.7-2-1.5-3-2.2 0-.7 0-1.4.8-1.8 2.2.4 3.6 2.3 5.6 3.1 1.8 1.4 3.6 2.7 5.7 3.7 7 4.8 14.1 9.4 21.3 13.8 1.3.8 2.6 1.7 3.9 2.5l21 13.8c.4.3.8.7 1.2 1-.8-.1-1.5.2-2.2.6-2.1-.8-3.9-2.2-5.8-3.4-6.2-3.6-11.9-7.7-18.1-11.2z"/><path class="st8" d="M121 147.3c0 1.5-1.4 2.1-2.2 3.1-.6.7-1.5 1.2-1.6 2.3-6.6-3-12.3-7.4-18.7-10.8-.4-.2-.6-.6-.7-1.1 6.9 1.8 13.8 3.6 20.8 5.3.8.4 1.7.5 2.4 1.2z"/><path class="st11" d="M444.1 363.7c-2.4.8-4.3 2.3-6.1 4.1-1.3 1.3-2.1 3.2-4.8 2.7-.8-.2-2.2 2.1-3.1 3.4-.7 1-1.5 1.8-2.8 1.6-.9-.1-1.5.3-2.1.9-2 2.1-3.2 2.1-5.5.2-.5-.4-.8-1.4-1.7-.8-1.1.7-1.5 2-1.8 3.2-.2.8.5 1.3 1.3 1.4.6.1 1.4.1.9 1.1-.3.6-1 1.4-1.7 1-3.2-1.9-6 .9-7.1 2.2-2.9 3.5-6.8 4.4-10.6 5.7-2.4.8-3.1 2.1-3.4 4.2-.1 1.3-.6 1.8-1.9 2.2-3 .9-5.7 2.2-7.6 5-1.1 1.6-3.1.9-4.7.2-3.4-1.5-3.7-1.3-4.3 2.2-.1.4-.1.7-.3 1-.6 1.2-.4 3.4-2.3 3-1.8-.3-1.3-2.5-1.6-3.9-.1-.5.3-1 .4-1.5.1-.4.1-1-.5-1.1-.5-.1-1 .3-.9.7.3 2.9-1.9 4.3-3.6 5.9-1.1 1.1-.8 2.5-1.2 3.7-.6 1.7-1.4 2.5-3.4 2.1-1.8-.4-3.7-.2-5 1.6-1.3 1.8-3 1.6-4.8.8-1.7-.8-2.4-.4-2.7 1.5-.3 2.2-3.5 4.8-5.7 4.6-1.4-.1-1.8.7-2.2 1.6-1.2 2.7-3.1 3.2-5.6 2.1-.3-1.5.5-2.9.5-4.3v-1.1c-.9-4.2-1.1-8.6-.8-12.7.3-6-.2-11.9.6-17.9.1-.7 0-1.2-.3-1.8v-2.2c.7-.5.7-1.1 0-1.6v-1.1c.8-.6.5-1.4.5-2.1 0-.6.1-1.2-.5-1.6.4-1.7.8-3.4-.5-4.9.8-.9.8-1.8 0-2.7-.2-.9-.4-1.8-.5-2.7 1.6-.4 1-1.7 1-2.6v-19.4c0-.9-.4-2 .5-2.8 1.3 3.1 0 6.3.5 9.5.2 1.3 0 2.7 0 4 .1 2.2 2.7 5.7 4.7 6.3 1.1.3 1.4-.6 1.6-1.4.5-1.9.8-3.6 3.5-2.1 1.1.6 2.6-1.5 2.2-3-.2-.8-.5-1.5-.7-2.3-.2-.8-.7-1.7.3-2.4.9-.7 1.9-.7 2.8-.4 1.2.4.3 1.3.3 2.1 0 1.2.7 2 1.7 2 1.2.1 2.8.1 2.9-1.6.2-1.5.9-2 2.1-2.3 2-.6 2.5-2.8 3.5-4.2 1.5-2.3 2.7-4.7 5.1-6.3.3-.2.7-.5.7-.8 0-4.4 3.5-4.2 6.4-4.7 2.8-.5 4.7-2.8 4.1-5.7-.1-.7-.5-1.6.1-2 .8-.6 1.5.2 2.1.7 1.3.9 2.1 3.2 3.6 2.8 1.7-.5.7-2.9 1.1-4.3.3-.9.2-2.2 1.3-2.5 1.2-.3 1.3 1 1.8 1.7.9 1.3 1.8.6 2.8.2 1.6-.5 3.3-1.6 3.9 1.2.1.5.6 1 1.2.6.7-.3 1-1 .5-1.5-.9-.8-.6-1.9-1-2.7-.6-1.1-1.5-2.3-.2-3.4 1.2-1.1 2.5-2.5 4.5-1.5.6.3 1.3.3 1.8-.2 1.8-1.3 3.3-2.1 4.9.4.7 1 1.7-.2 1.9-.9.6-2 1.6-3.5 3.6-4.4.8-.4.8-1.3 1.1-2.1.2-.7 0-2.2 1.2-2 1.2.2 1.9 1.5 1.6 2.7-.2 1.2-1.7 2.7-.1 3.6 1.6.9 2.7-.7 3.8-1.7.3-.3.7-.8 1-.8 3.1-.2 3.2-2.6 3.6-4.8.4-2 3.8-4.6 5.8-4.5.9 0 1.2.7 1.2 1.5 0 2.4 1.6 2.3 3.1 2.1 2.3-.4 4.6-.9 5.5-3.6.5-1.3 1.4-1.5 2.5-.6.6.4 1.2.7 1.9 1v7.5c-1 1.4-.9 2.9-.1 4.4 0 .9 0 1.8-.1 2.7-.8.1-1.3.4-.4 1.1v7.5c-1 .9-.9 1.8-.1 2.8 0 2-.1 4-.1 5.9-1.9 3.3-1.1 6.8-.4 10.2.4 3.4-1 6.7-.5 10.2v.9l.1.1c-.9 1.2 0 2.6-.3 3.9zM381.5 339c-.1-.7-.2-1.5-1-1.4-1.6.2-1.6 1.7-2.1 2.8-.2.5.3 1.2.9 1 1.3-.3 2-1.2 2.2-2.4zm-26.4 23.9c-.1-.9.2-2.1-1.1-2.1-.9 0-1.1 1.1-1 1.9 0 .8.2 1.8 1.1 1.9 1.4.1.8-1.1 1-1.7zm76.7-47.4c.8-.5 1-1.2 1-2 0-.6-.2-1.4-1-1.2-.9.2-1.1 1.1-1 1.9 0 .4.2 1.1 1 1.3zm-83.2 48.3c0-.6-.1-1.1-.7-1-.6.1-.8.6-.8 1.2 0 .4 0 1 .6 1 .7 0 .8-.6.9-1.2zm5.6-4.6c.1-.1.2-.3.2-.4 0-.1-.3-.1-.4-.2-.1.1-.2.3-.2.4 0 .1.2.1.4.2z"/><path class="st10" d="M338.4 344.8c-.9.8-.5 1.9-.5 2.8V367c0 .9.6 2.3-1 2.6-1-.4-1.3-1.3-1.1-2.2.5-1.9-.2-3.7 0-5.6.1-1.7-.6-2.6-2.3-3.1-2.9-.8-3.6-2.2-2.9-5 .3-1.1.4-2.1.3-3.2-.2-1.5-1.1-2.4-2.6-1.9-3.2 1.1-4.8-1.1-6.7-2.8-.7-.6-1.2-1.5-2.1-2-2.7-1.6-5.6-2.8-4.5-7.1.3-1.1-.5-3.1-1.9-4-2.5-1.6-3.6-4-4.1-6.6-.5-2.9-2.5-3-4.5-2.7-1.5.2-3 .1-3.5-1.1-.5-1.4-2.4-3-.1-4.7 1.1-.8.3-4.3-.9-5-1.2-.7-1.7.2-1.9 1.1-.3 1.5-.4 3-.5 4.5 0 .5.1.9-.5 1-.4 0-.7-.2-.8-.6-.1-2.1-1.7-3.4-2.7-4.9-1.7-2.4-1.4-4.5.4-6.5.9-1 1.2-1.7.4-3-1-1.8.1-3.4 1.4-4.8.8-.9 2.4-2.1 1.5-3-1.8-1.9-1.5-6.5-6-5.4-1 .2-1.9 0-2.4-.7-.6-.7.2-1.4.4-2.2.7-2.5 2.9-4.8 1-7.5.7-.6 1-.3 1.4 0 1.2.7 2.8 1.2 3.7.5 1-.8-.2-2.2-.8-3.1-.9-1.5-.1-2.9-.1-4.4.1-2.2 1.5-2 2.9-2.3.7-.2 1.9-.8 2-1.2.3-3 3.5-3.6 4.6-5.9.3-.5.8-.9 1.3-.7 3 .8 2.2-.9 1.8-2.6-.8-3.5-.2-4.4 3.1-5.6.3-.1.8-.3.9-.6.5-2.6 2.9-2.5 4.7-3.2 2-.7 3.5-1.5 4.3-3.6.4-1.3 1.5-2 2.8-2.2 2-.3 3.7-1.4 5.4-2.3 1.2-.6 2.2-1 3.5-1 1.7 0 3.2-.6 3.7-2.5.3-1.1.5-1 1.4-.5.9.5 1.2-.4 1.3-1.1 2.3-5 6.1-8.5 10.5-11.5 1.4.1 2.8.1 3.9-1.1 4.2-4.3 8.8-8.2 13.2-12.2 8.5-7.8 16.9-15.8 25.3-23.7 4.2-3.9 9.1-6.4 14.4-8.5 1.6-.7 3.1.1 4.6-.7 5-2.8 9.7-6.4 15.2-8.4 1.1-.4 1.8-1.3 2.6-2.2 2.7-3.4 6.5-5.4 10.4-6.7 2-.6 3.9-1 5.5-2.5 1.4-1.3 2.9-2.4 4.9-2.7 4-.6 7.5-3 11.8-2.6.9.1 2.1-.3 2.8-.8 3.7-2.9 8.1-4.9 11.6-8.1 1.1-1.1 2.2-1 3.1.4v.5c-.8 0-1.1.5-1.3 1.1l-.4.4c-.5.2-1 .4-1.5.7l-.6.6c-2.8 3.2-6.2 5.8-9.3 8.6-.4 0-.8.1-1 .6-3.9 3.4-7.2 7.3-11.3 10.5-2 1.6-3.6 3.6-5.5 5.4-.2.3-.4.5-.5.8l-.5.5-.5.5c-.5-.1-.9.2-1.2.6l-.4.4c-.2.2-.4.5-.6.7l-.6.6c-.2.2-.5.4-.7.5-.2.1-.3.2-.3.3-.2.3-.4.5-.5.8l-.5.5-.5.5c-.5-.1-.9.2-1.2.6-.3.3-.6.6-1 .9-.2.2-.4.5-.6.7-3.8 2.8-7.2 6.2-10.7 9.4-2.3 2.1-4.9 3.9-6.4 6.8-2.6 1.5-5.6 2.4-8.3 3.7-9.3 4.2-18.4 8.7-27.6 13-9.7 4.5-19.3 9-29.1 13.2-4.1 1.7-7.6 4.7-12.2 5.5-1.5.3-2.1 1.5-2.3 3v1.6c-.3.4-.7.6-1.1.2-1.4-1.2-1.6-.3-1.6.9v5.9c-.5.4-.5.7 0 1.1v2.1c-1.3.2-1.1 1.2-1.1 2.1v9.2c0 .8-.2 1.6.5 2.2.8 2.7.1 5.4.5 8.1-1.7 1.4-1.7 2.9 0 4.3-1 8.6-.2 17.3-.5 25.9-.6.4-.6.7 0 1.1.7 8.8-.1 17.6 0 26.4v1.1c0 4.4.5 9.1.8 13.7z"/><path class="st7" d="M229.9 232.1c.1-6.9-.7-13.8-.6-20.7.1-3-1-5.6-3.9-7.4-12.2-7.3-24.3-14.7-36.5-22.1.6-1.8 1.8-1 2.8-.7 4.4 1.4 8.4 3.9 13.2 4.3 1.6.1 3.4.4 4.9 1.1 7.7 3.2 15.8 5.2 23.5 8.2 10.5 4.2 21.3 7.8 31.9 11.9 4.5 1.8 9 3.7 13.6 5.3 6.7 2.4 13.6 4.3 20.2 7.1 5.4 2.3 11 3.9 16.3 6.3.8.4 2.8 2.2 3-.8 5 3.2 10.1 6.5 15.1 9.7-1.6 1.1-3.3.7-4.9.3-2.3-.6-4.6-.9-6.9-.8-2.1.1-4.1.2-5.9-1.2-.5-.4-1.4-.3-2.1-.4-.4 0-1-.1-1.1.5-.1.5.3.8.7 1 1.2.6 2.4 1.1 3.8 1.1 2.4.1 4 2.1 6.3 2.5-2.3 1.3-4.5.2-6.7-.1-4.1-.6-8.1-2-12.4-2-1.1 0-2.3-.5-3.3-.9-3.7-1.4-7.3-2.5-11.4-2.4-4.4.1-8.1-2.4-12.2-3.4-3.9-1-7.9-1.4-12-1.3-.9 0-1.4.3-1.7 1.3-.5 1.9-1.8 1.7-3.1.7-.9-.8-1.7-1.8-2.5-2.8-1.3-1.7-2.8-2.7-4.9-.8-2.5 2.1-5.7 2.5-8.8 2.7-1.4.1-2.4.3-3.1 1.6-.4.7-1.1 1.3-1.8 1.6-1.3.5-1.7 1.4-1.6 2.5.2 2.3-.9 4.4-2.9 4.4s-3.3-2.1-4-4.2c-.1-.8.4-2-1-2.1z"/><path class="st13" d="M321.9 430c-.1 3.1-.1 6.2-.2 9.3-8.8-3.1-17.6-6.2-26.4-9.4-20-7.3-40-14.7-60-22-.3-.1-.7-.3-1-.4 0-1.5-.1-2.9-.1-4.4 0-2-.1-4-.1-5.9.1-10.8-.2-21.5-.6-32.3-.2-12.8-.4-25.7-.7-38.5-.1-2.2.3-2.5 2.4-1.8 16.2 5.4 32.4 10.7 48.6 16 11.9 3.9 23.8 7.8 35.6 11.7 1.2.4 2.6.5 2.5 2.2-.1 6.1-.2 12.2-.2 18.3.2 19.1.2 38.2.2 57.2zm-17 1.8c.4.6 1 .6 1.6.5.7.9 1.8.9 2.7 1.2.4.1.7.3 1.1.4.2.1.3.1.5.2.4.1.7.2 1.1.4 1.1.4 2.2.8 3.2 1.2.4.1.7.3 1.1.4l.2.1h.3v.1c.6.3 1.3.6 1.9.9 1.6.8 1.9.2 1.9-1.4 0-12.2 0-24.4.1-36.6 0-1.4-.4-2.1-1.7-2.6l-39.6-13.8c-1.3-.5-1.7-.2-1.7 1.3.2 8 .2 16 .3 23.9v5.4c0 2.1.1 4.1-.1 6.2-.1 1.9.4 2.9 2.3 3.5 6.6 2.3 13.2 4.8 19.7 7.2 1.2.4 2.2 1.2 3.6 1 .5.4 1 .5 1.5.5zm-29.1-51.9c.4 0 .5-.2.4-.6-.1-9.5-.2-19-.4-28.6v-10.8c0-.7-.5-.8-1-.9-12.9-4.3-25.9-8.6-38.8-12.9-1.7-.6-1.8.1-1.8 1.5.2 8.1.4 16.2.6 24.2V364.2c0 .8-.2 1.7 1.1 1.7 13.1 4.6 26.2 9.1 39.3 13.7l.6.3zm-1.1 41c.8.3 1.7 1.1 1.7-.6 0-1 0-2.1-.1-3.1v-4.8c0-9.3-.1-18.7 0-28 0-2-.7-2.8-2.5-3.4-6.6-2.2-13.2-4.6-19.9-6.9-6.3-2.2-12.5-4.3-18.9-6.5-.4 3.1.1 6 .1 8.8.1 9.3.3 18.5.4 27.8 0 1.5-.1 3 2 3.2 12.4 4.4 24.8 8.9 37.2 13.5zm45.3-66.8c-.5-.2-1.1-.4-1.6-.7-.2-.1-.3-.1-.5-.2-.4-.1-.7-.2-1.1-.3-.2 0-.5-.1-.7-.1-.3-.2-.6-.4-.9-.5-12-4-24-7.9-36-11.9-2.4-.8-1.8.8-1.8 1.9.1 12 .2 24.1.2 36.1 0 1.7.6 2.5 2.2 3 8 2.7 15.9 5.5 23.9 8.3 5.6 1.9 11.2 3.8 17 5.9v-33.4c-.3-2.8.8-5.5-.7-8.1z"/><path class="st11" d="M321.9 430c0-19.1 0-38.1.1-57.2 0-6.1.1-12.2.2-18.3 1 .9.6 2 .6 3v69.9c-.1 1 .5 2.1-.9 2.6z"/><path class="st3" d="M333.5 234.2c-5-3.2-10.1-6.5-15.1-9.7-3.4-2.8-7.6-4.5-10.8-7.5.7-.4 1.4-.6 2.2-.6 8.5 5.1 16.8 10.4 24.9 16.1-.2.7 0 1.7-1.2 1.7z"/><path class="st10" d="M290 293.8c0 1.3 1 2.2 1.3 3.4.2.7.5 1.7-.5 2.1-.8.3-1.2-.5-1.6-1-1.1-1.4-1.8-2.9-1.5-4.7.1-.8-.4-2.1 1-2 1.2 0 2 .7 1.3 2.2zM337.3 372.3c.8.9.8 1.8 0 2.7-1.7-.9-1.7-1.8 0-2.7zM337.8 379.9c.6.4.5 1 .5 1.6-.6-.1-1.3.1-1.5-.7-.1-.7.5-.8 1-.9zM337.8 386.4v2.2c-.6-.1-1-.3-1-1-.1-.8.3-1.2 1-1.2zM337.8 383.7v1.1c-.4-.1-.9-.1-.8-.7.1-.2.5-.3.8-.4zM338.4 420.9v1.1c-.4-.1-.9-.1-.8-.7 0-.2.5-.3.8-.4z"/><path class="st8" d="M450 186.2c-.5 2.1-1.2 4.2-.6 6.5-.4.4-.4 1-.5 1.5-.2 5.9-.5 11.8-.5 17.7-.1 7.4-.9 14.9-.6 22.3.1 1.8-.6 3.1-2.4 4-8.1 4-16.1 8.2-24.2 12.3-.8.4-1.7 1.5-2.6.6-.7-.7-.3-1.9-.1-2.8.2-1.2.3-2.5.3-3.7-.2-9.1.6-18.1.7-27.1 1.4-.2.9-1.4.9-2.2.1-4-.1-8 .5-12.1.4-2.6 1.6-4.2 3.8-5.4 3.1-1.6 6.4-2.6 9.5-4.2 5.1-2.7 10.3-5.3 15.8-7.4z"/><path class="st11" d="M341.1 238.6c.2-1.5.8-2.7 2.3-3 4.5-.8 8.1-3.8 12.2-5.5 9.8-4.1 19.4-8.7 29.1-13.2 9.2-4.3 18.3-8.8 27.6-13 2.7-1.3 5.7-2.1 8.3-3.7-1.1 3-.5 6.1-.8 9.2-3.3 2.6-7.9 1.5-11 3.5-4.5 2.8-10.4 2.8-14.1 7.3-1.6 1.9-4.5 1.3-6.8 2.2-6.1 2.5-11.8 5.7-17.6 8.8-3.8 2.1-8.1 2.7-11.9 4.5-2.8 1.3-6.1 1.8-9 3-2.7 1.1-5.4 1.7-8.3 1.4V239c.1 0 .2-.1.2-.1-.1-.1-.2-.2-.2-.3z"/><path class="st13" d="M446.2 321.1c0-.9 0-1.8.1-2.7 0-1.5.1-2.9.1-4.4v-7.5c1.1-2.4.4-4.9.7-7.3.1-1.3.4-2.1 1.6-2.8l54.6-30.3h.3V279c-.1 2-.8 3.9-.5 5.9v3.8c-.2 2.2-.4 4.3-.5 6.5v4.3c-.1 1.9-.2 3.9-.3 5.8-.2 1.3-.3 2.7-.1 4-.3 4-.6 8-.8 12.1-.4 7.4-.8 14.9-1.2 22.3-1.2.7-2.4 1.5-3.7 2.2-.2.2-.4.3-.6.5-14.2 8.8-28.4 17.7-42.5 26.5-.2.2-.4.3-.6.5v-.1c-.8.1-1.3.6-1.8 1.1-.1 0-.3 0-.3.1-.2.2-.4.3-.6.5-2 .6-3.3 2.9-5.7 2.6.4-3.7.4-7.5.4-11.2l.1.1h.9c0 .2 0 .3.1.4-.2 2.5-.3 4.9-.5 7.4-.2 2.1.6 2.1 1.9.8 8.4-4.6 16.4-9.9 24.4-15.1.4-.1.6-.3.6-.7 0-1.6.1-3.2.1-4.8.7-.4.5-1.1.4-1.6 0-.7.1-1.4.1-2.1.3-.8-.2-1.9 1.1-2.5v4.1c0 .7 0 1.4-.1 2.2-.3 1.2-1.1 2.6-.2 3.6.7.8 1.6-.2 2.2-.8.3-.1.7 0 1-.2l21.9-13.8c.6-.2.7-.6.5-1.2 0-1.4.1-2.8.1-4.3.5-.2.5-.7.4-1.1 0-.7 0-1.4.1-2.1.5-9.3 1-18.7 1.6-28.5-8.8 5.2-17.1 10.2-25.5 15-1.1.7-.9 1.6-.9 2.6-.2 6.1-.5 12.2-.7 18.3-.3 0-.6 0-.9.1v-19.3c.2 0 0-.1-.1 0l-25.5 15c-1 .6-1.2 1.5-1.2 2.5-.1 8-1 15.9-.7 23.9-.1.2-.1.3-.1.5-.3-.4-.6-.7-.9-1.1h-.1c0-1.3.1-2.6.1-3.8l-.1-.1c.5-.3.5-.6 0-.9-.5-3.4 1-6.7.5-10.2.1-3.4.3-6.8.4-10.2 0-2 .1-4 .1-5.9 0-.9 0-1.8.1-2.8v-7.5c.3-.3.3-.8.2-1.2zm.4 15.9c9.2-5.4 17.9-10.6 26.6-15.7 1-.6 1-1.4 1-2.3.1-3.8.3-7.5.5-11.3.3-8.2.7-16.5 1-24.7-.4 0-.6-.1-.7 0-8.6 4.8-17.2 9.6-25.9 14.4-.8.4-1.2.9-1.2 1.9-.4 12.4-.8 24.8-1.3 37.7zm56.5-69.8c-8.9 5-17.3 9.7-25.6 14.3-1 .6-.9 1.4-1 2.3-.4 11.2-.9 22.4-1.3 33.6 0 .7-.4 1.6.3 2 .7.5 1.3-.3 1.9-.6 5.8-3.4 11.4-7.2 17.4-10.1 4.9-2.4 7-5.4 7-11-.1-10 .8-19.9 1.3-30.5z"/><path class="st12" d="M419.7 209.4c.4-3-.2-6.2.8-9.2 1.4-2.9 4-4.8 6.4-6.8 3.6-3.2 6.9-6.6 10.7-9.4.4 1.7 1.7 1.6 2.9 1.6 3.4.2 6.8-.1 10.1-.5-.2.4-.4.7-.6 1.1-5.5 2.1-10.7 4.7-16 7.4-3 1.6-6.4 2.6-9.5 4.2-2.2 1.1-3.4 2.8-3.8 5.4-.6 4-.4 8-.5 12.1 0 .8.5 1.9-.9 2.2.2-2.7.3-5.4.4-8.1z"/><path class="st11" d="M337.8 263.9c-.8-.6-.5-1.4-.5-2.2v-9.2c0-.8-.3-1.9 1.1-2.1v11c0 .8.3 1.8-.6 2.5zM338.4 276.3c-1.7-1.4-1.7-2.9 0-4.3v4.3zM338.4 248.3c-.5-.4-.5-.7 0-1.1.5.3.5.7 0 1.1zM337.8 330.8v-1.1c.4.1.9.1.8.7 0 .2-.5.3-.8.4zM337.8 303.3c-.6-.4-.6-.7 0-1.1.6.4.6.7 0 1.1z"/><path class="st0" d="M163.8 61.2c.4.1.7.2.7.6 0 .5-.3.8-.8.8-.4 0-.6-.4-.6-.7.1-.5.3-.7.7-.7z"/><path class="st14" d="M293.1 106.9h.5c.5.6 1.1.9 1.8 1 9 2 18 4 26.9 5.9 20.4 4.4 40.8 8.8 61.3 13.3 14.4 3.1 28.8 6.2 43.2 9.6 5.3 1.2 10.7 1.9 15.9 3.8-1.5.8-3 1.7-4.6 2.5-1.7.6-2.6 2.1-3.8 3.3-5.1 4.8-9.9 9.7-15.4 14.1-2.2.4-4.2.1-6.1-1-1.1-.6-2.4-.8-3.7-.6-2.2.4-4.4.9-6.3-.9-2.9 1.6-5.2-2-8.3-.9-1.2.5-2.9-.7-4.1-1.6-1.4-1.1-3-1.5-4.7-1.5-4.4.1-8.7-.3-12.8-2.4-1.4-.7-3.1-1-4.7-1-4.8-.1-8.8-2.7-13.1-3.8-5.1-1.4-9.6-4.6-14.9-4.7-3.4-.1-4.9-2.6-7.4-3.6-2.6-1.1-5.3-2.2-8-3-4.5-1.2-7.7-4.7-12.1-5.9-1.9-.5-3.7-1.8-5.2-3.2-3-2.6-6.1-4.9-9.3-7.2-3.7-2.7-5.2-6.8-6.9-10.7-.9-1.9.9-1.3 1.8-1.5z"/><path class="st11" d="M418.9 160.3c5.4-4.4 10.3-9.4 15.4-14.1 1.2-1.1 2.2-2.7 3.8-3.3.9 1.3 1.9 1.6 3.6.8 10.5-4.6 21-9.1 31.6-13.6 12.1-5.2 24.2-10.4 36.3-15.5 1.8-.8 3.5-2.5 5.8-1.8-.2.3-.4.7-.6 1l-.6.6-.6.6-.6.6-.6.6-.6.6c-.7 0-1.1.3-1 1l-.5.5-.5.5h-.1c-.5-.1-.8.1-1 .5-1.1.9-2.4 1.8-3.2 3-.2.3-.4.5-.6.8l-.6.6-.6.6c-.5 0-.9.2-1.2.6l-.4.4c-.2.2-.4.4-.6.7l-.6.6-.6.6c-.3.2-.5.4-.8.6-2.4 1.2-3.9 3.4-5.7 5.2-.2.3-.4.5-.6.8l-.6.6-.6.6-.6.6c-.5 0-.9.1-1.1.6l-.6.6-.6.6-.6.6c-.3.2-.5.4-.8.6-.1 0-.2.1-.3.3-.2.3-.4.5-.6.8l-.6.6-.6.6c-.5-.1-.9.2-1.2.6l-.4.4c-.2.2-.4.5-.6.7l-.6.6-.6.6-.6.6-.6.6-.6.6-.6.6-.6.6-.6.6c-.5-.1-.9.1-1.1.6l-.6.6c-.2 0-.4 0-.5.1-.8-1.5-2-1.5-3.1-.4-3.5 3.3-7.9 5.2-11.6 8.1-.7.6-1.9.9-2.8.8-4.2-.4-7.8 1.9-11.8 2.6-1.9.3-3.5 1.5-4.9 2.7-1.6 1.4-3.5 1.8-5.5 2.5-4 1.3-7.7 3.3-10.4 6.7-.8.9-1.5 1.8-2.6 2.2-5.5 1.9-10.1 5.6-15.2 8.4-1.5.8-2.9.1-4.6.7-5.3 2.1-10.2 4.6-14.4 8.5-8.5 7.9-16.8 15.8-25.3 23.7-4.4 4.1-9 7.9-13.2 12.2-1.2 1.2-2.5 1.2-3.9 1.1 2-3.1 4.9-5.5 7.6-7.9 2-1.8 3.9-3.7 5.9-5.4 3.5-2.5 6.4-5.8 9.5-8.7 9.9-9 19.5-18.3 29.2-27.4 7.8-7.5 13.7-13.1 19.6-18.8z"/><path class="st7" d="M234.3 403.1c0 1.5.1 2.9.1 4.4-1.1-1.5-1-2.9-.1-4.4z"/><path class="st12" d="M334.6 456.5c-.4 0-.8 0-1.1-.5.9-1 1-.2 1.1.5z"/><path class="st6" d="M262.5 185.2c-2.1-1-3.9-2.3-5.7-3.7 1.8-4.8 4.1-9.3 6.3-13.9 2.2-4.7 4.3-9.4 6-14.3 2.4-6.8 5.4-13.4 7.9-20.2 1.7-4.6 3.1-9.3 4.1-14.1.2-1 .3-2.1 1.1-3 .7 2.6 0 5.2-.2 7.8-.3 4.6-1 9.2-1.8 13.8-.4 1.8-.8 3.7-1.3 5.4-2.3 7.9-4.7 15.9-7.4 23.7-2 5.6-4.5 11.1-6.7 16.7-.5 1.3-1 1.9-2.3 1.8z"/><path class="st13" d="M287.6 201.6c-1.3-.8-2.6-1.7-3.9-2.5 2.2.3 1.7-1.3 1.7-2.5v-32.4-25.1-2.6c.7 2.9.9 5.9.9 8.8 0 8.3.8 16.5.6 24.7-.1 10.7.8 21.1.7 31.6z"/><path class="st6" d="M282.3 115c0-.6-.1-1.2.5-1.6.9.9.6 1.4-.5 1.6z"/><path class="st2" d="M506.2 347.5c-.1.5-.2.9-.7 1-8.6 2.8-15.8 8.3-23.5 12.8-8.9 5.2-17.6 10.8-26.4 16.3-6.1 3.8-12 8-18.4 11.5-3.9 2.1-7.4 5-11.3 7.2-12 6.5-23 14.5-34.6 21.7-6.1 3.8-11.9 8.3-18.2 11.8-5 2.8-9.8 5.9-14.5 9.1-5.8 3.9-12.2 6.7-17.5 11.4-2.2 2-2.7 1.7-3.7-1.3 1.9 1 3.4-.3 4.6-1.3 5.2-4.4 11.6-6.8 17-10.7 5.4-3.9 11.4-7 16.8-10.9 5.3-3.8 10.9-7.1 16.6-10.3 3.5-1.9 6.2-4.7 9.6-6.7 4.5-2.7 9.1-5.2 13.3-8.4 6.9-5.2 14.9-8.5 21.9-13.4 6.6-4.6 13.9-8 20.6-12.5 3.9-2.6 8-5.1 12-7.6 5.9-3.7 11.8-7.6 18-10.9 4.8-2.6 9.7-5 14.2-8 1.3-.9 2.7-.8 4.2-.8z"/><path class="st11" d="M444.6 366.4c0 3.7 0 7.5-.4 11.2-.2 0-.3.1-.5.1-.3-3.6-.3-7.2 0-10.8.1-.2.6-.3.9-.5z"/><path class="st12" d="M445.6 366.5h-.9c0-.9.1-1.9.1-2.8.3.4.6.7.9 1.1-.1.5-.1 1.1-.1 1.7z"/><path class="st3" d="M444.8 359.9c0 1.3-.1 2.6-.1 3.8h-.6c.3-1.3-.6-2.7.7-3.8z"/><path class="st11" d="M450.9 374.4c.5-.6 1-1.1 1.8-1.1 0 1.3-.9 1.2-1.8 1.1zM355.9 422.9c-.1.1-.1.3-.2.4-.1-.1-.4-.1-.4-.2s.1-.3.2-.4c.2.1.3.1.4.2zM452.7 373.4c.2-.2.4-.3.6-.5-.2.2-.4.3-.6.5zM449.9 375c.2-.2.4-.3.6-.5-.1.2-.3.4-.6.5zM495.8 346.4c.2-.2.4-.3.6-.5-.2.2-.4.4-.6.5z"/><path class="st3" d="M478.8 220.5c-2.2-1.4-4.2-1.9-3.9-4.4.1-.7-.2-1.6.8-1.7.8-.1 1.4.5 1.6 1.1.5 1.4.8 2.8 1.5 5zM481.3 228.9c.1-.9-.1-1.8 1.3-2 .2 1-.1 1.7-1.3 2z"/><path class="st7" d="M485.1 140.8l.4-.4c.5 0 1 0 1.2-.6l.6-.6.6-.6c.2-.3.4-.5.6-.8l.3-.3c.3-.2.5-.4.8-.6l.6-.6.6-.6.6-.6c.5 0 .9-.1 1.1-.6l.6-.6.6-.6.6-.6c.2-.3.4-.5.6-.8 1.8-1.8 3.3-4 5.7-5.2.3-.2.5-.4.8-.6l.6-.6.6-.6c.2-.2.4-.4.6-.7l.4-.4c.5 0 .9-.1 1.2-.6l.6-.6.6-.6c.2-.3.4-.5.6-.8.8-1.2 2.1-2.1 3.2-3 3.3 1.6 5.9 5.1 10.3 3.8-3.2 3.8-7.2 6.8-10.8 10.3-4.4 4.3-9.2 8.2-13.7 12.4-1.4 1.3-3.1 2.1-4.1 3.8-1.1.9-2.2 1.8-3.2 2.7-.8-1-2-.9-3.2-1.1-2.6-.7-5.6-.1-7.7-2.2l.4-.4c.8 0 1.2-.3 1.3-1.1l.6-.6.6-.6c.5 0 .9-.1 1.1-.6l.6-.6.6-.6.6-.6.6-.6.6-.6.6-.6.6-.6.6-.6c-1.5 1.4-1.3 1.2-1.1 1z"/><path class="st2" d="M519.2 123.1c-4.4 1.3-7-2.3-10.3-3.8.4 0 .8 0 1-.5h.1l.5-.5.5-.5c.7 0 1.1-.3 1-1l.6-.6.6-.6.6-.6.6-.6.6-.6c.8 0 1.4-.3 1.6-1.1l.6-.6.6-.6c.2-.2.4-.4.6-.7 8.8-3.8 17.5-7.6 26.3-11.3.6-.2 1.2-.3 1.8-.5-5.4 5-10.9 10-16.3 15-2.7 2.5-5.5 4.8-8.2 7.3-1.2.8-1.7 1.8-2.8 1.8z"/><path class="st8" d="M476.4 148.9c2.2 2.1 5.1 1.6 7.7 2.2 1.1.3 2.3.1 3.2 1.1-9.8 8.8-19.6 17.6-29.4 26.5-2.1 1.9-4.1 3.9-6.2 5.9-.3.2-.7.3-1 .5-3.4.4-6.7.7-10.1.5-1.2-.1-2.6 0-2.9-1.6.2-.2.4-.5.6-.7.3-.3.6-.6 1-.9.5 0 1 0 1.2-.6l.5-.5.5-.5c.2-.3.4-.5.5-.8.1-.2.2-.3.3-.3.2-.2.5-.4.7-.5l.6-.6c.2-.2.4-.5.6-.7l.4-.4c.5 0 1 0 1.2-.6l.5-.5.5-.5c.2-.3.4-.5.5-.8 1.8-1.8 3.5-3.8 5.5-5.4 4-3.2 7.4-7.2 11.3-10.5.3-.2.7-.4 1-.6 3.1-2.9 6.4-5.5 9.3-8.6l.6-.6c.4-.1.9-.3 1.4-.5z"/><path class="st3" d="M502.4 299.5v-4.3c1.7 1.4 1.7 2.9 0 4.3zM503 288.7v-3.8c1.4 1.4 1.4 2.4 0 3.8zM502.1 309.4c-.3-1.4-.1-2.7.1-4 1.1 1.3 1.2 2.6-.1 4z"/><path class="st2" d="M368.6 119.3c5.4.1 10.4 2.1 15.7 3 7.6 1.3 15.1 3.3 22.7 4.8 4.8.9 9.7 2.4 14.5 3.4 9.6 1.9 19.1 4 28.7 6.1.3.1.6.3.9.5-.5.2-1.1.4-1.6.5-.2-.3-.4-.3-.5.1-2.2 1-3.9-.7-5.8-1.1-4.6-.8-9.1-1.6-13.6-2.6-6.4-1.5-12.8-2.9-19.3-4.3-6.2-1.3-12.4-2.5-18.5-3.8l-27-6c-.7-.2-1.5-.1-1.5-1.1v-.6h1.1c.2.4.6.5 1.1.5h1.1c.4.9 1.2.6 2 .6z"/><path class="st6" d="M442.7 140.5c-5.1-1.9-10.6-2.6-15.9-3.8-14.4-3.3-28.8-6.4-43.2-9.6-20.4-4.4-40.8-8.8-61.3-13.3-9-2-18-3.9-26.9-5.9-.7-.2-1.4-.4-1.8-1 5.1.1 10 1.8 15 2.8 24.4 5.2 48.7 10.7 73 16 20.8 4.5 41.6 9 62.3 13.5.2.1.4.3.7.4-.6.4-1.3.7-1.9.9z"/><path class="st12" d="M516.4 112.8c-.3.8-.8 1.1-1.6 1.1.2-.3.4-.7.6-1 .3 0 .6-.1 1-.1z"/><path class="st7" d="M449 137.7c.1-.3.3-.4.5-.1-.2.1-.3.1-.5.1z"/><path class="st12" d="M516.9 112.3l-.6.6c0-.5.3-.6.6-.6zM517.5 111.7l-.6.6c0-.4.2-.5.6-.6z"/><path class="st12" d="M518 111.1c-.2.2-.4.4-.6.7.2-.3.4-.5.6-.7z"/><path class="st10" d="M363.2 118.2v.6c-6.9-.5-13.5-2.4-20.2-4-10.5-2.4-21-4.6-31.5-7.2-6.7-1.6-13.4-2.8-20-4.8-1.3-.4-2.8-.8-3.2-2.4 9.8 3 19.9 4.7 29.9 7l33.6 7.8c3.4.8 6.8 1.4 10.2 2 .6.1 1.1.3 1.2 1zM368.6 119.3c-.8 0-1.6.3-2.2-.5 1-.8 1.8-1 2.2.5zM365.4 118.8c-.5 0-.9-.1-1.1-.5.8-.9.9-.2 1.1.5z"/><path class="st2" d="M307.6 217c3.2 3.1 7.4 4.7 10.8 7.5-.2 3.1-2.2 1.2-3 .8-5.3-2.4-10.9-4-16.3-6.3-6.6-2.8-13.5-4.7-20.2-7.1-4.6-1.6-9.1-3.5-13.6-5.3-10.6-4.1-21.4-7.7-31.9-11.9-7.7-3.1-15.8-5-23.5-8.2-1.5-.6-3.3-.9-4.9-1.1-4.8-.4-8.8-2.9-13.2-4.3-1.1-.3-2.3-1.1-2.8.7-9.9-6.1-19.8-12.1-29.7-18.2.8-1.1 1.7-.4 2.7-.2 5.5 1.5 10.8 3.8 16.3 5.4 9.2 2.6 18.2 5.7 27.4 8.3 9.3 2.6 18.2 6.2 26.9 10.1 2.9 1.3 6.2 1.7 9.2 2.6 7.9 2.3 15.7 4.9 23.4 7.8 5.7 2.1 11.2 4.6 17 6.4 1.9.6 2.5.4 1.8-1.6 6.2 3.4 11.9 7.5 17.9 11.3 1.8 1.1 3.6 2.5 5.7 3.3z"/><path class="st3" d="M445.6 338.4c-.1 3.4-.3 6.8-.4 10.2-.6-3.4-1.5-6.9.4-10.2zM381.5 339c-.3 1.2-1 2.1-2.2 2.4-.6.1-1.1-.5-.9-1 .5-1.1.5-2.6 2.1-2.8.8-.2 1 .7 1 1.4zM355.1 362.9c-.2.7.3 1.9-1 1.7-.9-.1-1.1-1.1-1.1-1.9 0-.8.2-1.9 1-1.9 1.3 0 1 1.2 1.1 2.1zM431.8 315.5c-.8-.2-.9-.8-1-1.4-.1-.8.1-1.7 1-1.9.8-.2 1 .6 1 1.2 0 .9-.3 1.6-1 2.1zM348.6 363.8c0 .6-.2 1.2-1 1.2-.6 0-.6-.6-.6-1 0-.6.3-1.1.8-1.2.6 0 .8.5.8 1zM446.4 314c0 1.5-.1 2.9-.1 4.4-.8-1.5-1-2.9.1-4.4zM445.8 329.7c0 .9 0 1.8-.1 2.8-.8-1-.8-1.9.1-2.8zM354.2 359.2c-.1-.1-.4-.1-.4-.2s.1-.3.2-.4c.1.1.4.1.4.2s-.2.2-.2.4zM446.2 321.1c.1.5.1.9-.4 1.1-.9-.7-.4-1 .4-1.1zM444.7 358.8c.5.3.5.6 0 .9v-.9z"/><path class="st12" d="M478.1 147.4c0 .8-.5 1.1-1.3 1.1.2-.7.5-1.2 1.3-1.1zM440.3 181.9c-.2.5-.7.6-1.2.6.4-.4.7-.7 1.2-.6zM445.7 177c-.2.5-.7.6-1.2.6.3-.4.7-.6 1.2-.6z"/><path class="st11" d="M465.1 158.7c-.3.2-.7.4-1 .6.2-.5.5-.6 1-.6zM474.9 149.5l-.6.6.6-.6z"/><path class="st12" d="M478.6 146.8l-.6.6v-.5c.3-.1.5-.1.6-.1zM447.3 175.2c-.2.3-.4.5-.5.8.2-.3.4-.6.5-.8zM446.8 176l-.5.5c.1-.2.3-.4.5-.5zM446.3 176.5l-.5.5.5-.5zM444.1 178c-.2.2-.4.5-.6.7.2-.3.4-.5.6-.7zM443.6 178.6l-.6.6.6-.6zM443 179.2c-.2.2-.5.4-.7.5.2-.1.5-.3.7-.5zM441.9 180c-.2.3-.4.5-.5.8.2-.2.4-.5.5-.8zM441.4 180.8l-.5.5.5-.5zM440.9 181.3l-.5.5.5-.5zM438.2 183.4c-.2.2-.4.5-.6.7.2-.3.4-.5.6-.7z"/><path class="st3" d="M341.1 238.6c.1.1.1.3.2.4 0 0-.1.1-.2.1v-.5z"/><path class="st2" d="M316.8 352.9c.4.1.7.2 1.1.3.1.4.1.7.5.2.5.2 1.1.4 1.6.7.3 2.7-.7 5.4.6 8v33.4c-5.8-2-11.4-3.9-17-5.9-8-2.8-15.9-5.6-23.9-8.3-1.6-.5-2.2-1.3-2.2-3 0-12-.1-24.1-.2-36.1 0-1.1-.6-2.7 1.8-1.9 12 4 24 7.9 36 11.9.3.1.6.3.9.5.3.3.5.7.8.2zm-5.5 12c.1.1.2.2.4.2v-.6c-1.8-3.5-3.6-7-5.4-10.6-.6-1.1-1-1.4-1.8-.2-1.4 1.9-2.8 3.7-4.3 5.5-1.2 1.4-.7 2 .8 2.3 1.9.3 2.3 1.5 2.3 3.3-.1 4.5 0 9-.1 13.5 0 1.2.3 2 1.3 2.7-1 .5-1.9-.2-2.8-.5-5.3-1.8-10.5-3.5-16.1-5.4.6 2-1.3 4.5 1.3 5.4 8.1 3 16.2 5.7 24.4 8.5.7-5 .7-5-3.7-6.4-.7-.2-1.6-.2-2-1.1 1.8.2 2.4-.4 2.3-2.3-.2-3.8-.1-7.7-.1-11.5-.1-3.8-.1-3.8 3.5-2.8zm-20-17c-1.9 2.5-3.6 4.7-5.3 6.8-1 1.3-.7 1.9.8 2.1 1.9.3 2.2 1.5 2.2 3.3-.1 4.6.2 9.2.1 13.7 0 2.7 2.2 2.5 3.6 2.7 1.8.2.8-1.6.8-2.4.1-3.8 0-7.5 0-11.3 0-3.4 0-3.4 3.3-2.7.1 0 .3-.1.7-.3-2-3.9-4-7.8-6.2-11.9z"/><path class="st7" d="M277.9 407.9c-.1-8-.2-16-.3-23.9 0-1.4.4-1.7 1.7-1.3l39.6 13.8c1.3.5 1.7 1.2 1.7 2.6-.1 12.2-.1 24.4-.1 36.6 0 1.6-.3 2.2-1.9 1.4-.6-.3-1.3-.6-1.9-.9.4-.1.9-.2 1.3-.2.9.1 1.6.2 1.5-1.1-.1-.9.3-2.1-1.2-2.2-3.2-.2-4.4-2.8-5.7-5.1-.9-1.7-2-2.7-3.9-2.5.4-1.3-.7-1.9-1.1-2.8-.7-1.8-2.7-3-2.6-5.2.4 0 1.1.7 1.1-.3v-8.7c-.2-.1-.5-.2-.7-.2-.9 1.7-3.7 1.8-3.7 4.4-1.6-.7-1.4-1.5-.2-2.5 2.2-1.9 4.3-3.8 6.5-5.7.7-.6 1-1.2.3-2-.8-1-1.2-.2-1.7.2-.4.3-.7.5-1.1.8h-2c-.1 0-.2-.1-.2-.3-.2-.7-.4-1-1-.3-2.6-.3-4.8-2.2-7.6-2.1-.3 0-.5 0-.8.1l-.9-1.5c.1-.9.2-1.7-1.1-1.8-.2-.3-.3-.6-.5-.9.1-.8-.2-1.3-1-1.3-.1 0-.2-.1-.3-.1l.2.2v.1c-.3.2-.7.3-1 .5-.2 0-.5.1-.7.1.2.1.4.2.6.4 1.3 2.8 3.9 4.9 4.4 8.1-.6.2-.7-1.1-1.3-.7v9.9c1.4-2.2 4.3-2.1 4-4.9 2 .6 1.5 1.5.3 2.5-1.9 1.6-3.8 3.2-5.6 4.8-.2-.6-.7-.8-1.2-.9 0-4.8.1-9.6.1-14.4 0-.7 0-1.6-.9-1.6-1.1 0-.7 1-.7 1.6-.1 4.5-.1 8.9-.1 13.4-1.9-.5-.9-2.1-1-3.2-.2-1.3.4-2.8-1.3-3.4.5-.7 1.7-1.1.7-2.4-1.4-1.9-2.6-4-4.2-6.4-.2 1.8.1 3.4-2.2 3.2-.8-.1-.9 4 0 4.2 2.3.6 2.1 2 1.7 3.7-1.3-2.6-1.3-2.6-4-1.8zm38.1 2.6c-1.7 1.4-3 2.5-4.4 3.6-.6.5-.7.9-.3 1.6 1.5 2.1 2.9 4.2 4.3 6.3 1-.8-.2-2.2 1.2-2.6 1.5-.4 2.4-3.6 1.1-4.1-2.3-.9-1.7-2.7-1.9-4.8zm-6.1 3.6v-6.2c0-.8.2-1.9-.8-1.9-1.3-.1-.7 1.1-.8 1.8-.1 1.2 0 2.5 0 3.8v8.3c0 .8-.2 1.9.9 1.9 1.3.1.7-1.2.8-1.8-.1-2-.1-4-.1-5.9zM237.5 407.2c-2.1-.2-2-1.7-2-3.2-.1-9.3-.3-18.5-.4-27.8 0-2.9-.5-5.7-.1-8.8 6.4 2.2 12.6 4.4 18.9 6.5 6.6 2.3 13.2 4.7 19.9 6.9 1.8.6 2.6 1.4 2.5 3.4-.1 9.3 0 18.7 0 28-.5-.1-1-.3-1-.7.6-4.1-2.7-5.3-5-7.4-2.3-2.1-5.2-2.5-7.8-3.7-3.3-1.5-4.2-1-4.5 2.7-.1.7 0 1.5-1 1.6v-9.4c3.9 1.2 7.8 2.2 11.5 3.8l.2-.2c-.1-.3-.1-.7-.3-1-2.2-5-5.4-9.1-10.2-11.8-1.2-.6-1.5-2.7-2.7-2.2-1.7.7-3.3.1-5 .3-3.7.5-6.9 3.2-7.6 6.5-1 .7-1.7.4-2.6-.4-.9-.9-2.2-1-3.3-.5-1 .5-.6 1.6-.6 2.4v11.3c0 1.4.2 2.6 1.1 3.7z"/><path class="st8" d="M237.5 407.2c-.9-1.1-1.1-2.3-1.1-3.7.1-3.8 0-7.5 0-11.3 0-.8-.4-2 .6-2.4 1.1-.5 2.4-.4 3.3.5.8.8 1.6 1.1 2.6.4.2 0 .4-.1.5-.1.9.9 1.8.9 2.7.1 2.2 1.9 5.4 1.4 7.8 3.1.6.5 1.3.5 1.3 1.5 0 4.2.1 8.4.1 12.7 0 .7 0 1.5-.9 1.7-.8.1-1.4-.3-1.7-1-.2-.5-.4-1-.5-1.5-.1-.5-.4-.8-.9-.8-.6.1-.6.6-.5 1 .4 2.1 1.5 3.7 3.7 4.2 2 .5 2.3-1.2 2.9-2.4 1-.7 1.2-1.3-.2-1.7v-2.7c1-.1.9-.8 1-1.6.4-3.7 1.2-4.2 4.5-2.7 2.6 1.2 5.6 1.6 7.8 3.7 2.3 2.1 5.6 3.4 5 7.4-.1.5.5.7 1 .7v4.8c-1.1 1 .1 3-1.6 3.8-12.6-4.6-25-9.1-37.4-13.7z"/><path class="st2" d="M234.7 351.9c-.2-8.1-.4-16.2-.6-24.2 0-1.3.1-2 1.8-1.5 12.9 4.3 25.9 8.6 38.8 12.9 0 .6.5.9 1 .9v10.8c-.9.7-.6 1.6-.6 2.5v11.6c-1.3.1-2.7-.2-4 .3-1.3.5-2.7 0-3.3-1.1-1.8-3-4.8-3.8-7.6-5-2.3-1-2.3 0-2.3 1.7 0 2 .3 3.9-.3 5.9-1.5-2.9-.4-5.9-.6-8.9 0-.6.6-.4 1-.4 6.4-.1 8.6-2.2 8.5-8.5 0-2.5 1-5.6-.5-7.3-1.4-1.7-4.5-1.9-6.9-2.7-3.3-1.1-6.7-2.2-10.7-3.5 2 4.3.4 8.2 1.2 11.9-1.1-2-3-4.5-2.2-6.3 1.1-2.5-.5-4-.8-5.8-.2-.9-1.6-1-2.6-1.1-.8-.1-.8.6-.8 1.1.2 4.2-.5 8.4 1.1 12.5-.7 0-1.5-.1-2.1.1-2.6 1-4.1-.2-5.2-2.4-.3-.5-.5-1.4-1.2-1.2-.9.2-.5 1.2-.6 1.8-.2 1.9.8 4-.5 5.9z"/><path class="st7" d="M234.7 351.9c1.2-1.9.3-4 .6-6 .1-.7-.4-1.6.6-1.8.7-.2.9.7 1.2 1.2 1.1 2.2 2.6 3.4 5.2 2.4.6-.2 1.4-.1 2.1-.1 2 3.3 4.3 6.2 7.8 7.9.7.3.8.8.8 1.5 0 2.2 0 4.5.1 6.7 0 1.2-.4 1.6-1.6 1.5-1.6-.2-3.3-.3-4.9-.4 0 .2-.1.4-.1.6 5.6 1.8 11.1 3.7 16.7 5.5.3.4.8.4 1.3.3l.1.2-.1-.1c-.3-.2-.7-.4-1-.6-1.5-1-2.9-2-4.4-3.1 0-.8-.3-1.3-1.2-1l-.2.1c.6-1.9.3-3.9.3-5.9 0-1.7 0-2.7 2.3-1.7 2.9 1.2 5.9 2 7.6 5 .6 1 2 1.6 3.3 1.1 1.3-.5 2.7-.3 4-.3 0 4.9-.1 9.9-.1 14.8-13.1-4.6-26.2-9.1-39.3-13.7v-9.3c0-.8.2-1.9-1.1-2.1.1-1 .1-1.8 0-2.7z"/><path class="st8" d="M277.9 407.9c2.7-.9 2.7-.9 3.9 1.6.2.2.4.3.7.5.4-.1.7-.3.8-.8.8-.7 1.7-1.3 2.5-2 1.7.7 1.1 2.2 1.3 3.4.2 1.1-.8 2.6 1 3.2.5.3 1 .7 1.6 1 .6.1 1 .3 1.2.9-.3.9-2.3 1.1-1.1 2.7 1 1.3 1.4 0 2.1-.3h2.7l8.7 3.3c.4-.1.8-.2 1.1-.2v.1c-.2.9.3 1.2 1 1.2.3.5.7 1 1 1.6 0 .5.1 1 .7 1.1h1.4c2-.2 3 .9 3.9 2.5 1.3 2.3 2.5 4.8 5.7 5.1 1.6.1 1.1 1.3 1.2 2.2.1 1.3-.6 1.2-1.5 1.1-.4-.1-.9.1-1.3.2v-.1c-.1-.5-.3-.5-.5-.1-.4-.1-.7-.3-1.1-.4-.9-1-1.6-2.2-3.2-1.2-.4-.1-.7-.2-1.1-.4 0-.4-.1-.7-.5-.2-.4-.1-.7-.3-1.1-.4-.6-1.2-1.6-1.3-2.7-1.2-.3-.8-1-.6-1.6-.6-.3-.6-.8-.6-1.4-.6-1.3.2-2.4-.6-3.6-1-6.6-2.4-13.1-4.9-19.7-7.2-1.9-.7-2.5-1.6-2.3-3.5.2-2.1.1-4.1.1-6.2.4-.1.9-.1 1-.7.1-.7-.4-.9-1-.9.2-1.1.1-2.4.1-3.7z"/><path class="st10" d="M275.1 379.6c0-4.9.1-9.9.1-14.8v-11.6c0-.9-.3-1.8.6-2.5.1 9.5.2 19 .4 28.6-.1.2-.3.4-.4.6-.2-.1-.4-.2-.7-.3z"/><path class="st2" d="M234.8 354.5c1.3.2 1.1 1.2 1.1 2.1v9.3c-1.3 0-1.1-.9-1.1-1.7v-9.7z"/><path class="st11" d="M320.6 362.1c-1.3-2.6-.3-5.4-.6-8 1.5 2.6.4 5.3.6 8z"/><path class="st7" d="M274.7 420.9c1.7-.7.5-2.8 1.6-3.8 0 1 .1 2.1.1 3.1 0 1.8-.9 1-1.7.7zM311.9 434.5c1.6-1 2.4.2 3.2 1.2-1-.4-2.1-.8-3.2-1.2zM306.5 432.3c1.1-.1 2.1 0 2.7 1.2-1-.3-2-.3-2.7-1.2zM278 411.7c.5.1 1 .2 1 .9-.1.6-.5.6-1 .7v-1.6zM304.9 431.7c.6 0 1.3-.2 1.6.6-.6.1-1.2 0-1.6-.6z"/><path class="st10" d="M275.8 340c-.6 0-1-.3-1-.9.5 0 1 .2 1 .9z"/><path class="st7" d="M303.5 431.2c.5 0 1.1 0 1.4.6-.5 0-1-.1-1.4-.6z"/><path class="st12" d="M275.8 379.9c.1-.2.3-.4.4-.6.1.3 0 .5-.4.6z"/><path class="st11" d="M318.4 353.4c-.4.5-.5.1-.5-.2.2.1.4.1.5.2zM316.8 352.9c-.4.6-.5.1-.7-.1.2 0 .5 0 .7.1z"/><path class="st7" d="M310.3 433.9c.4-.5.5-.2.5.2-.2-.1-.3-.1-.5-.2zM316.2 436.1c.2-.4.4-.5.5.1h-.3l-.2-.1z"/><path class="st11" d="M473.8 352.4v-4.1c-1.3.6-.8 1.8-1.1 2.5-1.2-1.9-.3-4-.6-6-.1-.6.3-1.4-.3-1.7-.8-.5-1.1.6-1.7.8-.9.4-1.5 2.6-2.8.5.4-.2 1 .2 1-.6-.1-2.4-3-4.7-5.4-4.7-2 0-3.2 1-4.5 2.4-3.3 3.6-6 7.6-6.7 12.6-.4 0-.4.3-.5.5-.5.2-.6.6-.6 1.1-1.1-.1-1.6-.7-1.6-1.7-.1-.8-.4-1.4-1.3-1.4-1 .1-.8 1-.8 1.7v8c0 .8.3 1.9-1 2.1-.3-8 .7-15.9.7-23.9 0-1 .1-1.9 1.2-2.5l25.5-15c.1-.1.3 0 .1 0v19.3c0 .7-.4 1.6.6 2 .6-.7.4-1.4.3-2.1.2-6.1.5-12.2.7-18.3 0-1-.2-1.9.9-2.6 8.3-4.9 16.6-9.8 25.5-15-.5 9.8-1.1 19.2-1.6 28.5-1.1-.6.1-3.1-2.2-2.8.4-1-.9-2.6 1.1-2.9.1.4-.2 1 .3 1.3.5-.6-.1-1-.3-1.4 1.1-2.4 0-4.4-1-6.6-1.4 1.7-1.4 4.3-3.3 5.9 0-1.9-.1-3.6 0-5.3 0-1.1-.5-.9-1.1-.7-.7-1.1 1.2-2 .1-3.4-.9 2-1.8 3.8-2.7 5.6-.2 0-.3-.1-.5-.1-1.8-.3-4.4 1.4-5 3.3-1.3-.2-1.3-1.9-2.8-2.4-.5 3.8 3.7 5.2 4.1 8.5-1.4-.4-1.5-2-3-2.2.4 2.7-1 5.2.1 7.9.1.3.1.6.2.9-.2.4-.2.9-.5 1.2-.4.6-.3 2-1.3 1.7-1-.3-.2-1.3-.2-2.1v-11.6c-.1 0-.3 0-.4-.1l-.9 14.4c-1.2-1.1-.2-2.9-1.3-4 1.5-2.6.2-4.1-1.8-5.7-.1 1.1.1 2.4-.4 2.8-1.7 1.5-1.3 3.3-1.2 5.1-1.5 2.5-.3 5.2-.7 7.7-.4.9.3 2.2-1.3 2.6zM446.6 337c.4-12.9.9-25.3 1.2-37.7 0-1 .5-1.5 1.2-1.9 8.6-4.8 17.2-9.6 25.9-14.4.1-.1.3 0 .7 0-.3 8.2-.6 16.5-1 24.7-.1 3.8-.3 7.5-.5 11.3 0 .9-.1 1.7-1 2.3-8.6 5.1-17.3 10.3-26.5 15.7zm8.8-10c4.2-1.1 7.3-4.2 11.1-6.1-.4-.2-.8-.2-1.1-.1-3.5.7-3.5.7-3.3-2.7 0-.4 0-.9.1-1.3.5-1.6-.5-3.4 1-4.8 6.2-5.7 6.3-13.2 6.2-21.1-3.4 1.9-6.3 3.7-9.4 5.3-1.5.8-2.1 1.6-1.8 3.4.6 3.1-.8 6.3.4 9.9-3.2-3.6-.6-7.7-2.3-11-1.3.5-2.3.9-2.3 2.5 0 2.8-.2 5.6-.1 8.4.1 4 1.8 5.4 5.8 5.2.3 4.6.3 9.2-4.3 12.4 0 .1-.1.2-.2.3h.3c-.1-.1-.1-.2-.1-.3zM503.1 267.2c-.5 10.6-1.4 20.5-1.3 30.4 0 5.7-2.1 8.6-7 11-6 3-11.6 6.7-17.4 10.1-.6.3-1.2 1.1-1.9.6-.7-.4-.3-1.3-.3-2 .4-11.2.9-22.4 1.3-33.6 0-.9-.1-1.7 1-2.3 8.4-4.5 16.7-9.2 25.6-14.2zm-11 35c-1.8 1.9-4 3.1-6.5 3.8-.3-4.8.3-9.5.4-14.2 0-1.5.1-2.9 1.8-3.5.9-.3.8-.9.4-1.7-1-1.9-1.9-3.8-3-6.1-1.5 4-2.8 7.5-4.2 11.3 2.3-.6 2.3-.6 2.3 1.4-.2 3.9-.4 7.9-.5 11.8 0 .9-.4 2.1 1.2 2-2.1 1.7-5.1 3-3.4 6.8 4.8-2.8 9.6-5.6 14.4-8.5 1.6-1 1.2-2.8 1-4.2-.2-1.5-1.2.4-1.9-.1-.3-4.8.3-9.6.4-14.4 0-1.4.1-2.7 1.7-3.3.9-.3.9-1 .5-1.7-.9-1.9-1.8-3.7-3-6-1.5 4-2.8 7.5-4.1 11.1 2.3-.4 2.3-.4 2.2 1.7-.2 4-.4 8.1-.6 12.1.2.7-.2 1.5.9 1.7z"/><path class="st10" d="M450.6 355.6c0-.5.1-.9.6-1.1l.5-.5c2.5-1.3 4.7-3.4 7.2-4 0 4.2.1 8.5 0 12.8-.1 2.2-.2 2.2-2.2 1.4-.2-.1-.6 0-.7.1-.6.9-.3 1.8.2 2.5.6.9 1.2.4 1.8-.1 1.4-1.2 1.9-2.8 2-4.5.2-3.7.3-7.4.4-11 0-1.3.1-2.2 1.4-3.2 1.8-1.4 4.1-1.9 5.5-3.7 1.3 2.1 1.9-.1 2.8-.5.6-.3.9-1.3 1.7-.8.6.4.2 1.2.3 1.7.3 2-.7 4.1.6 6 0 .7-.1 1.4-.1 2.1-1.2.3-1.3.8-.4 1.6 0 1.6-.1 3.2-.1 4.8-.2.2-.4.4-.6.7-8 5.2-16 10.5-24.4 15.1-1.2-.7-.7-1.9-.9-2.9-.3-1.8.6-3.7-.6-5.4-.1-.1-.1-.3-.1-.4 0-.6 0-1.2.1-1.8 0-.2 0-.3.1-.5 1.3-.2 1-1.2 1-2.1v-8c0-.7-.2-1.6.8-1.7.9-.1 1.2.6 1.3 1.4.2 1.3.7 2 1.8 2 .1.4.1.8.6.8.1 0 .2-.1.2-.2 0-.5-.4-.5-.8-.6zM497.5 331.8c2.3-.4 1.1 2.1 2.2 2.8 0 .7 0 1.4-.1 2.1-.8.1-1.3.4-.4 1.1 0 1.4-.1 2.8-.1 4.3-.5.3-.5.7-.5 1.2l-21.9 13.8c-.3.2-.7.1-1 .2-2 .1-.8-2.2-1.9-2.8 0-.7 0-1.4.1-2.2 1.6-.4.9-1.7 1-2.6.4-2.6-.8-5.3.7-7.7 2.5-1.1.2 1.6 1.5 1.6.6-1.2 1.3-2.6 2-3.9 1.1 1.1.1 2.9 1.3 4 .9.8.8 2.1 1.2 3.2 1.6-1.7 1.4-4.1 3.1-5.4.6 0-.6 1.9 1 1 .9-.6 1.8-1.3 2.7-1.7 1.9-.8.9-1.7.3-2.9-.8-1.6-1.6-.7-2.4-.2-.2-1.3.6-2.2 1.4-3.5 1.2 1.7 2.3 3.2 3.5 4.6.4.5.5 1.4 1.2 1.2.8-.3.6-1.1.4-1.8.8-.5.5-1.2.5-1.9.2-.1.3-.2.5-.3 1.8-.3 1-1.7 1.2-2.7.2-1-.5-2.4 1.2-2.7.3.4.6.7.9 1.1.1.2.1.6.2.6.3.2.1-.2.2-.5z"/><path class="st11" d="M445.7 366.9c1.2 1.7.3 3.6.6 5.4.1 1-.4 2.2.9 2.9-1.3 1.2-2.1 1.3-1.9-.8.1-2.5.2-5 .4-7.5zM473.8 354.5c1.1.6-.1 2.8 1.9 2.8-.6.6-1.5 1.6-2.2.8-.8-1-.1-2.4.3-3.6z"/><path class="st12" d="M474.2 342c.1.7.3 1.4-.3 2.1-1-.5-.5-1.3-.6-2 .3 0 .6-.1.9-.1z"/><path class="st11" d="M472.2 354.6c-.9-.8-.8-1.4.4-1.6.1.5.3 1.2-.4 1.6zM499.2 337.9c-.9-.8-.4-1 .4-1.1.1.4.1.8-.4 1.1zM498.6 343.3c0-.5 0-.9.5-1.2.2.6.1 1-.5 1.2zM471.5 360.1c.2-.2.4-.4.6-.7 0 .4-.2.6-.6.7z"/><path class="st7" d="M512 116.6c0 .7-.3 1.1-1 1 0-.7.3-1 1-1zM509.9 118.8c-.2.5-.6.5-1 .5.2-.4.5-.6 1-.5z"/><path class="st12" d="M504 124.2c-.2.5-.7.6-1.2.6.3-.5.7-.7 1.2-.6zM492.1 134.9c-.2.5-.6.6-1.1.6.3-.4.6-.6 1.1-.6zM486.7 139.8c-.2.5-.7.6-1.2.6.3-.4.7-.7 1.2-.6zM480.3 145.7c-.2.5-.6.6-1.1.6.2-.5.6-.6 1.1-.6zM479.2 146.3l-.6.6.6-.6zM480.8 145.2l-.6.6.6-.6zM481.3 144.7l-.6.6c.3-.3.4-.5.6-.6zM481.9 144.1l-.6.6.6-.6zM482.4 143.6l-.6.6.6-.6zM483 143l-.6.6.6-.6zM483.5 142.5l-.6.6.6-.6zM484 142l-.6.6c.3-.3.4-.5.6-.6zM484.6 141.4l-.6.6.6-.6zM485.1 140.8c-.2.2-.4.5-.6.7.2-.3.4-.5.6-.7zM487.3 139.3l-.6.6c.2-.3.4-.5.6-.6zM487.8 138.7l-.6.6.6-.6zM488.3 137.9c-.2.3-.4.5-.6.8.3-.2.5-.5.6-.8zM489.4 137.1c-.3.2-.5.4-.8.6.3-.2.6-.4.8-.6zM490 136.6l-.6.6c.2-.3.4-.4.6-.6zM490.5 136l-.6.6.6-.6zM491.1 135.5l-.6.6.6-.6zM492.7 134.4l-.6.6.6-.6zM493.2 133.9l-.6.6c.2-.3.4-.4.6-.6zM493.7 133.3l-.6.6c.3-.2.5-.4.6-.6zM494.3 132.6c-.2.3-.4.5-.6.8.2-.3.4-.6.6-.8zM500.8 126.9c-.3.2-.5.4-.8.6.3-.3.5-.5.8-.6zM501.3 126.3l-.6.6.6-.6zM501.8 125.8l-.6.6c.3-.3.5-.4.6-.6zM502.4 125.1c-.2.2-.4.4-.6.7.2-.2.4-.4.6-.7z"/><path class="st12" d="M504.5 123.6l-.6.6c.3-.2.4-.4.6-.6zM505.1 123.1l-.6.6.6-.6zM505.6 122.3c-.2.3-.4.5-.6.8.2-.3.4-.5.6-.8z"/><path class="st7" d="M510.4 118.3l-.5.5.5-.5zM511 117.7l-.5.5c.1-.2.3-.3.5-.5z"/><path class="st12" d="M512.6 116.1l-.6.6.6-.6zM513.2 115.5l-.6.6.6-.6zM513.7 115l-.6.6.6-.6zM514.3 114.4l-.6.6.6-.6zM514.8 113.9l-.6.6.6-.6z"/><path class="st13" d="M291.3 347.9c2.1 4.1 4.2 8 6.2 11.9-.4.2-.5.4-.7.3-3.3-.7-3.3-.7-3.3 2.7 0 3.8.1 7.5 0 11.3 0 .8.9 2.6-.8 2.4-1.4-.2-3.6 0-3.6-2.7 0-4.6-.2-9.2-.1-13.7 0-1.8-.3-3-2.2-3.3-1.4-.2-1.8-.9-.8-2.1 1.8-2.2 3.4-4.4 5.3-6.8zM304.4 381c-.9-.7-1.3-1.5-1.3-2.7.1-4.5-.1-9 .1-13.5 0-1.8-.3-2.9-2.3-3.3-1.5-.3-2-.9-.8-2.3 1.5-1.8 2.9-3.6 4.3-5.5.8-1.1 1.3-.9 1.8.2 1.8 3.5 3.6 7 5.4 10.6l-.3.3c-3.6-1-3.6-1-3.6 2.8s-.1 7.7.1 11.5c.1 1.9-.5 2.5-2.3 2.3-.1-.7-.6-.5-1.1-.4zM305.4 381.5c.4.8 1.3.8 2 1.1 4.4 1.4 4.4 1.4 3.7 6.4-8.2-2.8-16.3-5.5-24.4-8.5-2.6-1-.8-3.4-1.3-5.4 5.6 1.9 10.8 3.7 16.1 5.4.9.3 1.8 1 2.8.5.1.8.7.6 1.1.5z"/><path class="st13" d="M311.6 364.6v.6c-.1-.1-.2-.2-.4-.2l.4-.4zM308.7 425.2h-1.4c-.2-.4-.5-.8-.7-1.1-.3-.5-.7-1-1-1.6-.2-.5-.3-1.1-1-1.2v-.1c-1.1-3.1-3.3-5.6-4.9-8.4-.5-.8-.9-.6-1.5-.1-2 1.8-4.1 3.6-6.1 5.5-.7.3-1.2 1.6-2.1.3-1.2-1.6.8-1.8 1.1-2.7 1.9-1.6 3.8-3.2 5.6-4.8 1.2-1 1.6-1.9-.3-2.5.4-1.1-.2-1.7-1.1-2.2 0-.4 0-.7-.5-.5.3-.6.1-1-.5-1.1.1-.4.1-.8-.5-.5-.5-3.2-3.1-5.3-4.4-8.1.1-.2.1-.3.2-.5.3-.2.7-.3 1-.5.3.4.7.8 1 1.2.2.3.3.6.5.9.4.6.7 1.2 1.1 1.8l.9 1.5c.2.3.3.7.8.5-.2.9-.1 1.6 1.1 1.6-.4 1.1.3 1.7 1.1 2.2 0 .4 0 .8.6.6-.2.9-.1 1.6 1.1 1.6.5 2 .6 2 1.9.9 1.7-1.5 3.4-3.1 5.1-4.7.4-.3.7-.5 1.1-.8.5-.4.9-1.2 1.7-.2.7.9.4 1.4-.3 2-2.2 1.9-4.3 3.8-6.5 5.7-1.2 1-1.4 1.8.2 2.5-.2.6 0 .9.6 1.1 0 .4 0 .7.6.6-.3.6-.1 1 .5 1.1 0 .4 0 .8.5.5-.2.9-.1 1.6 1.1 1.6-.1 2.2 1.9 3.4 2.6 5.2 0 .8 1.2 1.4.8 2.7zM316 410.5c.2 2.1-.4 3.9 1.9 4.8 1.3.5.4 3.7-1.1 4.1-1.4.4-.2 1.8-1.2 2.6-1.4-2.1-2.8-4.2-4.3-6.3-.5-.7-.3-1.1.3-1.6 1.3-1.1 2.7-2.2 4.4-3.6zM285.8 407.3c-.8.7-1.7 1.3-2.5 2l-.8.8c-.2-.2-.4-.3-.7-.5.4-1.7.6-3.1-1.7-3.7-.9-.2-.8-4.3 0-4.2 2.2.2 2-1.3 2.2-3.2 1.6 2.5 2.8 4.5 4.2 6.4 1 1.3-.2 1.7-.7 2.4z"/><path class="st13" d="M303.3 402.8c0 .1.1.2.2.3-1.5 1.4-2.4 3.7-5 3.7-.1-.8-.3-1.4-1.1-1.6 0-.4 0-.7-.6-.6.3-1.1-.3-1.7-1.1-2.2 0-.8-.3-1.4-1.1-1.6v-.6c2.8-.1 4.9 1.8 7.6 2.1.4.3.7.4 1.1.5zM296.3 408.5c.3 2.8-2.6 2.7-4 4.9v-9.9c.6-.4.7.9 1.3.7-.1.4-.1.8.5.5-.3.6-.1.9.5 1.1-.1.4-.1.8.5.5-.3 1.1.4 1.7 1.2 2.2zM309.9 414.1c0 2 .1 3.9 0 5.9 0 .6.5 1.9-.8 1.8-1-.1-.9-1.2-.9-1.9v-8.3c0-1.3-.1-2.5 0-3.8.1-.7-.5-1.9.8-1.8 1.1.1.8 1.2.8 1.9.1 2.1.1 4.1.1 6.2zM289.8 414.9c-.5-.3-1-.7-1.6-1 0-4.5 0-8.9.1-13.4 0-.6-.4-1.7.7-1.6.9 0 .9.9.9 1.6 0 4.8-.1 9.6-.1 14.4zM301.7 412.3c0-2.6 2.7-2.7 3.7-4.4.2.1.5.2.7.2v8.7c0 1.1-.7.3-1.1.3 0-.8-.3-1.4-1.1-1.6 0-.4 0-.7-.5-.5.3-.6.1-.9-.5-1.1 0-.4-.1-.7-.6-.6.2-.5 0-.9-.6-1z"/><path class="st2" d="M298.4 406.8c2.6 0 3.5-2.3 5-3.7h2c-1.7 1.6-3.4 3.1-5.1 4.7-1.3 1.1-1.3 1-1.9-1zM293 398.9c-.4-.6-.7-1.2-1.1-1.8 1.3.1 1.2 1 1.1 1.8zM291.4 396.3c-.3-.4-.7-.8-1-1.2v-.1c.8.1 1.1.6 1 1.3zM303.3 402.8c-.3-.1-.7-.2-1-.3.5-.6.8-.3 1 .3zM289.3 395.6c-.1.2-.1.3-.2.5-.2-.1-.4-.2-.6-.4.4 0 .6-.1.8-.1zM290.3 395l-.2-.2c.1.1.2.1.2.2.1 0 0 0 0 0zM294.7 400.4v.6c-.5.2-.6-.2-.8-.5.3-.1.5-.1.8-.1z"/><path class="st13" d="M257 404.7v2.7c.1.6.1 1.2.2 1.7-.6 1.3-1 2.9-2.9 2.4-2.1-.5-3.3-2.1-3.7-4.2-.1-.4-.1-.9.5-1 .5-.1.8.3.9.8.2.5.3 1 .5 1.5.4.7.9 1.1 1.7 1 1-.2.9-1 .9-1.7 0-4.2-.1-8.4-.1-12.7 0-.9-.7-1-1.3-1.5-2.4-1.7-5.5-1.3-7.8-3.1-.9-.5-1.8-.9-2.7-.1-.2 0-.4.1-.5.1.7-3.3 3.9-6 7.6-6.5 1.6-.2 3.3.4 5-.3 1.1-.5 1.5 1.6 2.7 2.2 4.8 2.6 8 6.8 10.2 11.8.1.3.2.7.3 1 0 .1-.1.1-.2.2-3.7-1.6-7.6-2.7-11.5-3.8.2 3.2.2 6.4.2 9.5z"/><path class="st7" d="M243.4 390.6c.9-.9 1.8-.4 2.7.1-.9.8-1.8.8-2.7-.1zM257.2 409.1c-.1-.6-.1-1.2-.2-1.7 1.4.5 1.2 1.1.2 1.7z"/><path class="st13" d="M263.2 370.9c-5.6-1.8-11.1-3.7-16.7-5.5 0-.2.1-.4.1-.6 1.6.1 3.3.2 4.9.4 1.2.1 1.6-.3 1.6-1.5-.1-2.2-.1-4.5-.1-6.7 0-.7-.2-1.2-.8-1.5-3.5-1.8-5.8-4.7-7.8-7.9-1.6-4.1-1-8.3-1.1-12.5 0-.5 0-1.2.8-1.1 1 .1 2.4.2 2.6 1.1.4 1.9 1.9 3.3.8 5.8-.8 1.8 1.1 4.3 2.2 6.3-.8-3.8.8-7.6-1.2-11.9 4 1.3 7.4 2.4 10.7 3.5 2.4.8 5.5 1.1 6.9 2.7 1.4 1.7.4 4.8.5 7.3.1 6.3-2.1 8.5-8.5 8.5-.4 0-1.1-.2-1 .4.2 3-.8 6 .6 8.9l.2-.1c0 .8.6.9 1.2 1 1.5 1 2.9 2 4.4 3.1l-.3.3z"/><path class="st2" d="M259 367.6c-.6-.1-1.2-.2-1.2-1 .9-.3 1.2.2 1.2 1z"/><path class="st13" d="M263.4 370.7c.3.2.7.4 1 .6-.5 0-.9.1-1.3-.3l.3-.3zM264.5 371.3l.1.1-.1-.2zM303.4 421.5l-8.7-3.3c1.1-1 2.2-2 3.3-3.1.7-.7 1.3-.9 1.8.1 1.1 2.2 2.8 4 3.6 6.3z"/><path class="st7" d="M303.4 421.5c-.8-2.3-2.5-4.1-3.6-6.2-.6-1.1-1.1-.8-1.8-.1-1.1 1.1-2.2 2.1-3.3 3.1H292c2-1.8 4.1-3.6 6.1-5.5.5-.5 1-.7 1.5.1 1.6 2.8 3.8 5.3 4.9 8.4-.3 0-.7.1-1.1.2zM304.5 421.3c.7.1.8.6 1 1.2-.7 0-1.2-.3-1-1.2zM306.6 424c.2.4.5.8.7 1.1-.6-.1-.7-.5-.7-1.1zM282.5 410.1l.8-.8c-.1.4-.3.7-.8.8z"/><path class="st13" d="M467.3 344.3c-1.5 1.7-3.8 2.2-5.5 3.7-1.3 1.1-1.4 2-1.4 3.2-.1 3.7-.2 7.4-.4 11-.1 1.8-.6 3.4-2 4.5-.6.5-1.3.9-1.8.1s-.7-1.7-.2-2.5c.1-.1.5-.2.7-.1 2 .8 2.1.8 2.2-1.4.1-4.3 0-8.6 0-12.8-2.5.6-4.6 2.7-7.2 4 .8-5 3.4-8.9 6.7-12.6 1.3-1.4 2.5-2.4 4.5-2.4 2.5 0 5.3 2.3 5.4 4.7 0 .8-.6.5-1 .6zM484.6 341.6c-1.7 1.3-1.5 3.7-3.1 5.4-.4-1.2-.2-2.4-1.2-3.2l.9-14.4c.1 0 .3 0 .4.1v11.6c0 .7-.8 1.8.2 2.1 1 .3.9-1.1 1.3-1.7.2-.4.3-.8.5-1.2.2-.4.4-.7.6-1.1.2-.4.3-.7.5-1.1.2-.5.5-1 .7-1.5.2-.6.9-1.1.5-1.8-.7.3-.8.9-.9 1.5-.2.5-.5 1-.7 1.5-.2.4-.3.7-.5 1.1l-.3.6c-1.1-2.6.2-5.2-.1-7.9 1.6.2 1.6 1.8 3 2.2-.3-3.3-4.6-4.7-4.1-8.5 1.5.6 1.5 2.2 2.8 2.4.1.7 0 1.4 1.1 1.1-.5.7-.2 1 .5 1.1-.2.5 0 .9.4 1.1.5.3.6-.1.8-.4.1-.4.3-.8.4-1.3.7-.4.8-1 .6-1.7 1.1-.4 1.1-1.3 1.1-2.2.6-.1.6-.6.6-1.1.9-1.8 1.7-3.6 2.7-5.6 1.1 1.4-.8 2.3-.1 3.4-1.4.8-1.4 2.3-1.9 3.5-.1.3-.2.5-.3.8-.5.2-.5.7-.5 1.1-.5.4-.7.9-.4 1.5.5-.3.5-.8.6-1.3.4-.3.5-.7.4-1.2.2-.2.4-.3.6-.5-.1 2.6-.1 5.3-.2 7.9 0 .5-.5.4-.8.4-.3-.4-.6-.8-1-1.2-.3-.3-.5-.6-.8-.8 0-.3 0-.8-.4-.7-.4.1-.4.6-.1 1 .2.3.5.7.7 1l.9 1.2c.9 1.2 1.7 2.3 2.6 3.5.2.7.4 1.6-.4 1.8-.7.2-.9-.7-1.2-1.2-1.1-1.5-2.2-3-3.5-4.6-.7 1.2-1.6 2.1-1.4 3.5-.7.1-.7.6-.6 1.1-.7.4-1 .9-.5 1.6-.7.1-.6.5-.4 1.1z"/><path class="st13" d="M497 331.8c-.3-.4-.6-.7-.9-1.1-.5-.6-.8-1.4-2-1.7-.1 2.4-.3 4.8-.4 7.1-.2.1-.3.2-.5.3-.9-.7-.4-1.7-.4-2.5.1-3.9.3-7.9.4-11.8.6-.2 1.2-.4 1.1.7-.1 1.7 0 3.4 0 5.3 1.9-1.6 1.9-4.2 3.3-5.9.9 2.2 2.1 4.2 1 6.6-2 .4-.7 1.9-1.1 2.9-.2.2-.3.2-.5.1zM479.1 339.8c-.7 1.3-1.4 2.7-2 3.9-1.3 0 1-2.7-1.5-1.6-.1-1.8-.5-3.6 1.2-5.1.5-.4.3-1.7.4-2.8 2.1 1.4 3.4 3 1.9 5.6zM485.1 327.6c.6-1.9 3.2-3.6 5-3.3-.2.4-.4.7-.1 1.1-1.1.4-1.1 1.3-1.1 2.2-.7.4-.8.9-.6 1.7-.5-.2-.5.2-.6.5-.4 0-.7 0-1.1.1.4-.6.1-1-.5-1.1 0-.8.1-1.6-1-1.2z"/><path class="st10" d="M498.6 328.9c.2.4.7.8.3 1.4-.5-.4-.2-.9-.3-1.4z"/><path class="st7" d="M483.5 339.3l.3-.6.4.4c-.2.4-.4.7-.6 1.1 0-.3-.1-.6-.1-.9zM490 325.4c-.2-.4-.1-.8.1-1.1.2 0 .3 0 .5.1-.1.4 0 .9-.6 1z"/><path class="st13" d="M451.7 354l-.5.5c.1-.2.1-.6.5-.5zM455.5 327c4.5-3.2 4.6-7.9 4.1-12.7-3.9.3-5.7-1.2-5.8-5.2-.1-2.8.2-5.6.1-8.4 0-1.5.9-2 2.3-2.5 1.7 3.3-.9 7.4 2.3 11-1.3-3.7.2-6.8-.4-9.9-.3-1.7.3-2.6 1.8-3.4 3.1-1.6 6.1-3.4 9.4-5.3.1 7.9 0 15.4-6.2 21.1-1.5 1.4-.6 3.2-1 4.8-.1.4-.1.9-.1 1.3-.1 3.4-.1 3.4 3.3 2.7.3-.1.7-.1 1.1.1-3.7 2.2-6.8 5.2-10.9 6.4zM455.4 327c0 .1 0 .2.1.4h-.3c.1-.2.2-.3.2-.4.1 0 0 0 0 0zM484.1 307c-1.6.1-1.2-1.1-1.2-2 .2-3.9.3-7.9.5-11.8.1-2 .1-2-2.3-1.4 1.4-3.7 2.7-7.3 4.2-11.3 1.1 2.3 2 4.2 3 6.1.4.8.5 1.4-.4 1.7-1.7.6-1.8 1.9-1.8 3.5-.1 4.7-.7 9.5-.4 14.2-.6-.2-.9.1-1.1.6-.4-.1-.7-.1-.5.4zM492.1 302.2c-1.2-.2-.7-1-.7-1.6.2-4 .4-8.1.6-12.1.1-2.1.1-2.1-2.2-1.7 1.3-3.6 2.6-7.1 4.1-11.1 1.1 2.3 2 4.2 3 6 .4.8.4 1.4-.5 1.7-1.6.6-1.7 1.9-1.7 3.3-.1 4.8-.7 9.6-.4 14.4-.7-.5-1-.1-1.1.6-.5-.3-.9-.1-1.1.5zM494.3 301.2c.6.5 1.7-1.4 1.9.1.2 1.4.6 3.2-1 4.2-4.8 2.9-9.7 5.7-14.4 8.5-1.7-3.9 1.3-5.1 3.4-6.8.4 0 .9.1.6-.6.7.5 1 .1 1.1-.6 2.5-.7 4.7-1.9 6.5-3.8.6.3 1 .2 1.1-.6.3.3.6.1.8-.4z"/><path class="st11" d="M450.6 355.6c.4.1.9.1.8.6 0 .1-.1.2-.2.2-.6.1-.5-.4-.6-.8zM493.2 322.1c-.2 3.9-.3 7.9-.4 11.8 0 .8-.5 1.8.4 2.5 0 .7.2 1.4-.5 1.9-.9-1.2-1.7-2.3-2.6-3.5.2-.2.4-.3.6-.5.4.1.8.1.8-.4.1-2.6.1-5.3.2-7.9l-.4-.4c.5-1.1.5-2.7 1.9-3.5z"/><path class="st13" d="M486.2 337.8c.8-.5 1.6-1.4 2.4.2.6 1.2 1.5 2-.3 2.9-1 .4-1.8 1.1-2.7 1.7-1.5.9-.4-.9-1-1 .8 0 .7-.5.5-1.1.8-.3 1.1-.9.5-1.6.9 0 1-.5.6-1.1z"/><path class="st11" d="M493.7 336.2c.1-2.3.3-4.7.4-7.1 1.2.3 1.5 1.1 2 1.7-1.7.3-1 1.7-1.2 2.7-.3.9.6 2.4-1.2 2.7zM497 331.8h.5c-.1.2.1.6-.3.6-.1.1-.1-.3-.2-.6z"/><path class="st2" d="M305.5 381.5c-.5.1-1.1.2-1.1-.6.5 0 1-.2 1.1.6zM295.7 402.5c.8.5 1.4 1.1 1.1 2.2-.8-.5-1.5-1.1-1.1-2.2z"/><path class="st7" d="M296.3 408.5c-.8-.5-1.5-1.1-1.1-2.2.9.5 1.5 1.1 1.1 2.2z"/><path class="st2" d="M297.4 405.2c.8.3 1.1.9 1.1 1.6-1.2.1-1.3-.7-1.1-1.6zM294.7 400.9c.8.3 1.1.9 1.1 1.6-1.2.1-1.3-.7-1.1-1.6z"/><path class="st7" d="M303.8 415.5c.8.2 1.1.8 1.1 1.6-1.2 0-1.3-.7-1.1-1.6zM302.8 413.9c.6.2.8.5.5 1.1-.6-.2-.8-.5-.5-1.1zM301.7 412.2c.6.2.8.5.6 1.1-.7-.1-.8-.5-.6-1.1zM294.7 405.8c-.7-.1-.9-.4-.5-1.1.6.1.8.5.5 1.1zM294.1 404.7c-.6.2-.6-.1-.5-.5.6-.3.6.1.5.5z"/><path class="st2" d="M296.8 404.7c.6-.2.6.2.6.6-.6.2-.6-.2-.6-.6z"/><path class="st7" d="M295.2 406.3c-.6.3-.6-.1-.5-.5.5-.2.5.1.5.5zM302.2 413.3c.5-.1.6.2.6.6-.6.2-.6-.2-.6-.6zM303.3 415c.5-.2.6.2.5.5-.5.2-.5-.1-.5-.5zM488.9 327.6c0-.9 0-1.8 1.1-2.2 0 .9 0 1.8-1.1 2.2z"/><path class="st11" d="M485.1 327.6c1-.3 1 .4 1.1 1.1-1.1.3-1-.5-1.1-1.1zM486.7 329.7c.4 0 .7 0 1.1-.1 0 .3.1.5.1.8-.2.3-.3.7-.8.4-.3-.2-.6-.6-.4-1.1zM489.8 333.1c.3.4.6.8 1 1.2-.2.2-.4.3-.6.5l-.9-1.2.5-.5z"/><path class="st7" d="M485 336.1c.1-.6.3-1.2.9-1.5.4.8-.3 1.2-.5 1.8-.2-.1-.3-.2-.4-.3zM488.3 329.2c-.3-.7-.1-1.3.6-1.7.2.7.1 1.3-.6 1.7z"/><path class="st11" d="M490.7 327.8c-.1.5-.1 1-.6 1.3-.3-.6-.1-1.1.4-1.5.1 0 .1.1.2.2z"/><path class="st7" d="M485.4 336.4c-.2.5-.5 1-.7 1.5-.1-.1-.3-.2-.4-.3.2-.5.5-1 .7-1.5.1.1.2.2.4.3z"/><path class="st10" d="M485.7 338.9c.5.8.2 1.3-.5 1.6-.5-.7-.2-1.2.5-1.6z"/><path class="st7" d="M483.7 338.6c.2-.4.4-.7.5-1.1.1.1.3.2.4.3-.2.4-.3.7-.5 1.1-.1 0-.2-.1-.4-.3z"/><path class="st10" d="M486.2 337.8c.4.6.3 1.1-.6 1.1-.1-.5-.1-1 .6-1.1z"/><path class="st11" d="M489.2 333.7c-.2-.3-.5-.7-.7-1 .2-.1.3-.2.5-.3.3.3.5.6.8.8-.2.1-.4.3-.6.5zM488.5 332.6c-.3-.4-.3-.9.1-1 .3-.1.3.4.4.7-.2.1-.3.2-.5.3z"/><path class="st7" d="M487.9 330.4c0-.3-.1-.5-.1-.8.1-.3.1-.7.6-.5-.2.5-.3.9-.5 1.3z"/><path class="st10" d="M485.1 340.5c.2.5.3 1-.5 1.1-.2-.6-.3-1 .5-1.1z"/><path class="st11" d="M486.2 328.6c.6.1.9.4.5 1.1-.7-.1-1-.3-.5-1.1zM491.1 326.6c.1.5 0 .9-.4 1.2l-.2-.2c0-.4 0-.9.5-1.1l.1.1z"/><path class="st11" d="M491.7 326.1c-.2.2-.4.3-.6.5l-.1-.1c.1-.3.2-.5.3-.8l.4.4zM485.7 306c-.1.7-.4 1-1.1.6.2-.6.5-.8 1.1-.6z"/><path class="st11" d="M484.6 306.5c.3.7-.2.6-.6.6-.1-.6.2-.6.6-.6zM493.2 301.7c-.1.7-.5.9-1.1.6.2-.7.6-.9 1.1-.6zM494.3 301.1c-.2.6-.6.8-1.1.6.1-.6.4-1.1 1.1-.6z"/></svg>