<svg width="256" height="335" xmlns="http://www.w3.org/2000/svg" preserveAspectRatio="xMidYMid"><defs><linearGradient x1="26.8242921%" y1="48.2236445%" x2="67.5758137%" y2="55.339338%" id="a"><stop stop-color="#FF6533" offset="0%"/><stop stop-color="#FF5633" offset="15.7%"/><stop stop-color="#FF4333" offset="43.4%"/><stop stop-color="#FF3733" offset="71.4%"/><stop stop-color="#F33" offset="100%"/></linearGradient><linearGradient x1="20.4503837%" y1="38.1333935%" x2="93.4858428%" y2="80.4322382%" id="b"><stop stop-color="#BF3338" offset="0%"/><stop stop-color="#F33" offset="100%"/></linearGradient><linearGradient x1="32.2926113%" y1="39.496861%" x2="45.5563705%" y2="48.9139013%" id="c"><stop stop-color="#FF6533" offset="0%"/><stop stop-color="#FF5633" offset="15.7%"/><stop stop-color="#FF4333" offset="43.4%"/><stop stop-color="#FF3733" offset="71.4%"/><stop stop-color="#F33" offset="100%"/></linearGradient><linearGradient x1="51.5641026%" y1="78.3444231%" x2="48.5176441%" y2="41.6628279%" id="d"><stop stop-color="#FF6533" offset="0%"/><stop stop-color="#FF5633" offset="15.7%"/><stop stop-color="#FF4333" offset="43.4%"/><stop stop-color="#FF3733" offset="71.4%"/><stop stop-color="#F33" offset="100%"/></linearGradient><linearGradient x1="40.2012262%" y1="47.2148639%" x2="53.9750044%" y2="54.5349876%" id="e"><stop stop-color="#FBB040" offset="0%"/><stop stop-color="#FB8840" offset="100%"/></linearGradient><linearGradient x1="55.2222794%" y1="5.88782542%" x2="40.9262994%" y2="128.016462%" id="f"><stop stop-color="#FFF" offset="0%"/><stop stop-color="#FFF" stop-opacity="0" offset="100%"/></linearGradient></defs><path d="M256 110.132723c0-19.6832951-5.155149-38.1363843-14.23524-54.1290617-24.076888-24.7798627-76.448513-30.5208238-89.453547-.1171624-13.356522 31.1652173 22.436613 65.8453091 38.077803 63.0919911 19.91762-3.514874-3.514874-49.2082383-3.514874-49.2082383 30.462242 57.4096113 23.432494 39.8352403-31.633867 92.5583523-55.066362 52.723112-111.3043482 163.968879-119.5057212 168.655378-.3514874.234325-.7029749.410068-1.1130435.585812H250.610526c3.807781 0 6.268193-4.042105 4.569337-7.439817l-56.472312-111.772998c-1.230205-2.40183-.351487-5.389473 1.991763-6.736842C233.73913 186.639817 256 151.022426 256 110.132723z" fill="url(#a)"/><path d="M256 110.132723c0-19.6832951-5.155149-38.1363843-14.23524-54.1290617-24.076888-24.7798627-76.448513-30.5208238-89.453547-.1171624-13.356522 31.1652173 22.436613 65.8453091 38.077803 63.0919911 19.91762-3.514874-3.514874-49.2082383-3.514874-49.2082383 30.462242 57.4096113 23.432494 39.8352403-31.633867 92.5583523-55.066362 52.723112-111.3043482 163.968879-119.5057212 168.655378-.3514874.234325-.7029749.410068-1.1130435.585812H250.610526c3.807781 0 6.268193-4.042105 4.569337-7.439817l-56.472312-111.772998c-1.230205-2.40183-.351487-5.389473 1.991763-6.736842C233.73913 186.639817 256 151.022426 256 110.132723z" fill="url(#b)"/><path d="M35.7345538 330.983982c8.201373-4.686499 64.4393592-115.990847 119.5057212-168.713959 55.066361-52.723112 62.096109-35.148742 31.633867-92.5583525 0 0-116.5766592 163.4416475-158.7551489 244.2837525" fill="url(#c)"/><path d="M52.1372998 184.530892C130.870481 39.776659 141.180778 25.1899314 182.187643 25.1899314c21.557895 0 43.291533 9.7244851 57.35103 27.0059496C220.382609 21.3235698 186.464073.6443936 147.624714.05858124H13.8837529c-2.8118994 0-5.09656755 2.28466819-5.09656755 5.0965675V274.745995c7.96704805-20.562013 21.49931355-49.969794 43.35011445-90.215103z" fill="url(#d)"/><path d="M155.240275 162.270023c-55.066362 52.723112-111.3043482 164.02746-119.5057212 168.713959-8.201373 4.686499-21.9679634 5.272311-29.29061787-2.929062-7.79130435-8.728604-19.91762013-22.846682 45.69336387-143.524028C130.870481 39.776659 141.180778 25.1899314 182.187643 25.1899314c21.557895 0 43.291533 9.7244851 57.35103 27.0059496.761556 1.230206 1.523112 2.5189931 2.284668 3.8077803-24.076888-24.7798627-76.448513-30.5208238-89.453547-.1171624-13.356522 31.1652173 22.436613 65.8453091 38.077803 63.0919911 19.91762-3.514874-3.514874-49.2082383-3.514874-49.2082383 30.403661 57.3510293 23.373913 39.7766593-31.692448 92.4997713z" fill="url(#e)"/><path d="M58.5812357 190.974828C137.314416 46.220595 147.624714 31.6338673 188.631579 31.6338673c17.750114 0 35.617391 6.6196796 49.208238 18.5702517-14.059497-16.0512586-34.914417-25.0141876-55.652174-25.0141876-41.006865 0-51.317162 14.5867276-130.0503432 159.3409606C-13.4736842 305.208238-1.34736842 319.326316 6.44393593 328.05492c1.11304348 1.230206 2.40183066 2.284668 3.74919907 3.163387-6.85400457-9.95881-9.90022882-33.098399 48.3881007-140.243479z" fill="url(#f)" opacity=".3"/></svg>