<svg xmlns="http://www.w3.org/2000/svg" width="128" height="267"><path d="M39.3 89A10 10 0 0040 91a3.9 3.9 0 01-.6-1.8zm2.9-15.4a38.2 38.2 0 017.3-11.2c-.7-2.2-7.1-5.5-3.3-7.6 2-1.1 4 .7 4.5 2.7a8.2 8.2 0 01-.6 4.3l3-3a159 159 0 014.2-3.7c-2.4-2.3-4.6-8.6-1.4-9.7 4.8-1.5 2.5 7.2 2.1 8.8a.3.3 0 01-.2 0l.1.4 8.4-7.1a12.4 12.4 0 01-1-1.3 13.9 13.9 0 01-1.8-2.6c-.8-1.6-1.5-4 .5-4.9 2.2-1 3.3 1.8 3.3 3.4a21.6 21.6 0 01-.5 3.4c0 .3.2 1.9-.3 1.2a3.4 3.4 0 010 .6l1.5-1.4a.6.6 0 010-.2.6.6 0 01.7-.5l2-1.8a274.7 274.7 0 004-4c-.4-.3-.3-.7-.5-1s-.8-.3-1.1-.6a7.6 7.6 0 01-2-2.3c-.8-1.5-1.8-4.5.5-5.2 2.4-.7 3.6 2.2 3.7 4A45.8 45.8 0 0175 39a128 128 0 007-8 8.5 8.5 0 01-2.9-1.6c-.9-1-2.4-3-.7-4 1.4-.9 3.2.4 3.8 1.8a18.2 18.2 0 01.5 3 70.8 70.8 0 002.6-3.4l1.5-2.4a1 1 0 01-.3-.3c-2.4-.4-5.5-4.1-2.7-5.4 1.4-.6 2.8.6 3.5 1.7a13.7 13.7 0 01.5 2.1 44.5 44.5 0 003.2-8.4.5.5 0 01-.4-.5 7.2 7.2 0 01-3-2.5c-.4-.8-1.4-2.6.1-3 2-.6 3.2 2.4 3.4 3.8V13a.7.7 0 01.2 0c.4-1.8.8-3.6 1-5.4-1-.4-1.2-5.9-.5-6.7 1.6-1.7 2.7.8 2.6 2.2a8.8 8.8 0 01-1.7 4.3v-.1a.4.4 0 01-.1.2 23.7 23.7 0 010 2.4 55.6 55.6 0 01-.7 6.3l-.3 1.5a12.4 12.4 0 012.5-1.5c1.1-.5 3-1 4-.2a2 2 0 01.3 2.9c-1 1-2.6 1-4 .9-.5 0-3.6-.3-2.8-.8a2.5 2.5 0 00-.3.1l-.2.8a27.9 27.9 0 01-3.2 6.8 6.7 6.7 0 011.6-.4c1.6-.2 5 1 3.2 3.2-1.8 2-4.4-.2-6.4-.5a90.9 90.9 0 01-6.2 7.6.5.5 0 01.3.3 13 13 0 012.6-1.3c1.2-.2 3.6-.4 4.5.7 1.1 1.2 0 2.3-1.4 2.5-1.8.4-4.3-.5-6-1.1a.6.6 0 01-.6-.2h-.2a222 222 0 01-6.8 7h.1a6.3 6.3 0 012-.9 5.3 5.3 0 014.7.8 3 3 0 01.5 4.4c-2.7 2.6-6.7-3.3-8-3.5-2.4 2.3-4.8 4.4-7.3 6.5a4.5 4.5 0 01.8-.2c2.5-.2 8.2 2.8 5.2 5.7-2.6 2.6-5.6-2.4-7.7-4-2.4 1.9-4.8 3.8-7 5.9a6.8 6.8 0 013.7 0c1.4.4 3.7 1.4 2.8 3.3-.9 1.9-3.6 1-5 .4a38 38 0 00-3.6-1.9 45.9 45.9 0 00-9.3 11.7 39.9 39.9 0 00-3.5 8.8c-.5 2-1.5 5.2-1.3 7.8-1-5 .8-11.2 2.7-15.7zM92.6 10c.2 0 .8-2.1 1-2.4a6.8 6.8 0 012.6-2c1.6-.9 3.8 0 2.9 2.1-.7 1.7-2.9 2.2-4.8 2.3a24 24 0 01-1.7 0z" fill="#c1dee2" opacity=".2"/><g opacity=".5"><path d="M81.6 74.6C83.5 72 87 65 89.8 64c1.7-.6 1.2 6 1.2 7.2a104.4 104.4 0 01-1 14.4c-1 8.6-4.4 16.2-9 23.6a29.8 29.8 0 01-9.2 10c-1.8 1-4 1.2-5.8 2.1-2 1.1-.9.2-1.8 2.4-1.3 3-1.7 6.9-2.3 10-2.8 14.7-9.5 92.3-8.3 107.2.1 1.4-1.7 1.7-1.8 0-.5-8.5 3.7-67.8 5.8-87.2s4.3-36.5 6.5-43.3c2.6-8.1 7.4-17.9 11.4-25.5a90.3 90.3 0 016-10.2z" fill="#69a1ac"/><path d="M95.9 169.8c5-3.7 10.4 3.2 5.8 6.9a4.5 4.5 0 01-6.6-.4l-2.7 3.4a169.4 169.4 0 00-7.4 9.7c-5 6.8-9.2 14-13.6 21.1-4.3 7-8.6 14-12.6 21.2-3.3 6-7.8 13.2-9 19.9 1.8-14.2 8.4-27.7 16.3-40.2a141.7 141.7 0 0128.7-35.6 4.3 4.3 0 011-6z" fill="#c1dee2"/><path d="M.9 135.3c2.8.6 7.4 6.9 9.7 9.3a90.4 90.4 0 017.5 9.1 154.4 154.4 0 0113.5 22 203.3 203.3 0 0114.9 38.8 160.2 160.2 0 014.5 25.4c.2 1.6 1.9 14-.6 14.4-2.2.3-1.5-9.4-1.6-10.8A172.1 172.1 0 0039 200c-1-3-2-6.8-3.8-9.5-1.2-2 0-1.3-2.2-2.1-1.9-.6-4-.5-6-1.3-4.1-1.7-7.5-5-10.4-8.4a56.4 56.4 0 01-12.7-22 105.7 105.7 0 01-3.1-14c-.2-1.3-1.7-7.6 0-7.3z" fill="#69a1ac"/><path d="M12 29.9a253.8 253.8 0 0124.7 58.7c3.4 12.4 5.8 25 8.2 37.6a436 436 0 018 58.7c1 20 3 43-3.5 62 3.2-19.4.1-40.1-.4-59.7-.3-9.4-1-18.6-2-28-1-9-2.6-18-4-26.9l-2.3-13c-.2-1.3-.3-5.2-1.2-6s-5-1.3-6.3-2a34.3 34.3 0 01-7.4-5.2 59.2 59.2 0 01-11-13.6 73.6 73.6 0 01-9.3-38.2c0-2.6 4.1-30 2.5-30.3l.3-.4 3.6 6.3z" fill="#89c5cc"/><path d="M125.8 95.9c.2-.3 1.2-1.9.7-1.8 1-.2-1.5 1.8 1.2.6-1.3 1.2-.5 2.8-.5 4.4a39.6 39.6 0 01-1 7.9 54 54 0 01-3.6 11.9 53.4 53.4 0 01-17.5 21.5c-3.7 2.6-7.4 3.5-11.6 4.6-2.7.8-2.9 2.2-4.3 4.8a287 287 0 00-8.4 16.3 570 570 0 00-9 20 320.7 320.7 0 00-21.5 71c0-14.5 3.3-29.3 7.5-43A256.6 256.6 0 0169 184.9c1-2.3 2.6-5.3 3-7.9.3-1.8-.6-3.5-1-5.4a56.5 56.5 0 01-.1-23c1.6-8 6.3-11.8 14.2-13 2.9-.4 6.6-.3 9.2-1.5 3-1.3 4.1-5.8 5.8-8.6a117 117 0 0115.7-21.3 51 51 0 015.3-5c1.2-1 3.8-2.1 4.6-3.3z" fill="#89c5cc"/><path d="M34.7 244.1a2.3 2.3 0 012.3-2.6h28a2.3 2.3 0 012.4 2.6L65.2 259a9.2 9.2 0 01-9 7.8H45.8a9.2 9.2 0 01-9-7.8z" fill="#c1dee2"/></g></svg>
