<svg width="256" height="216" xmlns="http://www.w3.org/2000/svg" preserveAspectRatio="xMinYMin meet"><path d="M110.582223.00868985c-4.42723.08209367-9.96736 2.84331095-13.9296481 1.88944724-1.5815655-.38070674-3.514642-.54483619-5.4070352-.44221106-.0333829.00192965-.0671196-.00192965-.1005025 0-1.9242066.11431879-3.8019924.51996302-5.1859297 1.36683417-.0571819.03499096-.1227706.06737045-.1809045.10050251-.0551236.08044061-.1131288.15332985-.1809045.22110553-1.8389548 1.83894834-5.9066082 2.00711075-7.798995 3.89949749-1.5457061 1.54570613-2.9779489 4.50528487-4.6834171 7.15577887-.016209.0252141-.0239276.0552523-.040201.080402-6.0680747 7.0746951-10.9103276 15.77975-12.6231156 22.8944724-1.4073181 5.84585-1.3879187 13.7414046-3.6984924 19.5577889-.646207 1.6266678-3.3253628 10.6310561-1.2462312 12.3819096 1.416156 1.1925612 7.4528869 2.1057093 9.2261307 0 .9543075-1.1333339 9.7050951-3.9658131 12.442211-7.2160804 3.2230915-3.8274637 4.8861331-10.4384193 7.0954774-16 .3515755-.8849882.8042581-1.8240836 1.3266332-2.7537689 1.2534352 2.4278191 2.2484068 4.4100567 2.7738693 5.6281407 1.093789 2.5354678 2.2972977 6.0416772 3.2964825 9.7889448-2.165342 3.3171168-1.2631092 7.8556687.3015075 9.9296482-6.3314911 1.9712386-3.315348 8.7826653-3.557789 9.0251256-.4169712.4170935-1.7378605.9740929-2.2713567 1.5075377-.6604865.6604929-.7638191 2.0379594-.7638191 3.0351759 0 .9621805.1215614 1.8171819.3015075 2.5728643-5.7608104 14.4920635-11.1983984 32.6318956-18.0703518 42.4120606-1.9779151.902155-4.0013893 1.676658-6.3718593 2.150753-4.6190054 1.155062-16.294535 3.443747-26.1306545 6.753769-.4269154.567394-.9243723 1.125378-1.4874372 1.688443-.9746203.974613-2.9248772.975128-3.8994975 1.949748-.7580366.758037-3.1213604-.094726-3.879397.663317-2.2493459 2.249339-5.5693186 3.417819-9.1055276 5.18593-.3923039.196148-1.6493926-.300357-1.9497487 0-1.6064065 1.606406-4.4827144 2.532965-5.84924628 3.899497-2.67356623 2.673566-4.91489125 5.578208-7.79899497 8.462312-2.86626734 2.866267 2.97908744 10.757981 3.89949749 11.678392 2.70844783 2.708447 7.68351196 3.140804 10.39195976 5.849246 1.1394509 1.139451 4.9597363-.38436 6.3316583.522613.3543156.049849.6711574.114473.8844221.221105 3.9905255 1.995263 11.8183108 3.470428 16.5427136 5.045226 6.5108789 2.170289 11.6754795 7.96912 18.3919611 9.648242 5.1130726 1.278269 10.9199437 1.958232 16.080402 3.678392 2.1574947.71916 4.7775968.225698 6.8743719.924623 3.9213925 1.307131 7.4620526 2.92956 11.0351758 4.120603 1.2375671.41252 2.8728089-.316977 4.1407036 0 2.8529013.713224 5.9369547.920358 8.7236177 1.849246 4.961949 1.653985 11.580765-1.653985 16.542714 0 3.270085 1.090026 23.629083-.654209 25.266332-2.291457 1.203643-1.203644 5.781161.325493 7.356783-.462312 1.367536-.683771 5.52048-.012928 6.432161-.924623 2.354621-2.354627 7.188139-2.458385 10.552764-4.140703 1.415339-.707667 3.596716.27199 5.065327-.462312.844735-.422368 2.560868.097312 4.42211.904523 3.541908-.074433 6.267845-.442211 9.809046-.442211 4.210112 0 10.022097-1.998962 16.180904-5.025126 6.815994-1.53535 15.147321-3.308125 15.537688-3.698493 2.961329-2.961328 10.83255-2.108931 13.768845-5.045226 2.080161-2.080167 4.753026-2.923886 6.894472-5.065326 1.907766-1.907773 4.528769-4.092218 7.276382-6.39196.478553-1.333734 1.703313-2.587736 2.834171-3.718593.474185-.474185 3.820838-10.267871 3.21608-11.477387-1.10747-2.21494-2.937342-4.046826-5.045226-5.748744-.653964-.223993-1.155448-.45193-1.386935-.683417-2.251648-2.251648-7.646732-2.601507-9.648241-4.603015-3.222898-3.222898-8.068464-6.119358-13.849246-8.060301-1.210796-.600121-2.344072-1.238545-3.155779-2.050252-1.029609-1.029602-6.980181-2.344361-8.723618-3.21608-.937764-.468892-2.978599.257582-3.678392-.442211-1.697351-1.697351-8.811185-2.906713-13.949749-4.542714-.749269.047534-1.951562-.524427-2.170854-.743718-.154597-.154604-4.137931-.740947-5.447236-2.050252-.148647-.14864-.683417-5.485687-.683417-6.150753 0-.245207-.595084-1.234062-.241206-1.58794.055059-.055059.108858-.119831.160804-.180905-2.378337-14.6557615-4.196837-30.8391617-5.909548-32.2814066-2.543341-2.141813-3.956332-13.9658484-6.753769-16.321608-2.924851-2.4629387-4.755373-5.1561938-7.015075-7.2562814-.001287-.0064322.001286-.0137005 0-.0200683-.850165-4.6724567-2.464476-9.9219683-2.974875-10.3517588-.828944-.6981146.426942-3.8646931-.40201-4.5628141-2.580267-2.1727839-5.941625-14.9468816-8.361809-16.9849246-3.169685-2.6692824-4.728937-6.8121858-7.738693-9.3467337C141.1754 9.64556543 128.821715.32627136 115.165138 1.03384764c-.587064-.16550593-1.158703-.36448483-1.708543-.58291457-.868226-.34492463-1.852687-.4611602-2.874372-.44221106V.00868985z" fill="#3C6991"/><path d="M107.633746 81.1124229c-1.147079-.2068197-2.268578-.2188092-3.148472.0731144-1.46522.4863228-3.827528-.6651948-5.3574428-.3890493-5.7844937 1.0440941-10.3195852 2.6112644-11.1005781 4.5558481 8.5853395-2.4613821 18.1166309 3.0324229 22.0213969 8.2527582 1.62313 2.1697865-.880537 5.4585053.003216 8.1207377.200021.602694.360001 4.462183-.334974 4.981985-1.452607 1.086618-1.30843 4.878415-2.509694 6.60875-2.827353 4.072902-5.29318 7.048574-7.6948394 10.508279-2.4767164 3.567823-9.0989475 4.282481-12.7950279 5.509268-.8166851.27109-1.8448402-.292535-2.7057078-.006818-.2034428.067595-.4405837.079186-.6773708.046118.0831099.093736.1791292.183523.2476703.275232.3117218.416611 1.8319952.019683 2.2762967.328144 2.8720691 1.993815 14.2369129 1.228922 17.3879509.183104 1.960626-.6508 3.7791-1.611893 5.7397-2.262603 2.514383-.834598 4.989119-4.744458 6.794838-6.757519 6.210818-6.923777 9.04897-18.915846 5.977266-28.1702074-1.544034-4.6519509-5.586087-7.4401962-9.02692-9.8288241-1.176449-.81673-3.185258-1.6836245-5.097205-2.0283047l-.000103-.0000129zM121.486498 72.1751863c-.36974-.0117708-.421686 3.6085516-.450373 5.3344483-.173759.0102271-.165969.2276856-.119175.4741596-1.866678.8289511-5.930047 2.4890918-5.619007 2.8213322.014729.0075257.016209.0179458.023541.0236704-.147129.0075256-.301475.0572462-.308242.2607984-.014729.2680924.538063.0147296.806136.0236703.432422.0147297 4.211979 1.4080579 5.71376 2.0389371.186269 1.4277982.734932 2.2802332.734932 3.911918 0 1.0172205.200542 2.4182802.260863 2.4182802.022126 0 .063292-.0313246.094166-.0475337.044125.1764792.094161.2808089.16597.2133741.295146-.2763256.830855-1.0171433 1.375093-1.8492655.023541-.0357628.048562-.0587256.070618-.0947586.958129-1.1864893 2.052207-2.7056048 2.987237-4.0778806 1.812525.2637314 3.472923.4741789 3.888132.4741789.199365 0 7.086942 1.1834725 5.09741-.8060977-.120648-.1213878-.262039-.224476-.402987-.3319317.044124-.0349909.069178-.0709145.070612-.1185897.01473-.3840579-3.830313-2.1515256-4.457237-2.8213258-.302511-.3231068-.740817-.5304282-1.043174-.8535221-.079456-.0848916.070612-.3220325.308242-.6638504v-.0236704c.534532-.5904595 1.10511-1.2000804 1.517231-1.6122018.197596-.1975702 1.310508-2.2796607.254836-2.1425913-.712266.0925459-3.038733.2397009-6.085712 1.1319702 0 0-.82277-1.0759525-.828359-1.0729552-.661651-.2706974-2.535976-2.5604888-4.056886-2.610724l.002373.0001608zM104.28068 71.638043c-.219523.1059377-.55249.536841-.658274.3174207-.105937-.2194267.877643-.4232169.658274-.3174207-.654742.3157033-3.187045 2.5969785-2.253925 3.3179723.767736.5932446 3.614462-.5163031 4.822422-.0943084.180525.0629709 2.186832 3.1414481 2.501107 2.2421741.512315-1.4667964-.122114-3.9603136-.105937-4.0055317.236298-.6766182 2.08914-.3989097 2.541874-.6172558.374152-.1803321 1.132774-.5000619 1.237239-.7994018.02798-.0813604.048563-.3214794.085335-.243914.030939.0628422-.494511-.4464756-1.134395-.6699932-.956359-.3341314-1.924348-.1247775-2.609547-.3642918-.316186-.1104981.064727-1.9695405-.050042-2.2070416-.376661-.781038-.615461-1.6969777-.549693-1.5604423.187009.3878851-.809378.3792917-1.072595.7200354-.327808.4242461-1.187074 1.8624257-1.742646 1.8544563-.665773-.0103558-3.332702-.6446955-3.511766-.1321294-.01473.028816 1.662166 1.6884229 1.842691 2.5595819l-.000122.00009zM130.060774 97.5121881c-.178473-.1657439-.701234-.3187521-.535567-.4972446.165827-.1785375.714188.662995.535567.4972446-.532621-.4945817-3.580038-2.0210042-3.911229-.8892526-.272493.9312289 1.798406 3.1775067 1.845779 4.4562975.014729.191029-2.128132 3.181546-1.176179 3.146259 1.552692-.057568 3.643453-1.557097 3.691269-1.55886.716241-.026629 1.133071 1.799996 1.501492 2.142071.304267.282552.87853.872407 1.195301.860649.086815-.003217.316778-.072652.258219-.010292-.047083.051393.235417-.623308.210403-1.30057-.038272-1.012396-.585147-1.837501-.612072-2.562869-.014729-.33462 1.85755-.6579 2.036757-.851193.590009-.635421 1.355983-1.1917189 1.252837-1.080629-.293088.315568-.648266-.6153713-1.061558-.7363409-.514527-.1505769-2.166975-.4264265-2.362076-.9466661-.233796-.6235337-.614567-3.3384587-1.157197-3.3183196-.030938.0006432-.966374 2.1633093-1.711746 2.648976v.0007397z" fill="#E6B35A"/><path d="M188.692776 121.556429c-.519365 1.786404-3.775235 7.513934-5.145729 8.884422-1.762714 1.762714-3.278697 3.600305-4.82412 5.145728-1.095134 1.095134-4.220977 3.899369-5.145729 4.824121-2.010745 2.010745-3.188827 1.259185-5.467337 3.537688-1.129391 1.129391-3.40278 1.151531-4.502512 2.251257-.994715.99472-8.97491 1.592982-10.934674 2.572864-.474275.237141-1.890708-.360548-2.251256 0-1.407948 1.407948-12.533689 1.920624-12.864322 2.251256-1.703422 1.703429-6.238237-.257762-8.683417.964824-2.16839 1.084199-6.472927.321608-9.005025.321608-1.402243 0-5.127982-.026629-8.964824-.120603-.905757-.128205-1.619245-.230001-1.648241-.201005-.019425.019425-.106298.108369-.160804.160804-.720653-.022191-1.414644-.052357-2.110553-.080402-.433238-.164946-.89299-.267069-1.266331-.080402-.017303.008619-.042003.011707-.06027.020069-2.993868-.144711-5.437195-.356786-6.0502511-.663317-2.5166344-1.258317-5.2194026-1.60804-8.361809-1.60804-4.918384 0-15.808862-5.813979-19.6180905-7.718593-.583397-.291699-2.2013105-1.987879-3.0753769-2.452261-.0068824-.336595-.0188462-.641981-.1407035-.763819-.8962251-.896226-1.2886255-2.89886-1.9296482-4.180905-.2667224-.533445 0-2.488796 0-2.251256 0 .010484.6464321-2.572865.643216-2.572865-.5510625 0-3.4333137 3.754922-4.5025125 4.824121-.0099699.00997.0201326.068065.040201.120603-.6025713.830508-1.0251256 2.069889-1.0251256 3.939699 0 6.374335 3.5158769 6.711856 6.8140703 10.01005.8097898.80979 2.5434372.27208 3.1758794.904522.6457246.645725 1.5934714 1.219268 2.7135678 1.728644-1.4009696.821374-4.1001744 1.024797-4.9849246 1.909547-.8653121.865313-4.8773081 3.353227-6.3718593 4.100503-.2809889.140498-1.6404583.293724-1.8090452.462311-8.4959968 8.495997-18.0842066 13.983705-25.9296495 21.829146-.6604929.660493-.9045226 9.28687-.9045226 10.914573 0 2.841722-.9651329 5.848944.9045226 7.718593.7887694.788776 3.4041053.228226 4.1005025.924623.1509692.150976 2.0527469 1.565344 2.2713568 1.346734.8299687-.829968-.4623116-5.169251-.4623116-6.351759 0-6.210592.670271-12.489365 4.5628154-16.38191 7.5060357-7.506035 18.2081029-10.931721 25.0050251-17.728643 1.9979514-1.997958 5.6587771-3.061921 8.321608-5.246231-.0933563.640547.0155015 1.244012.4824121 1.748744.3103903.33554 1.4163747-.328806 1.8090452-.120603 2.6707104 1.416124 10.8098251 4.452226 13.2060302 1.527638.4345375.826217.7789346 1.663363 1.2060301 2.090452 1.5954461 1.595446.3478063 9.294331-.4623115 10.914573-3.0566593 6.113312-4.6686424 23.76412-7.2763819 26.371859-.450232.450239.5401857 4.738657.9045226 5.467337.947573 1.89514-.6934706 6.120593 0 6.81407.6822335.682234.2423895 2.493646.9246231 3.17588.6210894.621096 3.4593125-.158778 4.080402.462311.2462102.246211 3.4818251 2.447823 4.1005025 1.829146.5126561-.512656-1.4033817-6.42486-1.8291457-7.276382-.3667618-.73353.9876776-14.193701 1.3668341-14.572864.5306276-.530621-.5306275-2.645258 0-3.17588 1.0332431-1.033243 2.2713568-22.442992 2.2713568-25.467336 0-.510463 1.3048606-3.700171.4623116-4.542714-.004503-.004502-.7535984-1.724983-1.7688442-3.396985 1.4993692.111347 2.7644272.292065 3.1356782.663317.66753.667523 14.124286 0 16.361809 0 8.885677 0 22.864293-.688428 28.201005-1.829146 2.127392-.454728 7.172619-.852641 10.01005-2.271357 1.647116-.823561 7.448539-1.386973 8.462312-1.648241 2.166352-.558311 9.127976-2.233503 11.075377-4.180904 1.444309-1.444316 6.382826-6.447695 8.201005-7.356784 2.049795-1.024894 3.079165-4.665665 4.281407-6.351759.154308-1.248302 3.513793-4.510096 2.854271-5.829146-.74842-3.045718-1.216212-6.194434-2.41206-6.311558l-.000032.000033z" fill="#E6B35A"/></svg>