<svg width="175" height="387" xmlns="http://www.w3.org/2000/svg"><g fill="#DA4648" fill-rule="evenodd"><path d="M86.72 304.739c-22.574 0-40.017-3.391-48.405-5.412-5.736-1.382-10.342-2.812-13.841-4.281l11.187 19.113 4.376 59.719c0 6.695 21.268 12.122 47.503 12.122s47.503-5.427 47.503-12.122l3.465-60.369 10.585-18.519c-3.514 1.489-8.161 2.938-13.969 4.337-8.388 2.021-25.831 5.412-48.404 5.412zm62.736-194.328C132.888 112.725 110.899 114 87.54 114c-23.359 0-45.348-1.275-61.916-3.589-8.207-1.146-14.7-2.498-19.299-4.016-1.097-.363-2.956-.982-4.745-1.968L11.845 198.9c.477-1.627 1.008-3.252 1.597-4.871 1.205-3.318 2.599-6.562 4.181-9.731 1.583-3.168 3.306-6.163 5.169-8.984 1.862-2.82 3.845-5.417 5.946-7.79 2.102-2.372 4.258-4.412 6.472-6.122 2.213-1.708 4.447-3.044 6.702-4.006 2.256-.962 4.49-1.444 6.703-1.444 2.549 0 5.015.697 7.397 2.091 2.381 1.393 4.607 3.65 6.681 6.769.476.697.778 1.402.903 2.115.127.714.189 1.386.189 2.016 0 1.493-.357 2.672-1.071 3.534-.714.863-1.562 1.294-2.542 1.294-.898 0-1.731-.473-2.501-1.418-.771-.946-1.632-2.298-2.585-4.057-.897-1.593-1.884-2.745-2.962-3.459-1.079-.713-2.248-1.07-3.509-1.07-1.961 0-4.055.813-6.282 2.439-2.228 1.625-4.434 3.774-6.618 6.445-2.186 2.672-4.28 5.724-6.283 9.159-2.003 3.434-3.776 6.951-5.317 10.551-1.541 3.602-2.765 7.153-3.676 10.653-.911 3.5-1.366 6.644-1.366 9.431 0 .93.064 1.885.189 2.862.127.98.364 1.867.715 2.664.349.797.826 1.451 1.428 1.964.603.516 1.366.772 2.29.772 1.037 0 2.213-.348 3.531-1.045 1.316-.695 2.682-1.609 4.096-2.736 1.415-1.129 2.837-2.406 4.266-3.834 1.43-1.426 2.76-2.869 3.992-4.33 1.232-1.459 2.325-2.862 3.277-4.205.953-1.344 1.667-2.514 2.144-3.51l3.908-11.697c.476-1.26 1.099-2.156 1.87-2.687.77-.531 1.562-.797 2.375-.797.391 0 .783.067 1.176.199.393.133.742.341 1.051.622.308.283.553.647.735 1.096.182.447.273.97.273 1.567 0 1.593-.14 3.085-.42 4.48-.28 1.395-.637 2.754-1.072 4.082-.434 1.326-.918 2.662-1.45 4.006-.532 1.344-1.051 2.746-1.554 4.207-.112.166-.315.687-.61 1.566-.294.881-.65 1.985-1.071 3.311-.42 1.328-.876 2.812-1.366 4.455-.491 1.643-.994 3.318-1.512 5.027-.519 1.709-1.016 3.385-1.492 5.028-.477 1.642-.905 3.127-1.282 4.455-.378 1.326-.693 2.437-.946 3.334-.252.896-.406 1.426-.462 1.594-.14.529-.365 1.119-.672 1.765-.308.647-.672 1.262-1.093 1.842-.42.58-.882 1.063-1.387 1.443-.504.381-1.022.573-1.555.573-.896 0-1.548-.299-1.953-.895-.407-.598-.609-1.693-.609-3.285v-.697c0-.233.013-.483.041-.746.027-.532.238-1.528.631-2.989.392-1.459.861-3.109 1.408-4.951.546-1.842 1.135-3.75 1.765-5.725.629-1.974 1.197-3.74 1.702-5.3-1.487 1.66-3.096 3.31-4.833 4.953-1.738 1.642-3.517 3.119-5.337 4.429-1.822 1.311-3.657 2.381-5.505 3.211-1.849.829-3.628 1.245-5.337 1.245-1.961 0-3.649-.432-5.065-1.295-.255-.157-.496-.332-.736-.506l5.712 59.888c1.487 3.727 29.481 12.884 66.391 12.884 36.927 0 64.932-9.166 66.393-12.89l8.205-71.202c-.679.623-1.34 1.232-1.972 1.822-2.354 2.189-4.575 4.072-6.662 5.648-2.086 1.576-4.125 2.797-6.114 3.658-1.99.864-4.119 1.295-6.388 1.295-2.129 0-3.776-.465-4.938-1.394-1.162-.928-1.744-2.205-1.744-3.832v-.373c0-.116.014-.258.043-.424.111-.994.547-2.141 1.303-3.434.756-1.295 1.666-2.638 2.73-4.031 1.065-1.394 2.199-2.805 3.404-4.232 1.205-1.426 2.319-2.778 3.342-4.057 1.022-1.275 1.869-2.445 2.541-3.508.674-1.062 1.01-1.924 1.01-2.588 0-.398-.141-.713-.42-.947-.281-.23-.744-.348-1.387-.348-1.121 0-2.277.291-3.466.871-1.192.58-2.37 1.362-3.532 2.34-1.162.979-2.297 2.1-3.404 3.36-1.105 1.261-2.142 2.572-3.109 3.931-.967 1.362-1.848 2.731-2.647 4.108-.799 1.377-1.478 2.646-2.039 3.806-.168.366-.406.881-.715 1.543-.308.664-.644 1.412-1.008 2.241-.365.83-.75 1.685-1.156 2.562-.406.881-.777 1.711-1.113 2.49-.336.78-.637 1.475-.902 2.09-.268.613-.457 1.037-.569 1.27-.14.298-.371.861-.693 1.691-.322.83-.694 1.801-1.113 2.912-.42 1.111-.862 2.281-1.325 3.51-.46 1.226-.896 2.389-1.302 3.484-.407 1.094-.764 2.057-1.071 2.887-.308.828-.506 1.393-.59 1.692-.279.863-.609 1.674-.986 2.44-.379.762-.812 1.434-1.303 2.016-.49.58-1.05 1.044-1.681 1.392-.631.35-1.338.523-2.121.523-1.01 0-1.842-.242-2.502-.722-.657-.481-.987-1.403-.987-2.762 0-.664.084-1.344.252-2.04.168-.697.379-1.387.631-2.066.252-.682.512-1.344.778-1.991.265-.648.511-1.269.734-1.867 1.514-3.318 3.055-6.644 4.623-9.98 1.568-3.334 3.074-6.635 4.518-9.904.3-.682.576-1.35.869-2.028-.088.086-.174.176-.26.26-1.822 1.76-3.635 3.31-5.442 4.654-1.808 1.344-3.601 2.414-5.378 3.211-1.78.795-3.51 1.194-5.192 1.194-1.148 0-2.107-.182-2.877-.547-.771-.366-1.386-.864-1.849-1.493-.463-.63-.793-1.377-.989-2.24-.066-.295-.107-.603-.15-.91-.492.383-.988.756-1.488 1.11-1.737 1.226-3.446 2.214-5.127 2.96-1.68.747-3.194 1.12-4.537 1.12-1.346 0-2.438-.448-3.28-1.344-.84-.895-1.259-2.422-1.259-4.578 0-1.528.224-3.303.671-5.326-.728 1.294-1.638 2.605-2.73 3.931-1.094 1.328-2.34 2.539-3.74 3.635-1.403 1.094-2.971 1.982-4.707 2.662-1.738.68-3.629 1.02-5.673 1.02-.925 0-1.814-.116-2.669-.348-.855-.233-1.604-.631-2.248-1.195-.645-.563-1.162-1.319-1.555-2.264-.392-.945-.588-2.133-.588-3.559 0-.033.056-.539.168-1.519.112-.979.469-2.522 1.072-4.629.602-2.106 1.534-4.836 2.793-8.188 1.262-3.351 3.041-7.416 5.338-12.193.588-1.262 1.268-2.166 2.037-2.713.772-.548 1.604-.822 2.5-.822.393 0 .799.059 1.219.174.422.117.813.299 1.178.548.363.249.658.565.883.946.222.381.336.82.336 1.318 0 .332-.043.649-.127.945-.141.567-.442 1.303-.902 2.215-.463.914-1.003 1.959-1.62 3.137-.615 1.178-1.267 2.447-1.953 3.809-.687 1.359-1.324 2.769-1.912 4.23-.588 1.461-1.093 2.945-1.513 4.455-.42 1.51-.659 2.979-.714 4.405 0 .597.139 1.144.42 1.642.28.498.743.746 1.387.746 1.82 0 3.557-.598 5.211-1.791 1.652-1.195 3.178-2.68 4.58-4.455 1.401-1.775 2.668-3.684 3.803-5.725 1.135-2.041 2.08-3.906 2.836-5.599.533-1.127 1.002-2.34 1.408-3.633.406-1.295.848-2.488 1.324-3.584.477-1.096 1.022-2.008 1.639-2.738.615-.729 1.387-1.095 2.31-1.095 1.01 0 1.807.382 2.397 1.145.588.764.881 1.676.881 2.737 0 .597-.188 1.42-.567 2.465-.379 1.045-.855 2.24-1.429 3.584-.575 1.344-1.198 2.779-1.869 4.304-.672 1.528-1.297 3.078-1.869 4.655-.577 1.576-1.051 3.119-1.43 4.629-.379 1.509-.567 2.912-.567 4.205 0 1.195.616 1.793 1.848 1.793.869 0 1.947-.299 3.236-.897 1.289-.598 2.641-1.435 4.055-2.514.353-.269.709-.55 1.062-.845.395-1.629.858-3.135 1.397-4.504.98-2.59 1.975-5.16 2.984-7.715 1.008-2.555 1.932-4.895 2.774-7.019l12.732-32.104c.504-1.294 1.184-2.207 2.037-2.738.856-.53 1.717-.796 2.586-.796.867 0 1.658.282 2.373.846.715.565 1.073 1.477 1.073 2.738 0 .597-.12 1.228-.358 1.891-.238.664-.539 1.377-.904 2.14-.699 1.561-1.533 3.468-2.5 5.724-.967 2.257-2.004 4.713-3.11 7.367-1.107 2.655-2.242 5.417-3.404 8.287-1.162 2.871-2.297 5.666-3.404 8.387-1.105 2.722-2.143 5.3-3.11 7.74-.966 2.439-1.798 4.555-2.5 6.346-.308.763-.609 1.652-.902 2.664-.295 1.011-.441 1.916-.441 2.713 0 .496.084.894.252 1.193.168.299.49.449.966.449.588 0 1.323-.207 2.206-.623.882-.414 1.834-.963 2.857-1.643 1.024-.679 2.088-1.459 3.193-2.339 1.108-.879 2.207-1.791 3.299-2.737 1.094-.947 2.137-1.892 3.131-2.838.994-.945 1.885-1.816 2.67-2.613.184-.191.404-.326.646-.427.473-1.413.905-2.797 1.286-4.151.224-.598.533-1.443.925-2.539.391-1.096.84-2.174 1.344-3.236.504-1.061 1.073-1.983 1.701-2.762.631-.779 1.311-1.17 2.039-1.17 1.121 0 1.934.258 2.438.771.504.516.756 1.27.756 2.266 0 .199-.028.514-.084.945-.057.432-.125.889-.209 1.37-.084.48-.176.937-.274 1.369-.099.431-.189.746-.273.945 1.035-1.129 2.156-2.248 3.361-3.359 1.205-1.112 2.451-2.118 3.74-3.012 1.29-.897 2.606-1.625 3.952-2.192 1.343-.562 2.689-.845 4.033-.845.924 0 1.842.133 2.752.399.91.265 1.724.655 2.437 1.169.715.516 1.297 1.162 1.744 1.942.448.779.672 1.683.672 2.712 0 1.362-.342 2.813-1.029 4.356-.686 1.543-1.547 3.094-2.584 4.652-1.037 1.561-2.158 3.078-3.361 4.555-1.205 1.477-2.332 2.82-3.383 4.031-1.051 1.213-1.934 2.24-2.649 3.086-.712.848-1.086 1.42-1.113 1.719 0 .398.127.721.379.971.252.248.672.373 1.26.373.476 0 1.178-.266 2.101-.797.924-.531 2.221-1.451 3.887-2.762s3.783-3.07 6.346-5.277c1.758-1.512 3.816-3.315 6.135-5.366l11.114-102.929c-1.79.988-3.652 1.608-4.75 1.971-4.598 1.518-11.091 2.87-19.299 4.016zM87.474 85.99c-48.048502 0-87 5.3723808-87 12 0 6.627619 38.951498 12 87 12s87-5.372381 87-12c0-6.6276192-38.951498-12-87-12zm34.738 15.507c0 1.555-4.629 2.816-10.34 2.816-5.71 0-10.339-1.261-10.339-2.816 0-1.556 4.629-2.817 10.339-2.817 5.711 0 10.34 1.261 10.34 2.817z"/><path d="M103.626755 100.2519937c-.051266.081735-.077755.1651954-.077755.2500063 0 1.007 3.727 1.822 8.323 1.822 4.597 0 8.323-.815 8.323-1.822l10.871-44.078 43.233046-45.64476104c.014116-.0139259.02777-.02833741.040954-.04323896.915-1.035-.942-4.238-4.023-6.985-3.081-2.747-6.408-3.677-7.442-2.631-.007729.00782282-.015267.01575616-.022617.02379912L116.725 49.682l-13.098245 50.5699937z"/></g></svg>