<?xml version="1.0" standalone="no"?>
<!DOCTYPE svg PUBLIC "-//W3C//DTD SVG 20010904//EN"
 "http://www.w3.org/TR/2001/REC-SVG-20010904/DTD/svg10.dtd">
<svg version="1.0" xmlns="http://www.w3.org/2000/svg"
 width="1024.000000pt" height="1024.000000pt" viewBox="0 0 1024.000000 1024.000000"
 preserveAspectRatio="xMidYMid meet">
<metadata>
Created by potrace 1.11, written by Peter Selinger 2001-2013
</metadata>
<g transform="translate(0.000000,1024.000000) scale(0.100000,-0.100000)"
fill="#000000" stroke="none">
<path d="M2319 8836 c-2 -2 -49 -7 -104 -10 -195 -13 -308 -25 -404 -41 -14
-2 -46 -7 -71 -10 -65 -9 -274 -46 -281 -50 -3 -2 -21 -7 -40 -10 -19 -3 -52
-11 -74 -16 -22 -6 -47 -13 -55 -14 -78 -16 -140 -34 -290 -85 -326 -109 -461
-181 -597 -317 -144 -145 -234 -321 -261 -512 -9 -64 -7 -5337 2 -5386 38
-205 118 -359 256 -496 135 -133 287 -214 482 -255 13 -3 68 -6 123 -8 106 -4
181 6 355 48 58 14 121 28 140 31 19 3 42 8 50 10 8 2 35 7 60 10 25 4 83 13
130 20 47 8 108 17 135 19 28 3 66 7 85 10 164 23 334 31 685 31 307 0 432 -5
558 -20 18 -2 61 -7 97 -10 36 -3 76 -8 90 -10 14 -2 45 -7 70 -10 126 -17
338 -58 500 -97 138 -33 447 -133 534 -173 30 -14 57 -25 59 -25 3 0 49 -21
104 -46 241 -113 421 -141 646 -100 66 12 149 41 242 85 97 46 373 161 398
165 7 1 64 18 127 38 131 41 402 106 513 123 67 11 84 14 112 19 59 10 153 23
235 31 30 3 69 8 85 10 27 3 131 11 275 20 72 5 539 5 610 1 158 -11 239 -17
280 -21 87 -9 136 -15 215 -26 86 -11 97 -13 190 -28 133 -22 178 -30 193 -35
10 -3 28 -7 42 -10 14 -2 52 -11 85 -19 33 -9 76 -19 95 -22 19 -3 53 -10 75
-15 68 -15 261 -5 350 19 359 97 622 401 670 771 9 67 10 5233 1 5310 -24 218
-115 407 -266 556 -140 137 -282 212 -610 320 -209 69 -550 149 -720 169 -30
3 -62 8 -70 10 -8 2 -37 7 -65 10 -27 3 -68 8 -90 10 -196 23 -344 30 -655 30
-262 0 -427 -6 -563 -20 -23 -2 -69 -7 -102 -10 -33 -3 -73 -8 -90 -11 -16 -2
-46 -6 -65 -8 -79 -10 -203 -30 -275 -45 -27 -6 -61 -13 -75 -15 -50 -8 -275
-67 -386 -101 -324 -98 -670 -264 -891 -426 l-51 -38 -126 84 c-70 46 -154 98
-189 116 -34 18 -96 49 -137 71 -154 79 -570 226 -740 262 -14 3 -45 10 -70
16 -25 6 -54 13 -65 15 -11 2 -56 11 -100 19 -150 29 -371 60 -510 71 -44 3
-102 8 -130 11 -58 6 -731 14 -736 10z m5501 -911 c118 -2 231 -7 250 -9 19
-2 69 -7 110 -10 41 -3 107 -10 145 -15 39 -6 90 -13 115 -16 82 -10 117 -15
190 -30 14 -2 36 -6 50 -9 148 -24 212 -41 273 -73 76 -40 162 -126 195 -195
53 -109 51 18 51 -2344 1 -1349 -3 -2210 -8 -2241 -16 -82 -60 -162 -125 -226
-101 -100 -219 -144 -361 -134 -44 3 -91 8 -105 11 -14 4 -45 9 -70 11 -25 3
-67 10 -95 15 -27 5 -79 11 -115 15 -36 3 -83 8 -105 11 -245 30 -791 36 -990
9 -16 -2 -52 -7 -80 -10 -87 -11 -250 -35 -320 -49 -11 -2 -60 -11 -110 -21
-512 -95 -1132 -312 -1499 -524 -49 -28 -90 -51 -92 -51 -2 0 -4 1172 -4 2603
0 2467 1 2605 18 2619 22 20 236 134 327 175 195 87 220 97 350 145 235 85
574 183 809 233 145 30 334 63 471 80 11 1 40 5 65 9 76 11 129 15 270 22 74
3 136 8 138 9 2 2 11 1 20 -1 9 -2 114 -6 232 -9z"/>
<path d="M7457 6794 c-1 -1 -74 -4 -162 -8 -88 -3 -169 -8 -180 -10 -11 -2
-60 -7 -110 -11 -49 -3 -99 -8 -110 -10 -11 -2 -45 -7 -75 -10 -30 -3 -66 -7
-80 -10 -14 -2 -43 -6 -65 -10 -320 -46 -745 -153 -835 -210 -54 -34 -98 -84
-128 -145 -23 -47 -27 -68 -27 -140 0 -76 4 -93 32 -151 37 -74 80 -118 156
-157 73 -38 193 -37 321 1 48 15 98 29 110 32 11 2 80 18 151 35 72 16 148 32
170 35 22 3 47 8 55 10 19 5 94 16 195 30 28 3 61 8 75 11 14 2 59 7 100 10
41 3 91 8 110 10 106 10 318 18 485 17 202 -1 356 -8 575 -29 92 -8 143 -6
178 7 15 6 29 11 32 11 3 0 21 8 40 18 46 24 113 94 139 147 21 41 40 134 35
169 -17 121 -57 191 -145 257 -59 45 -113 59 -264 72 -38 4 -87 8 -108 10
-123 12 -660 27 -670 19z"/>
<path d="M7215 5579 c-44 -4 -118 -10 -165 -14 -47 -3 -98 -8 -115 -10 -50 -7
-197 -26 -240 -31 -37 -5 -167 -27 -225 -39 -14 -3 -38 -8 -55 -10 -16 -3 -37
-8 -45 -10 -8 -2 -31 -6 -50 -9 -50 -8 -250 -61 -350 -93 -200 -64 -292 -177
-286 -353 6 -220 205 -369 421 -314 28 7 130 33 229 58 150 39 255 61 436 91
14 3 61 9 105 15 278 37 420 45 755 45 281 -1 449 -8 552 -24 183 -29 325 21
402 143 42 65 59 116 59 180 0 100 -27 168 -93 240 -72 78 -151 104 -363 121
-39 3 -94 8 -122 11 -83 8 -764 11 -850 3z"/>
<path d="M7457 4384 c-1 -1 -72 -4 -157 -8 -85 -3 -171 -8 -190 -10 -19 -3
-64 -7 -100 -10 -122 -11 -165 -16 -205 -22 -71 -10 -89 -13 -135 -19 -201
-27 -595 -118 -742 -171 -113 -41 -169 -89 -216 -184 -23 -48 -27 -67 -27
-145 1 -78 4 -97 28 -145 46 -89 121 -155 209 -181 48 -14 145 -12 208 6 241
67 478 123 595 139 22 3 87 12 145 20 58 9 139 18 180 22 41 3 91 7 110 9 231
23 761 23 947 0 16 -2 60 -7 98 -11 39 -3 72 -8 75 -9 14 -8 127 19 175 41 99
47 179 163 186 270 10 136 -63 269 -181 329 -63 32 -120 42 -335 60 -144 13
-658 27 -668 19z"/>
</g>
</svg>
