<svg version="1.0" xmlns="http://www.w3.org/2000/svg" width="1365.3" height="1365.3" viewBox="0 0 1024 1024">
  <path d="M232 140l-10 1-41 4-7 1a506 506 0 00-32 6l-7 2-6 1-29 9c-33 11-46 18-60 32a90 90 0 00-26 51v539a93 93 0 0074 75 127 127 0 0048-4 284 284 0 0152-9l8-1c16-3 33-3 69-3 30 0 43 0 55 2l10 1 9 1 7 1a585 585 0 01109 29l11 5a98 98 0 0089 1 540 540 0 0152-20 496 496 0 0186-17l9-1a910 910 0 0188-3 1339 1339 0 0150 5l19 3a235 235 0 0141 9l8 1c6 2 26 1 35-2 35-10 62-40 67-77V251c-3-22-12-41-27-56-14-13-28-21-61-32a470 470 0 00-85-18l-9-1a499 499 0 00-122-1l-10 1-9 1h-7a427 427 0 00-74 17c-32 9-67 26-89 42l-5 4-12-8-19-12-14-7a449 449 0 00-81-28l-7-1-10-2a542 542 0 00-137-10zm550 91a534 534 0 0186 9c15 3 21 5 27 8 8 4 16 12 20 19 5 11 5-2 5 235l-1 224c-1 8-6 16-12 22a44 44 0 01-36 14 114 114 0 01-18-2 204 204 0 01-21-3l-10-2c-25-3-80-3-99-1l-8 2a630 630 0 00-193 59l-10 5a44644 44644 0 012-522 320 320 0 0168-32 703 703 0 01161-35 201 201 0 0016 0h23z"/>
  <path d="M746 345h-16a297 297 0 00-48 4l-8 1-6 1c-32 5-75 16-84 21-5 4-10 9-13 15-2 5-2 7-2 14 0 8 0 9 3 15 3 7 8 12 15 16 8 4 20 3 32 0a280 280 0 0149-12 328 328 0 0148-6 593 593 0 01106 2 43 43 0 0021-2l4-2c5-2 11-9 14-15 2-4 4-13 3-17-1-12-5-19-14-25-6-5-11-6-26-8l-11-1c-13-1-66-2-67-1zM722 466l-17 2a267 267 0 00-35 4 522 522 0 00-73 16c-20 6-29 17-29 35 1 22 21 37 42 31l23-5 44-9 11-2a472 472 0 01130-2c19 3 33-2 40-14 5-7 6-12 6-18 0-10-2-17-9-24-7-8-15-11-36-12l-12-2h-85zM746 586h-16a456 456 0 00-49 5l-14 1c-20 3-59 12-74 18-12 4-17 8-22 18-2 5-3 7-3 14l3 15c5 9 12 15 21 18 5 1 15 1 21-1 24-6 48-12 59-13l15-2a376 376 0 0129-4 650 650 0 01112 2c1 1 13-1 17-4 10-4 18-16 19-27 1-13-6-27-18-33-6-3-12-4-34-6-14-1-65-2-66-1z"/>
</svg>
