<svg xmlns="http://www.w3.org/2000/svg" width="90" height="214"><path d="M58.9 17.8l-9.7-9.6a4.2 4.2 0 00-5.9 0L17.5 33.9a8.3 8.3 0 00-2.4 6v170.6" fill="none" stroke="#cbcbcb" stroke-miterlimit="10" stroke-width="8"/><rect width="30.7" height="3.6" rx="1.8" transform="translate(0 210)" fill="#afb9c5"/><g transform="rotate(135 39.8 30.8)"><path d="M0 2.9h34.4v14.6a17.2 17.2 0 01-17.2 17.2A17.2 17.2 0 010 17.5V2.9z" fill="#c5cfd6"/><ellipse cx="17.2" cy="3.4" rx="17.2" ry="3.4" fill="#f2f2f2"/></g><path d="M74.8 66.8c-4.6 11-12.4 18.5-16.5 29.9a64.6 64.6 0 00-3.6 21.6v12.2c0 4 .2 8 .5 12 .4 3.9.8 7.8 1 11.8 0 3.1.1 6.7 1.2 9.6.8 2.2 3 2.6 3.5-.2a22 22 0 00.2-4.8l-.2-6c-.2-8 .1-16.1 0-24.2-.2-7.8-1.2-15.7-.1-23.5a55 55 0 016-17.4c2.6-5 5.4-10 7.1-15.9a28 28 0 001.1-5.2l-.2.1z" fill="#c1dee2"/><path d="M76 88.4a8.8 8.8 0 00-2 2.5c-.7 1.2-1.6 2.3-2.4 3.5-1.6 2.4-3 5-4.4 7.6a50 50 0 00-6 15.7 168.8 168.8 0 00-1.8 17.8c-.4 6.2-1 12.6-1 18.9a67.5 67.5 0 00.2 8.6c.2 1.7 1 3.2 2.7 3.2 3.8 0 5.6-4.2 6.3-7.6a64.3 64.3 0 001.2-15.6c-.3-6.2-1.3-12.3-1.8-18.5-.5-6.6-.2-13 2-19.2l3.7-9.3a30 30 0 011.6-3.9 37.5 37.5 0 002.3-4z" fill="#89c5cc"/><path d="M32.6 75.3l-.3-.3a34.5 34.5 0 001.4 3.8 31.2 31.2 0 01.9 3.8l2 8.8c1.2 6 1 12.3.2 18.8-.7 6.2-2 12.4-2.5 18.6A85.2 85.2 0 0034 144c.3 3.3 1.3 7.3 4 7 1.3-.2 2-1.7 2.2-3.5.5-2.8.6-5.8.7-8.6.4-6.2.5-12.4.6-18.6 0-5.8.2-11.8-.2-17.5a53.5 53.5 0 00-3.2-15c-.9-2.3-1.7-4.8-2.7-7L34 77.5a6.8 6.8 0 00-1.4-2.3zM75 106.4c-.5-.8-1.6 2-1.7 2.3l.2-.5a23 23 0 00-2.5 5.2l-1.6 5.7c-1 3.5-2.2 7-3 10.5a34.2 34.2 0 00-1 10.5 89.4 89.4 0 01.1 11.2 32.8 32.8 0 01-1 5.2l-1.2 5.1c-.1-.2-.2.6-.2.6a3.6 3.6 0 00.2 1.2 3.2 3.2 0 002 2.2c1.8.5 3.5-1.1 4-2.9A47.3 47.3 0 0071 155a37 37 0 00.3-7.2c-.2-4.8-1-9.5-1.3-14.3-.2-5.2.8-10.1 1.7-15.2a44.3 44.3 0 011.6-7.2 20.2 20.2 0 011.2-2.6c.2-.5.7-1.4.4-2z" fill="#c1dee2"/><path d="M60.3 98.3c.2 6 .6 11.9 1.4 17.8l2.5 18a122 122 0 011.4 17.8c0 4.4.7 11.8-4.2 14-5 2.2-6-7.2-6.3-10.3a115.6 115.6 0 01-.1-17.8c.3-6.1.8-12.2 1.5-18.3A526.6 526.6 0 0058.2 99c.2-3.3.2-6.7.2-10a25.1 25.1 0 011.2-9.4l.1.1" fill="#69a1ac"/><path d="M34.9 117.2l2.6 4a20.8 20.8 0 013.2 8.6c.9 7.3.2 15.2 0 22.8 0 1.5.2 3-.4 4.5-.6 1.3-1.6 2.3-2.6 2.3-2 0-1.8-5.1-1.8-7.4 0-4 .5-8 .4-12a83 83 0 00-.8-11.6 66.9 66.9 0 00-2.5-10.8c-.2-.4-1.3-4-.3-3.4" fill="#89c5cc"/><path d="M44.1 78.2c1.4 0 1.4 6.8 1.5 7.7.1 3.2 0 6.4.2 9.6a173.7 173.7 0 001.5 21c.5 3.6 1.2 7.3 2 11s1.6 7.4 2 11.1a77.9 77.9 0 01.2 10.9 95.2 95.2 0 01-.7 10.9 84.8 84.8 0 01-.4 2.6 21 21 0 01-.3 2.4 2.4 2.4 0 01-2.7 1.3c-2.6-.5-4.2-3.8-5.1-6.1a57.4 57.4 0 01-2.4-9.6 83.6 83.6 0 01-1.2-11 185.7 185.7 0 01.6-22.6c.3-4.2.7-8.3 1.2-12.5l1.7-12.4.8-9c0-.7 0-5.3 1.1-5.3" fill="#69a1ac"/><path d="M45.9 128.2c.2-7.2 3.1-39 3.8-47.7.1-2.2 1.7-11.3 2-13.8.5.7.5 11.6.4 14.1 0 2.5.3 5 .5 7.4.2 2.5 3.9 35 4.4 37.5 1 4.8 1.6 9.7 2 14.7.6 4.8 1.3 9.8.7 14.7a14.7 14.7 0 01-.8 3.2l-1 3.3a6.7 6.7 0 01-3 4.2c-3 1.6-4.7-2-5.5-5a83 83 0 01-2.6-15.3 160.9 160.9 0 01-1-17.3" fill="#89c5cc"/><g transform="translate(25.5 149.5)"><rect width="47.4" height="47.4" rx="2" transform="translate(5.2)" fill="#f2f2f2"/><rect width="5.2" height="58.9" rx="2" transform="translate(52.6 5.2)" fill="#c5cfd6"/><rect width="5.2" height="58.9" rx="2" transform="translate(26.6 5.2)" fill="#c5cfd6"/><rect width="5.2" height="58.9" rx="2" transform="translate(0 5.2)" fill="#c5cfd6"/></g></svg>
